M48
; DRILL file {KiCad (6.0.10)} date Sun Mar 19 21:25:38 2023
; FORMAT={-:-/ absolute / metric / decimal}
; #@! TF.CreationDate,2023-03-19T21:25:38+07:00
; #@! TF.GenerationSoftware,Kicad,Pcbnew,(6.0.10)
; #@! TF.FileFunction,NonPlated,1,2,NPTH
FMAT,2
METRIC
; #@! TA.AperFunction,NonPlated,NPTH,ComponentDrill
T1C1.200
; #@! TA.AperFunction,NonPlated,NPTH,ComponentDrill
T2C1.700
; #@! TA.AperFunction,NonPlated,NPTH,ComponentDrill
T3C1.900
; #@! TA.AperFunction,NonPlated,NPTH,ComponentDrill
T4C3.000
; #@! TA.AperFunction,NonPlated,NPTH,ComponentDrill
T5C4.000
; #@! TA.AperFunction,NonPlated,NPTH,ComponentDrill
T6C5.000
%
G90
G05
T1
X194.242Y-46.215
X194.242Y-53.215
X195.992Y-46.215
X195.992Y-53.215
T2
X81.915Y-57.975
X81.915Y-77.025
X81.915Y-96.075
X81.915Y-115.125
X81.915Y-134.112
X92.075Y-57.975
X92.075Y-77.025
X92.075Y-96.075
X92.075Y-115.125
X92.075Y-134.112
X100.965Y-58.039
X100.965Y-77.025
X100.965Y-96.075
X100.965Y-115.062
X100.965Y-134.112
X111.125Y-58.039
X111.125Y-77.025
X111.125Y-96.075
X111.125Y-115.062
X111.125Y-134.112
X120.015Y-53.213
X120.015Y-72.263
X120.015Y-91.313
X120.015Y-110.363
X120.015Y-129.413
X130.175Y-53.213
X130.175Y-72.263
X130.175Y-91.313
X130.175Y-110.363
X130.175Y-129.413
X139.065Y-50.832
X139.065Y-69.882
X139.065Y-88.9
X139.065Y-107.982
X139.065Y-127.032
X146.685Y-129.413
X149.225Y-50.832
X149.225Y-69.882
X149.225Y-88.9
X149.225Y-107.982
X149.225Y-127.032
X156.845Y-129.413
X158.115Y-53.213
X158.115Y-72.263
X158.115Y-91.313
X158.115Y-110.363
X168.275Y-53.213
X168.275Y-72.263
X168.275Y-91.313
X168.275Y-110.363
X171.752Y-138.575
X176.832Y-129.776
X177.165Y-55.594
X177.165Y-74.644
X177.165Y-93.694
X177.165Y-112.744
X187.325Y-55.594
X187.325Y-74.644
X187.325Y-93.694
X187.325Y-112.744
X188.25Y-148.1
X192.994Y-139.822
X193.33Y-139.301
X196.215Y-65.119
X196.215Y-84.201
X196.215Y-103.251
X197.785Y-131.567
X198.074Y-131.023
X202.865Y-122.768
X204.748Y-157.625
X206.375Y-65.119
X206.375Y-84.201
X206.375Y-103.251
X209.51Y-149.376
X209.828Y-148.826
X214.273Y-141.127
X214.59Y-140.577
X219.353Y-132.328
T3
X138.645Y-50.832
X138.645Y-69.882
X149.645Y-50.832
X149.645Y-69.882
T4
X83.185Y-55.435
X83.185Y-74.485
X83.185Y-93.535
X83.185Y-112.585
X83.185Y-131.572
X84.455Y-52.895
X84.455Y-71.945
X84.455Y-90.995
X84.455Y-110.045
X84.455Y-129.032
X89.535Y-52.895
X89.535Y-71.945
X89.535Y-90.995
X89.535Y-110.045
X89.535Y-129.032
X90.805Y-55.435
X90.805Y-74.486
X90.805Y-93.535
X90.805Y-112.585
X90.805Y-131.572
X102.235Y-55.499
X102.235Y-74.485
X102.235Y-93.535
X102.235Y-112.522
X102.235Y-131.572
X103.505Y-52.959
X103.505Y-71.945
X103.505Y-90.995
X103.505Y-109.982
X103.505Y-129.032
X108.585Y-52.959
X108.585Y-71.945
X108.585Y-90.995
X108.585Y-109.982
X108.585Y-129.032
X109.855Y-55.499
X109.855Y-74.486
X109.855Y-93.535
X109.855Y-112.522
X109.855Y-131.572
X121.285Y-50.673
X121.285Y-69.723
X121.285Y-88.773
X121.285Y-107.823
X121.285Y-126.873
X122.555Y-48.133
X122.555Y-67.183
X122.555Y-86.233
X122.555Y-105.283
X122.555Y-124.333
X127.635Y-48.133
X127.635Y-67.183
X127.635Y-86.233
X127.635Y-105.283
X127.635Y-124.333
X128.905Y-50.673
X128.905Y-69.723
X128.905Y-88.773
X128.905Y-107.823
X128.905Y-126.873
X140.335Y-86.36
X140.335Y-105.442
X140.335Y-124.492
X141.605Y-83.82
X141.605Y-102.902
X141.605Y-121.952
X146.685Y-83.82
X146.685Y-102.902
X146.685Y-121.952
X147.955Y-86.36
X147.955Y-105.442
X147.955Y-124.492
X147.955Y-131.953
X149.225Y-134.493
X154.305Y-134.493
X155.575Y-131.953
X159.385Y-50.673
X159.385Y-69.723
X159.385Y-88.773
X159.385Y-107.823
X160.655Y-48.133
X160.655Y-67.183
X160.655Y-86.233
X160.655Y-105.283
X165.735Y-48.133
X165.735Y-67.183
X165.735Y-86.233
X165.735Y-105.283
X167.005Y-50.673
X167.005Y-69.723
X167.005Y-88.773
X167.005Y-107.823
X168.623Y-133.835
X170.187Y-136.205
X171.163Y-129.436
X173.997Y-129.606
X178.435Y-53.054
X178.435Y-72.104
X178.435Y-91.154
X178.435Y-110.204
X179.705Y-50.514
X179.705Y-69.564
X179.705Y-88.614
X179.705Y-107.664
X184.785Y-50.514
X184.785Y-69.564
X184.785Y-88.614
X184.785Y-107.664
X186.055Y-53.054
X186.055Y-72.104
X186.055Y-91.154
X186.055Y-110.204
X189.865Y-135.082
X191.085Y-148.27
X191.43Y-137.452
X192.405Y-130.683
X193.919Y-148.44
X194.895Y-141.671
X195.24Y-130.853
X196.459Y-144.041
X197.485Y-62.579
X197.485Y-81.661
X197.485Y-100.711
X198.755Y-60.039
X198.755Y-79.121
X198.755Y-98.171
X200.619Y-131.737
X203.454Y-131.907
X203.835Y-60.039
X203.835Y-79.121
X203.835Y-98.171
X204.429Y-125.138
X205.105Y-62.579
X205.105Y-81.661
X205.105Y-100.711
X205.994Y-127.508
X206.381Y-144.636
X207.583Y-157.795
X207.946Y-147.006
X208.921Y-140.237
X210.417Y-157.965
X211.393Y-151.196
X211.756Y-140.407
X212.957Y-153.566
X217.108Y-141.297
X219.942Y-141.467
X220.918Y-134.698
X222.482Y-137.068
T5
X86.995Y-57.975
X86.995Y-77.025
X86.995Y-96.075
X86.995Y-115.125
X86.995Y-134.112
X106.045Y-58.039
X106.045Y-77.025
X106.045Y-96.075
X106.045Y-115.062
X106.045Y-134.112
X125.095Y-53.213
X125.095Y-72.263
X125.095Y-91.313
X125.095Y-110.363
X125.095Y-129.413
X144.145Y-50.832
X144.145Y-69.882
X144.145Y-88.9
X144.145Y-107.982
X144.145Y-127.032
X151.765Y-129.413
X163.195Y-53.213
X163.195Y-72.263
X163.195Y-91.313
X163.195Y-110.363
X174.292Y-134.175
X182.245Y-55.594
X182.245Y-74.644
X182.245Y-93.694
X182.245Y-112.744
X190.79Y-143.7
X195.534Y-135.423
X200.325Y-127.168
X201.295Y-65.119
X201.295Y-84.201
X201.295Y-103.251
X207.288Y-153.225
X212.05Y-144.976
X216.813Y-136.727
T6
X96.52Y-67.564
X96.52Y-124.968
X128.397Y-42.672
X134.62Y-81.788
X135.128Y-117.348
X185.801Y-124.714
X191.245Y-65.644
T0
M30
