G04 #@! TF.GenerationSoftware,KiCad,Pcbnew,(6.0.10)*
G04 #@! TF.CreationDate,2023-03-19T21:25:36+07:00*
G04 #@! TF.ProjectId,ergodash,6572676f-6461-4736-982e-6b696361645f,2.0*
G04 #@! TF.SameCoordinates,Original*
G04 #@! TF.FileFunction,Soldermask,Top*
G04 #@! TF.FilePolarity,Negative*
%FSLAX46Y46*%
G04 Gerber Fmt 4.6, Leading zero omitted, Abs format (unit mm)*
G04 Created by KiCad (PCBNEW (6.0.10)) date 2023-03-19 21:25:36*
%MOMM*%
%LPD*%
G01*
G04 APERTURE LIST*
G04 Aperture macros list*
%AMRoundRect*
0 Rectangle with rounded corners*
0 $1 Rounding radius*
0 $2 $3 $4 $5 $6 $7 $8 $9 X,Y pos of 4 corners*
0 Add a 4 corners polygon primitive as box body*
4,1,4,$2,$3,$4,$5,$6,$7,$8,$9,$2,$3,0*
0 Add four circle primitives for the rounded corners*
1,1,$1+$1,$2,$3*
1,1,$1+$1,$4,$5*
1,1,$1+$1,$6,$7*
1,1,$1+$1,$8,$9*
0 Add four rect primitives between the rounded corners*
20,1,$1+$1,$2,$3,$4,$5,0*
20,1,$1+$1,$4,$5,$6,$7,0*
20,1,$1+$1,$6,$7,$8,$9,0*
20,1,$1+$1,$8,$9,$2,$3,0*%
%AMHorizOval*
0 Thick line with rounded ends*
0 $1 width*
0 $2 $3 position (X,Y) of the first rounded end (center of the circle)*
0 $4 $5 position (X,Y) of the second rounded end (center of the circle)*
0 Add line between two ends*
20,1,$1,$2,$3,$4,$5,0*
0 Add two circle primitives to create the rounded ends*
1,1,$1,$2,$3*
1,1,$1,$4,$5*%
%AMRotRect*
0 Rectangle, with rotation*
0 The origin of the aperture is its center*
0 $1 length*
0 $2 width*
0 $3 Rotation angle, in degrees counterclockwise*
0 Add horizontal line*
21,1,$1,$2,0,0,$3*%
%AMFreePoly0*
4,1,24,2.735355,1.235355,2.750000,1.200000,2.750000,-0.800000,2.748029,-0.804757,2.749028,-0.809806,2.740927,-0.821903,2.735355,-0.835355,2.730600,-0.837325,2.727735,-0.841603,2.127735,-1.241603,2.113450,-1.244429,2.100000,-1.250000,0.300000,-1.250000,0.264645,-1.235355,0.250000,-1.200000,0.250000,-0.750000,-0.350000,-0.750000,-0.350000,0.750000,0.250000,0.750000,0.250000,1.200000,
0.264645,1.235355,0.300000,1.250000,2.700000,1.250000,2.735355,1.235355,2.735355,1.235355,$1*%
%AMFreePoly1*
4,1,17,-0.364645,1.235355,-0.350000,1.200000,-0.350000,0.750000,0.350000,0.750000,0.350000,-0.750000,-0.350000,-0.750000,-0.350000,-1.200000,-0.364645,-1.235355,-0.400000,-1.250000,-2.800000,-1.250000,-2.835355,-1.235355,-2.850000,-1.200000,-2.850000,1.200000,-2.835355,1.235355,-2.800000,1.250000,-0.400000,1.250000,-0.364645,1.235355,-0.364645,1.235355,$1*%
G04 Aperture macros list end*
%ADD10C,0.100000*%
%ADD11RoundRect,0.250000X-0.375000X-0.625000X0.375000X-0.625000X0.375000X0.625000X-0.375000X0.625000X0*%
%ADD12C,5.000000*%
%ADD13C,1.524000*%
%ADD14RotRect,1.800000X1.500000X60.000000*%
%ADD15C,1.700000*%
%ADD16C,1.900000*%
%ADD17C,4.000000*%
%ADD18HorizOval,2.400000X0.578509X0.689440X-0.578509X-0.689440X0*%
%ADD19O,2.300000X3.337000*%
%ADD20HorizOval,2.400000X0.578509X-0.689440X-0.578509X0.689440X0*%
%ADD21R,1.500000X1.800000*%
%ADD22R,1.800000X1.500000*%
%ADD23RotRect,1.800000X1.500000X150.000000*%
%ADD24R,1.143000X0.635000*%
%ADD25C,1.397000*%
%ADD26C,3.000000*%
%ADD27FreePoly0,0.000000*%
%ADD28FreePoly1,0.000000*%
%ADD29FreePoly0,240.000000*%
%ADD30FreePoly1,240.000000*%
%ADD31FreePoly0,180.000000*%
%ADD32FreePoly1,180.000000*%
%ADD33FreePoly0,60.000000*%
%ADD34FreePoly1,60.000000*%
%ADD35C,1.200000*%
%ADD36O,1.700000X2.500000*%
%ADD37R,0.635000X1.143000*%
%ADD38C,2.000000*%
%ADD39R,1.752600X1.752600*%
%ADD40C,1.752600*%
%ADD41R,2.000000X3.200000*%
G04 APERTURE END LIST*
G36*
X80359000Y-63023000D02*
G01*
X79609000Y-63023000D01*
X79609000Y-61923000D01*
X80009000Y-61523000D01*
X80359000Y-61523000D01*
X80359000Y-63023000D01*
G37*
D10*
X80359000Y-63023000D02*
X79609000Y-63023000D01*
X79609000Y-61923000D01*
X80009000Y-61523000D01*
X80359000Y-61523000D01*
X80359000Y-63023000D01*
G36*
X80359000Y-68023000D02*
G01*
X79609000Y-68023000D01*
X79609000Y-66523000D01*
X80359000Y-66523000D01*
X80359000Y-68023000D01*
G37*
X80359000Y-68023000D02*
X79609000Y-68023000D01*
X79609000Y-66523000D01*
X80359000Y-66523000D01*
X80359000Y-68023000D01*
G36*
X82109000Y-63023000D02*
G01*
X81359000Y-63023000D01*
X81359000Y-61523000D01*
X82109000Y-61523000D01*
X82109000Y-63023000D01*
G37*
X82109000Y-63023000D02*
X81359000Y-63023000D01*
X81359000Y-61523000D01*
X82109000Y-61523000D01*
X82109000Y-63023000D01*
G36*
X82109000Y-68023000D02*
G01*
X81359000Y-68023000D01*
X81359000Y-66523000D01*
X82109000Y-66523000D01*
X82109000Y-68023000D01*
G37*
X82109000Y-68023000D02*
X81359000Y-68023000D01*
X81359000Y-66523000D01*
X82109000Y-66523000D01*
X82109000Y-68023000D01*
G36*
X82109000Y-101504000D02*
G01*
X81359000Y-101504000D01*
X81359000Y-100004000D01*
X82109000Y-100004000D01*
X82109000Y-101504000D01*
G37*
X82109000Y-101504000D02*
X81359000Y-101504000D01*
X81359000Y-100004000D01*
X82109000Y-100004000D01*
X82109000Y-101504000D01*
G36*
X80359000Y-106504000D02*
G01*
X79609000Y-106504000D01*
X79609000Y-105004000D01*
X80359000Y-105004000D01*
X80359000Y-106504000D01*
G37*
X80359000Y-106504000D02*
X79609000Y-106504000D01*
X79609000Y-105004000D01*
X80359000Y-105004000D01*
X80359000Y-106504000D01*
G36*
X80359000Y-101504000D02*
G01*
X79609000Y-101504000D01*
X79609000Y-100404000D01*
X80009000Y-100004000D01*
X80359000Y-100004000D01*
X80359000Y-101504000D01*
G37*
X80359000Y-101504000D02*
X79609000Y-101504000D01*
X79609000Y-100404000D01*
X80009000Y-100004000D01*
X80359000Y-100004000D01*
X80359000Y-101504000D01*
G36*
X82109000Y-106504000D02*
G01*
X81359000Y-106504000D01*
X81359000Y-105004000D01*
X82109000Y-105004000D01*
X82109000Y-106504000D01*
G37*
X82109000Y-106504000D02*
X81359000Y-106504000D01*
X81359000Y-105004000D01*
X82109000Y-105004000D01*
X82109000Y-106504000D01*
G36*
X159517600Y-140103600D02*
G01*
X158017600Y-140103600D01*
X158017600Y-139353600D01*
X159517600Y-139353600D01*
X159517600Y-140103600D01*
G37*
X159517600Y-140103600D02*
X158017600Y-140103600D01*
X158017600Y-139353600D01*
X159517600Y-139353600D01*
X159517600Y-140103600D01*
G36*
X159517600Y-141853600D02*
G01*
X158417600Y-141853600D01*
X158017600Y-141453600D01*
X158017600Y-141103600D01*
X159517600Y-141103600D01*
X159517600Y-141853600D01*
G37*
X159517600Y-141853600D02*
X158417600Y-141853600D01*
X158017600Y-141453600D01*
X158017600Y-141103600D01*
X159517600Y-141103600D01*
X159517600Y-141853600D01*
G36*
X164517600Y-141853600D02*
G01*
X163017600Y-141853600D01*
X163017600Y-141103600D01*
X164517600Y-141103600D01*
X164517600Y-141853600D01*
G37*
X164517600Y-141853600D02*
X163017600Y-141853600D01*
X163017600Y-141103600D01*
X164517600Y-141103600D01*
X164517600Y-141853600D01*
G36*
X164517600Y-140103600D02*
G01*
X163017600Y-140103600D01*
X163017600Y-139353600D01*
X164517600Y-139353600D01*
X164517600Y-140103600D01*
G37*
X164517600Y-140103600D02*
X163017600Y-140103600D01*
X163017600Y-139353600D01*
X164517600Y-139353600D01*
X164517600Y-140103600D01*
G36*
X82363000Y-87321000D02*
G01*
X81613000Y-87321000D01*
X81613000Y-85821000D01*
X82363000Y-85821000D01*
X82363000Y-87321000D01*
G37*
X82363000Y-87321000D02*
X81613000Y-87321000D01*
X81613000Y-85821000D01*
X82363000Y-85821000D01*
X82363000Y-87321000D01*
G36*
X80613000Y-87321000D02*
G01*
X79863000Y-87321000D01*
X79863000Y-85821000D01*
X80613000Y-85821000D01*
X80613000Y-87321000D01*
G37*
X80613000Y-87321000D02*
X79863000Y-87321000D01*
X79863000Y-85821000D01*
X80613000Y-85821000D01*
X80613000Y-87321000D01*
G36*
X80613000Y-82321000D02*
G01*
X79863000Y-82321000D01*
X79863000Y-81221000D01*
X80263000Y-80821000D01*
X80613000Y-80821000D01*
X80613000Y-82321000D01*
G37*
X80613000Y-82321000D02*
X79863000Y-82321000D01*
X79863000Y-81221000D01*
X80263000Y-80821000D01*
X80613000Y-80821000D01*
X80613000Y-82321000D01*
G36*
X82363000Y-82321000D02*
G01*
X81613000Y-82321000D01*
X81613000Y-80821000D01*
X82363000Y-80821000D01*
X82363000Y-82321000D01*
G37*
X82363000Y-82321000D02*
X81613000Y-82321000D01*
X81613000Y-80821000D01*
X82363000Y-80821000D01*
X82363000Y-82321000D01*
G36*
X82249000Y-119916000D02*
G01*
X81499000Y-119916000D01*
X81499000Y-118416000D01*
X82249000Y-118416000D01*
X82249000Y-119916000D01*
G37*
X82249000Y-119916000D02*
X81499000Y-119916000D01*
X81499000Y-118416000D01*
X82249000Y-118416000D01*
X82249000Y-119916000D01*
G36*
X82249000Y-124916000D02*
G01*
X81499000Y-124916000D01*
X81499000Y-123416000D01*
X82249000Y-123416000D01*
X82249000Y-124916000D01*
G37*
X82249000Y-124916000D02*
X81499000Y-124916000D01*
X81499000Y-123416000D01*
X82249000Y-123416000D01*
X82249000Y-124916000D01*
G36*
X80499000Y-124916000D02*
G01*
X79749000Y-124916000D01*
X79749000Y-123416000D01*
X80499000Y-123416000D01*
X80499000Y-124916000D01*
G37*
X80499000Y-124916000D02*
X79749000Y-124916000D01*
X79749000Y-123416000D01*
X80499000Y-123416000D01*
X80499000Y-124916000D01*
G36*
X80499000Y-119916000D02*
G01*
X79749000Y-119916000D01*
X79749000Y-118816000D01*
X80149000Y-118416000D01*
X80499000Y-118416000D01*
X80499000Y-119916000D01*
G37*
X80499000Y-119916000D02*
X79749000Y-119916000D01*
X79749000Y-118816000D01*
X80149000Y-118416000D01*
X80499000Y-118416000D01*
X80499000Y-119916000D01*
G36*
X116741000Y-141739000D02*
G01*
X115641000Y-141739000D01*
X115241000Y-141339000D01*
X115241000Y-140989000D01*
X116741000Y-140989000D01*
X116741000Y-141739000D01*
G37*
X116741000Y-141739000D02*
X115641000Y-141739000D01*
X115241000Y-141339000D01*
X115241000Y-140989000D01*
X116741000Y-140989000D01*
X116741000Y-141739000D01*
G36*
X121741000Y-139989000D02*
G01*
X120241000Y-139989000D01*
X120241000Y-139239000D01*
X121741000Y-139239000D01*
X121741000Y-139989000D01*
G37*
X121741000Y-139989000D02*
X120241000Y-139989000D01*
X120241000Y-139239000D01*
X121741000Y-139239000D01*
X121741000Y-139989000D01*
G36*
X121741000Y-141739000D02*
G01*
X120241000Y-141739000D01*
X120241000Y-140989000D01*
X121741000Y-140989000D01*
X121741000Y-141739000D01*
G37*
X121741000Y-141739000D02*
X120241000Y-141739000D01*
X120241000Y-140989000D01*
X121741000Y-140989000D01*
X121741000Y-141739000D01*
G36*
X116741000Y-139989000D02*
G01*
X115241000Y-139989000D01*
X115241000Y-139239000D01*
X116741000Y-139239000D01*
X116741000Y-139989000D01*
G37*
X116741000Y-139989000D02*
X115241000Y-139989000D01*
X115241000Y-139239000D01*
X116741000Y-139239000D01*
X116741000Y-139989000D01*
G36*
X94643000Y-139935000D02*
G01*
X93143000Y-139935000D01*
X93143000Y-139185000D01*
X94643000Y-139185000D01*
X94643000Y-139935000D01*
G37*
X94643000Y-139935000D02*
X93143000Y-139935000D01*
X93143000Y-139185000D01*
X94643000Y-139185000D01*
X94643000Y-139935000D01*
G36*
X99643000Y-141685000D02*
G01*
X98143000Y-141685000D01*
X98143000Y-140935000D01*
X99643000Y-140935000D01*
X99643000Y-141685000D01*
G37*
X99643000Y-141685000D02*
X98143000Y-141685000D01*
X98143000Y-140935000D01*
X99643000Y-140935000D01*
X99643000Y-141685000D01*
G36*
X94643000Y-141685000D02*
G01*
X93543000Y-141685000D01*
X93143000Y-141260000D01*
X93143000Y-140935000D01*
X94643000Y-140935000D01*
X94643000Y-141685000D01*
G37*
X94643000Y-141685000D02*
X93543000Y-141685000D01*
X93143000Y-141260000D01*
X93143000Y-140935000D01*
X94643000Y-140935000D01*
X94643000Y-141685000D01*
G36*
X99643000Y-139935000D02*
G01*
X98143000Y-139935000D01*
X98143000Y-139185000D01*
X99643000Y-139185000D01*
X99643000Y-139935000D01*
G37*
X99643000Y-139935000D02*
X98143000Y-139935000D01*
X98143000Y-139185000D01*
X99643000Y-139185000D01*
X99643000Y-139935000D01*
G36*
X184239385Y-133588217D02*
G01*
X183489385Y-134887256D01*
X182839866Y-134512256D01*
X183389866Y-133559628D01*
X183957927Y-133425717D01*
X184239385Y-133588217D01*
G37*
X184239385Y-133588217D02*
X183489385Y-134887256D01*
X182839866Y-134512256D01*
X183389866Y-133559628D01*
X183957927Y-133425717D01*
X184239385Y-133588217D01*
G36*
X183254929Y-138793344D02*
G01*
X182504929Y-140092383D01*
X181855410Y-139717383D01*
X182605410Y-138418344D01*
X183254929Y-138793344D01*
G37*
X183254929Y-138793344D02*
X182504929Y-140092383D01*
X181855410Y-139717383D01*
X182605410Y-138418344D01*
X183254929Y-138793344D01*
G36*
X181739385Y-137918344D02*
G01*
X180989385Y-139217383D01*
X180339866Y-138842383D01*
X181089866Y-137543344D01*
X181739385Y-137918344D01*
G37*
X181739385Y-137918344D02*
X180989385Y-139217383D01*
X180339866Y-138842383D01*
X181089866Y-137543344D01*
X181739385Y-137918344D01*
G36*
X185754929Y-134463217D02*
G01*
X185004929Y-135762256D01*
X184355410Y-135387256D01*
X185105410Y-134088217D01*
X185754929Y-134463217D01*
G37*
X185754929Y-134463217D02*
X185004929Y-135762256D01*
X184355410Y-135387256D01*
X185105410Y-134088217D01*
X185754929Y-134463217D01*
G36*
X225761600Y-92404000D02*
G01*
X225011600Y-92404000D01*
X225011600Y-90904000D01*
X225761600Y-90904000D01*
X225761600Y-92404000D01*
G37*
X225761600Y-92404000D02*
X225011600Y-92404000D01*
X225011600Y-90904000D01*
X225761600Y-90904000D01*
X225761600Y-92404000D01*
G36*
X227511600Y-87404000D02*
G01*
X226761600Y-87404000D01*
X226761600Y-85904000D01*
X227511600Y-85904000D01*
X227511600Y-87404000D01*
G37*
X227511600Y-87404000D02*
X226761600Y-87404000D01*
X226761600Y-85904000D01*
X227511600Y-85904000D01*
X227511600Y-87404000D01*
G36*
X225761600Y-87404000D02*
G01*
X225011600Y-87404000D01*
X225011600Y-85904000D01*
X225761600Y-85904000D01*
X225761600Y-87404000D01*
G37*
X225761600Y-87404000D02*
X225011600Y-87404000D01*
X225011600Y-85904000D01*
X225761600Y-85904000D01*
X225761600Y-87404000D01*
G36*
X227511600Y-92004000D02*
G01*
X227086600Y-92404000D01*
X226761600Y-92404000D01*
X226761600Y-90904000D01*
X227511600Y-90904000D01*
X227511600Y-92004000D01*
G37*
X227511600Y-92004000D02*
X227086600Y-92404000D01*
X226761600Y-92404000D01*
X226761600Y-90904000D01*
X227511600Y-90904000D01*
X227511600Y-92004000D01*
G36*
X144728000Y-141685000D02*
G01*
X143228000Y-141685000D01*
X143228000Y-140935000D01*
X144728000Y-140935000D01*
X144728000Y-141685000D01*
G37*
X144728000Y-141685000D02*
X143228000Y-141685000D01*
X143228000Y-140935000D01*
X144728000Y-140935000D01*
X144728000Y-141685000D01*
G36*
X139728000Y-139935000D02*
G01*
X138228000Y-139935000D01*
X138228000Y-139185000D01*
X139728000Y-139185000D01*
X139728000Y-139935000D01*
G37*
X139728000Y-139935000D02*
X138228000Y-139935000D01*
X138228000Y-139185000D01*
X139728000Y-139185000D01*
X139728000Y-139935000D01*
G36*
X139728000Y-141685000D02*
G01*
X138628000Y-141685000D01*
X138228000Y-141260000D01*
X138228000Y-140935000D01*
X139728000Y-140935000D01*
X139728000Y-141685000D01*
G37*
X139728000Y-141685000D02*
X138628000Y-141685000D01*
X138228000Y-141260000D01*
X138228000Y-140935000D01*
X139728000Y-140935000D01*
X139728000Y-141685000D01*
G36*
X144728000Y-139935000D02*
G01*
X143228000Y-139935000D01*
X143228000Y-139185000D01*
X144728000Y-139185000D01*
X144728000Y-139935000D01*
G37*
X144728000Y-139935000D02*
X143228000Y-139935000D01*
X143228000Y-139185000D01*
X144728000Y-139185000D01*
X144728000Y-139935000D01*
G36*
X223635000Y-117032000D02*
G01*
X222135000Y-117032000D01*
X222135000Y-116282000D01*
X223635000Y-116282000D01*
X223635000Y-117032000D01*
G37*
X223635000Y-117032000D02*
X222135000Y-117032000D01*
X222135000Y-116282000D01*
X223635000Y-116282000D01*
X223635000Y-117032000D01*
G36*
X223635000Y-115282000D02*
G01*
X222135000Y-115282000D01*
X222135000Y-114532000D01*
X223635000Y-114532000D01*
X223635000Y-115282000D01*
G37*
X223635000Y-115282000D02*
X222135000Y-115282000D01*
X222135000Y-114532000D01*
X223635000Y-114532000D01*
X223635000Y-115282000D01*
G36*
X218635000Y-117032000D02*
G01*
X217535000Y-117032000D01*
X217135000Y-116607000D01*
X217135000Y-116282000D01*
X218635000Y-116282000D01*
X218635000Y-117032000D01*
G37*
X218635000Y-117032000D02*
X217535000Y-117032000D01*
X217135000Y-116607000D01*
X217135000Y-116282000D01*
X218635000Y-116282000D01*
X218635000Y-117032000D01*
G36*
X218635000Y-115282000D02*
G01*
X217135000Y-115282000D01*
X217135000Y-114532000D01*
X218635000Y-114532000D01*
X218635000Y-115282000D01*
G37*
X218635000Y-115282000D02*
X217135000Y-115282000D01*
X217135000Y-114532000D01*
X218635000Y-114532000D01*
X218635000Y-115282000D01*
G36*
X218772800Y-67850400D02*
G01*
X217272800Y-67850400D01*
X217272800Y-67100400D01*
X218772800Y-67100400D01*
X218772800Y-67850400D01*
G37*
X218772800Y-67850400D02*
X217272800Y-67850400D01*
X217272800Y-67100400D01*
X218772800Y-67100400D01*
X218772800Y-67850400D01*
G36*
X223772800Y-65775400D02*
G01*
X223772800Y-66100400D01*
X222272800Y-66100400D01*
X222272800Y-65350400D01*
X223372800Y-65350400D01*
X223772800Y-65775400D01*
G37*
X223772800Y-65775400D02*
X223772800Y-66100400D01*
X222272800Y-66100400D01*
X222272800Y-65350400D01*
X223372800Y-65350400D01*
X223772800Y-65775400D01*
G36*
X218772800Y-66100400D02*
G01*
X217272800Y-66100400D01*
X217272800Y-65350400D01*
X218772800Y-65350400D01*
X218772800Y-66100400D01*
G37*
X218772800Y-66100400D02*
X217272800Y-66100400D01*
X217272800Y-65350400D01*
X218772800Y-65350400D01*
X218772800Y-66100400D01*
G36*
X223772800Y-67850400D02*
G01*
X222272800Y-67850400D01*
X222272800Y-67100400D01*
X223772800Y-67100400D01*
X223772800Y-67850400D01*
G37*
X223772800Y-67850400D02*
X222272800Y-67850400D01*
X222272800Y-67100400D01*
X223772800Y-67100400D01*
X223772800Y-67850400D01*
D11*
X161033000Y-44958000D03*
X163833000Y-44958000D03*
D12*
X134620000Y-81788000D03*
X191245000Y-65644250D03*
X185801000Y-124714000D03*
X96520000Y-67564000D03*
X96520000Y-124968000D03*
D13*
X93639000Y-48133000D03*
X96139000Y-48133000D03*
X98639000Y-48133000D03*
X174411000Y-45720000D03*
X176911000Y-45720000D03*
X179411000Y-45720000D03*
D12*
X135128000Y-117348000D03*
X128397000Y-42672000D03*
D14*
X201461000Y-146379243D03*
X203161000Y-143434757D03*
D15*
X139065000Y-50831750D03*
X149225000Y-50831750D03*
D16*
X149645000Y-50831750D03*
D17*
X144145000Y-50831750D03*
D16*
X138645000Y-50831750D03*
D18*
X140784951Y-47755519D03*
D19*
X141625000Y-46331750D03*
D20*
X147505049Y-47755519D03*
D19*
X146665000Y-46331750D03*
D16*
X149645000Y-69881750D03*
D17*
X144145000Y-69881750D03*
D16*
X138645000Y-69881750D03*
D15*
X149225000Y-69881750D03*
X139065000Y-69881750D03*
D19*
X141625000Y-65381750D03*
D18*
X140784951Y-66805519D03*
D19*
X146665000Y-65381750D03*
D20*
X147505049Y-66805519D03*
D21*
X95250000Y-62914000D03*
X95250000Y-59514000D03*
X97663000Y-83869000D03*
X97663000Y-80469000D03*
X97663000Y-102792000D03*
X97663000Y-99392000D03*
X91846400Y-122654800D03*
X91846400Y-119254800D03*
X113919000Y-64692000D03*
X113919000Y-61292000D03*
X115570000Y-81075000D03*
X115570000Y-77675000D03*
X114427000Y-102030000D03*
X114427000Y-98630000D03*
X115316000Y-121715000D03*
X115316000Y-118315000D03*
X116205000Y-64692000D03*
X116205000Y-61292000D03*
X117856000Y-81202000D03*
X117856000Y-77802000D03*
X116713000Y-102030000D03*
X116713000Y-98630000D03*
X129540000Y-117905000D03*
X129540000Y-114505000D03*
D22*
X143412000Y-55829200D03*
X146812000Y-55829200D03*
D21*
X152654000Y-78916000D03*
X152654000Y-75516000D03*
X152095200Y-114628400D03*
X152095200Y-111228400D03*
X173609000Y-62787000D03*
X173609000Y-59387000D03*
X154228800Y-96899200D03*
X154228800Y-93499200D03*
X171577000Y-119556000D03*
X171577000Y-116156000D03*
X176276000Y-62710800D03*
X176276000Y-59310800D03*
X187756800Y-81049600D03*
X187756800Y-77649600D03*
X189941200Y-99693200D03*
X189941200Y-96293200D03*
X173863000Y-119556000D03*
X173863000Y-116156000D03*
X207873600Y-71804000D03*
X207873600Y-68404000D03*
X189941200Y-81049600D03*
X189941200Y-77649600D03*
X208534000Y-110107200D03*
X208534000Y-106707200D03*
X190627000Y-126541000D03*
X190627000Y-123141000D03*
X89662000Y-122654800D03*
X89662000Y-119254800D03*
D22*
X120572000Y-134747000D03*
X117172000Y-134747000D03*
X120572000Y-132588000D03*
X117172000Y-132588000D03*
D23*
X184702273Y-130824000D03*
X181757787Y-129124000D03*
D14*
X182907200Y-144778086D03*
X184607200Y-141833600D03*
D21*
X133477000Y-134140000D03*
X133477000Y-130740000D03*
X152095200Y-96899200D03*
X152095200Y-93499200D03*
X171297600Y-78966800D03*
X171297600Y-75566800D03*
D24*
X224028000Y-99067620D03*
X224028000Y-100068380D03*
D25*
X216408000Y-103378000D03*
X218948000Y-103378000D03*
X221488000Y-103378000D03*
X224028000Y-103378000D03*
D15*
X130175000Y-110363000D03*
D26*
X128905000Y-107823000D03*
X121285000Y-107822999D03*
X127635000Y-105283000D03*
D17*
X125095000Y-110363000D03*
D15*
X120015000Y-110363000D03*
D26*
X122555000Y-105283000D03*
D27*
X117895000Y-105263000D03*
D28*
X133595000Y-107863000D03*
D15*
X188250000Y-148099709D03*
D26*
X196459409Y-144040595D03*
X191084705Y-148269857D03*
X194894705Y-141670744D03*
D15*
X193330000Y-139300891D03*
D17*
X190790000Y-143700300D03*
D26*
X193919409Y-148440005D03*
D29*
X198806730Y-140014917D03*
D30*
X188705064Y-152311516D03*
D26*
X147955000Y-131953000D03*
X149225000Y-134493000D03*
D15*
X146685000Y-129413000D03*
D26*
X154305000Y-134493000D03*
X155575000Y-131953001D03*
D17*
X151765000Y-129413000D03*
D15*
X156845000Y-129413000D03*
D31*
X158965000Y-134513000D03*
D32*
X143265000Y-131913000D03*
D15*
X100965000Y-134112000D03*
D26*
X103505000Y-129032000D03*
X102235000Y-131571999D03*
D15*
X111125000Y-134112000D03*
D26*
X109855000Y-131572000D03*
D17*
X106045000Y-134112000D03*
D26*
X108585000Y-129032000D03*
D27*
X98845000Y-129012000D03*
D28*
X114545000Y-131612000D03*
D26*
X208921091Y-140236595D03*
D17*
X212050500Y-144976300D03*
D26*
X211755795Y-140406743D03*
X206381091Y-144636005D03*
X207945795Y-147005856D03*
D15*
X214590500Y-140576891D03*
X209510500Y-149375709D03*
D33*
X204033770Y-148661683D03*
D34*
X214135436Y-136365084D03*
D26*
X128905000Y-50673000D03*
X127635000Y-48133000D03*
D15*
X130175000Y-53213000D03*
X120015000Y-53213000D03*
D17*
X125095000Y-53213000D03*
D26*
X121285000Y-50672999D03*
X122555000Y-48133000D03*
D27*
X117895000Y-48113000D03*
D28*
X133595000Y-50713000D03*
D26*
X159385000Y-88772999D03*
X165735000Y-86233000D03*
X160655000Y-86233000D03*
X167005000Y-88773000D03*
D15*
X158115000Y-91313000D03*
X168275000Y-91313000D03*
D17*
X163195000Y-91313000D03*
D27*
X155995000Y-86213000D03*
D28*
X171695000Y-88813000D03*
D15*
X81915000Y-96075500D03*
D26*
X83185000Y-93535499D03*
X89535000Y-90995500D03*
D17*
X86995000Y-96075500D03*
D26*
X90805000Y-93535500D03*
D15*
X92075000Y-96075500D03*
D26*
X84455000Y-90995500D03*
D27*
X79795000Y-90975500D03*
D28*
X95495000Y-93575500D03*
D15*
X130175000Y-91313000D03*
D26*
X122555000Y-86233000D03*
D17*
X125095000Y-91313000D03*
D26*
X127635000Y-86233000D03*
D15*
X120015000Y-91313000D03*
D26*
X128905000Y-88773000D03*
X121285000Y-88772999D03*
D27*
X117895000Y-86213000D03*
D28*
X133595000Y-88813000D03*
D26*
X89535000Y-129032001D03*
X83185000Y-131572000D03*
X90805000Y-131572001D03*
D17*
X86995000Y-134112001D03*
D26*
X84455000Y-129032001D03*
D15*
X81915000Y-134112001D03*
X92075000Y-134112001D03*
D27*
X79795000Y-129012001D03*
D28*
X95495000Y-131612001D03*
D25*
X155752800Y-62788800D03*
D35*
X195992000Y-53215000D03*
X195992000Y-46215000D03*
X194242000Y-46215000D03*
X194242000Y-53215000D03*
D36*
X192142000Y-55015000D03*
X198092000Y-55015000D03*
X192142000Y-51015000D03*
X198092000Y-51015000D03*
X198092000Y-48015000D03*
X192142000Y-48015000D03*
X196342000Y-56515000D03*
X193892000Y-56515000D03*
D17*
X182245000Y-55594250D03*
D26*
X184785000Y-50514250D03*
D15*
X177165000Y-55594250D03*
D26*
X178435000Y-53054249D03*
X179705000Y-50514250D03*
X186055000Y-53054250D03*
D15*
X187325000Y-55594250D03*
D27*
X175045000Y-50494250D03*
D28*
X190745000Y-53094250D03*
D26*
X165735000Y-105283000D03*
X167005000Y-107823000D03*
D17*
X163195000Y-110363000D03*
D26*
X159385000Y-107822999D03*
X160655000Y-105283000D03*
D15*
X168275000Y-110363000D03*
X158115000Y-110363000D03*
D27*
X155995000Y-105263000D03*
D28*
X171695000Y-107863000D03*
D11*
X161033000Y-42672000D03*
X163833000Y-42672000D03*
D24*
X221488000Y-99060000D03*
X221488000Y-100060760D03*
D26*
X168622591Y-133834955D03*
D15*
X171752000Y-138574659D03*
D26*
X173997295Y-129605693D03*
D15*
X176832000Y-129775841D03*
D26*
X170187295Y-136204806D03*
D17*
X174292000Y-134175250D03*
D26*
X171162591Y-129435545D03*
D33*
X166275270Y-137860633D03*
D34*
X176376936Y-125564034D03*
D26*
X198755000Y-60039250D03*
X197485000Y-62579249D03*
D15*
X196215000Y-65119250D03*
D26*
X203835000Y-60039250D03*
X205105000Y-62579250D03*
D17*
X201295000Y-65119250D03*
D15*
X206375000Y-65119250D03*
D27*
X194095000Y-60019250D03*
D28*
X209795000Y-62619250D03*
D26*
X203454000Y-131907410D03*
D17*
X200324591Y-127167705D03*
D15*
X197784591Y-131567114D03*
X202864591Y-122768296D03*
D26*
X204429296Y-125138149D03*
X205994000Y-127508000D03*
X200619296Y-131737262D03*
D29*
X208341321Y-123482322D03*
D30*
X198239655Y-135778921D03*
D24*
X216408000Y-99067620D03*
X216408000Y-100068380D03*
D26*
X109855000Y-112522000D03*
X108585000Y-109982000D03*
D15*
X111125000Y-115062000D03*
X100965000Y-115062000D03*
D26*
X102235000Y-112521999D03*
D17*
X106045000Y-115062000D03*
D26*
X103505000Y-109982000D03*
D27*
X98845000Y-109962000D03*
D28*
X114545000Y-112562000D03*
D26*
X102235000Y-74485499D03*
X103505000Y-71945500D03*
D15*
X100965000Y-77025500D03*
D26*
X108585000Y-71945500D03*
X109855000Y-74485500D03*
D17*
X106045000Y-77025500D03*
D15*
X111125000Y-77025500D03*
D27*
X98845000Y-71925500D03*
D28*
X114545000Y-74525500D03*
D26*
X207582705Y-157794907D03*
D15*
X209828000Y-148825941D03*
D26*
X210417409Y-157965055D03*
X212957409Y-153565645D03*
D15*
X204748000Y-157624759D03*
D17*
X207288000Y-153225350D03*
D26*
X211392705Y-151195794D03*
D29*
X215304730Y-149539967D03*
D30*
X205203064Y-161836566D03*
D15*
X177165000Y-74644250D03*
D26*
X184785000Y-69564250D03*
X179705000Y-69564250D03*
X178435000Y-72104249D03*
D17*
X182245000Y-74644250D03*
D26*
X186055000Y-72104250D03*
D15*
X187325000Y-74644250D03*
D27*
X175045000Y-69544250D03*
D28*
X190745000Y-72144250D03*
D17*
X144145000Y-127031750D03*
D26*
X147955000Y-124491750D03*
X146685000Y-121951750D03*
D15*
X139065000Y-127031750D03*
D26*
X140335000Y-124491749D03*
D15*
X149225000Y-127031750D03*
D26*
X141605000Y-121951750D03*
D27*
X136945000Y-121931750D03*
D28*
X152645000Y-124531750D03*
D26*
X127635000Y-67183000D03*
D15*
X130175000Y-72263000D03*
D26*
X128905000Y-69723000D03*
D17*
X125095000Y-72263000D03*
D26*
X121285000Y-69722999D03*
X122555000Y-67183000D03*
D15*
X120015000Y-72263000D03*
D27*
X117895000Y-67163000D03*
D28*
X133595000Y-69763000D03*
D15*
X92075000Y-77025500D03*
D26*
X83185000Y-74485499D03*
D17*
X86995000Y-77025500D03*
D26*
X89535000Y-71945500D03*
X90805000Y-74485500D03*
X84455000Y-71945500D03*
D15*
X81915000Y-77025500D03*
D27*
X79795000Y-71925500D03*
D28*
X95495000Y-74525500D03*
D26*
X205105000Y-100711001D03*
X203835000Y-98171001D03*
X197485000Y-100711000D03*
D17*
X201295000Y-103251001D03*
D26*
X198755000Y-98171001D03*
D15*
X206375000Y-103251001D03*
X196215000Y-103251001D03*
D27*
X194095000Y-98151001D03*
D28*
X209795000Y-100751001D03*
D26*
X128905000Y-126873000D03*
D17*
X125095000Y-129413000D03*
D15*
X120015000Y-129413000D03*
X130175000Y-129413000D03*
D26*
X127635000Y-124333000D03*
X122555000Y-124333000D03*
X121285000Y-126872999D03*
D27*
X117895000Y-124313000D03*
D28*
X133595000Y-126913000D03*
D24*
X218948000Y-99067620D03*
X218948000Y-100068380D03*
D26*
X167005000Y-50673000D03*
D17*
X163195000Y-53213000D03*
D26*
X159385000Y-50672999D03*
D15*
X158115000Y-53213000D03*
D26*
X160655000Y-48133000D03*
X165735000Y-48133000D03*
D15*
X168275000Y-53213000D03*
D27*
X155995000Y-48113000D03*
D28*
X171695000Y-50713000D03*
D26*
X84455000Y-52895500D03*
X83185000Y-55435499D03*
D17*
X86995000Y-57975500D03*
D15*
X92075000Y-57975500D03*
X81915000Y-57975500D03*
D26*
X89535000Y-52895500D03*
X90805000Y-55435500D03*
D27*
X79795000Y-52875500D03*
D28*
X95495000Y-55475500D03*
D37*
X171950380Y-43307000D03*
X170949620Y-43307000D03*
D26*
X167005000Y-69723000D03*
D15*
X158115000Y-72263000D03*
D26*
X160655000Y-67183000D03*
D17*
X163195000Y-72263000D03*
D26*
X159385000Y-69722999D03*
D15*
X168275000Y-72263000D03*
D26*
X165735000Y-67183000D03*
D27*
X155995000Y-67163000D03*
D28*
X171695000Y-69763000D03*
D15*
X187325000Y-112744250D03*
D17*
X182245000Y-112744250D03*
D26*
X178435000Y-110204249D03*
D15*
X177165000Y-112744250D03*
D26*
X184785000Y-107664250D03*
X186055000Y-110204250D03*
X179705000Y-107664250D03*
D27*
X175045000Y-107644250D03*
D28*
X190745000Y-110244250D03*
D26*
X197485000Y-81661000D03*
X205105000Y-81661001D03*
D15*
X196215000Y-84201001D03*
D26*
X203835000Y-79121001D03*
X198755000Y-79121001D03*
D17*
X201295000Y-84201001D03*
D15*
X206375000Y-84201001D03*
D27*
X194095000Y-79101001D03*
D28*
X209795000Y-81701001D03*
D38*
X159437000Y-39497000D03*
X165937000Y-39497000D03*
D15*
X214273000Y-141126759D03*
D17*
X216813000Y-136727350D03*
D26*
X220917705Y-134697794D03*
D15*
X219353000Y-132327941D03*
D26*
X222482409Y-137067645D03*
X219942409Y-141467055D03*
X217107705Y-141296907D03*
D29*
X224829730Y-133041967D03*
D30*
X214728064Y-145338566D03*
D26*
X179705000Y-88614250D03*
X178435000Y-91154249D03*
X186055000Y-91154250D03*
D15*
X177165000Y-93694250D03*
D17*
X182245000Y-93694250D03*
D15*
X187325000Y-93694250D03*
D26*
X184785000Y-88614250D03*
D27*
X175045000Y-88594250D03*
D28*
X190745000Y-91194250D03*
D15*
X192994409Y-139822114D03*
D17*
X195534409Y-135422705D03*
D26*
X195239704Y-130853148D03*
X191429704Y-137452261D03*
D15*
X198074409Y-131023296D03*
D26*
X189865000Y-135082410D03*
X192405000Y-130683000D03*
D33*
X187517679Y-139108088D03*
D34*
X197619345Y-126811489D03*
D15*
X139065000Y-107981750D03*
D26*
X146685000Y-102901750D03*
D17*
X144145000Y-107981750D03*
D26*
X147955000Y-105441750D03*
X140335000Y-105441749D03*
D15*
X149225000Y-107981750D03*
D26*
X141605000Y-102901750D03*
D27*
X136945000Y-102881750D03*
D28*
X152645000Y-105481750D03*
D37*
X170949620Y-41021000D03*
X171950380Y-41021000D03*
X170949620Y-39116000D03*
X171950380Y-39116000D03*
D39*
X136169400Y-39370000D03*
D40*
X136626600Y-41910000D03*
X136169400Y-44450000D03*
X136626600Y-46990000D03*
X136169400Y-49530000D03*
X136626600Y-52070000D03*
X136169400Y-54610000D03*
X136626600Y-57150000D03*
X136169400Y-59690000D03*
X136626600Y-62230000D03*
X136169400Y-64770000D03*
X136626600Y-67310000D03*
X151409400Y-67310000D03*
X151866600Y-64770000D03*
X151409400Y-62230000D03*
X151866600Y-59690000D03*
X151409400Y-57150000D03*
X151866600Y-54610000D03*
X151409400Y-52070000D03*
X151866600Y-49530000D03*
X151409400Y-46990000D03*
X151866600Y-44450000D03*
X151409400Y-41910000D03*
X151866600Y-39370000D03*
D17*
X86995000Y-115125500D03*
D26*
X90805000Y-112585500D03*
X83185000Y-112585499D03*
X84455000Y-110045500D03*
D15*
X81915000Y-115125500D03*
X92075000Y-115125500D03*
D26*
X89535000Y-110045500D03*
D27*
X79795000Y-110025500D03*
D28*
X95495000Y-112625500D03*
D26*
X140335000Y-86359999D03*
X141605000Y-83820000D03*
D15*
X139065000Y-88900000D03*
D26*
X146685000Y-83820000D03*
D15*
X149225000Y-88900000D03*
D26*
X147955000Y-86360000D03*
D17*
X144145000Y-88900000D03*
D27*
X136945000Y-83800000D03*
D28*
X152645000Y-86400000D03*
D41*
X225985000Y-115682000D03*
X214785000Y-115682000D03*
D38*
X222885000Y-108182000D03*
X217885000Y-108182000D03*
X220385000Y-108182000D03*
X217885000Y-122682000D03*
X222885000Y-122682000D03*
D26*
X108585000Y-52959001D03*
X102235000Y-55499000D03*
D17*
X106045000Y-58039001D03*
D26*
X109855000Y-55499001D03*
X103505000Y-52959001D03*
D15*
X100965000Y-58039001D03*
X111125000Y-58039001D03*
D27*
X98845000Y-52939001D03*
D28*
X114545000Y-55539001D03*
D22*
X218518000Y-119735600D03*
X221918000Y-119735600D03*
D26*
X109855000Y-93535500D03*
D15*
X111125000Y-96075500D03*
D26*
X102235000Y-93535499D03*
D15*
X100965000Y-96075500D03*
D17*
X106045000Y-96075500D03*
D26*
X108585000Y-90995500D03*
X103505000Y-90995500D03*
D27*
X98845000Y-90975500D03*
D28*
X114545000Y-93575500D03*
M02*
