%TF.GenerationSoftware,KiCad,Pcbnew,(6.0.10)*%
%TF.CreationDate,2023-03-19T21:25:39+07:00*%
%TF.ProjectId,ergodash,6572676f-6461-4736-982e-6b696361645f,2.0*%
%TF.SameCoordinates,Original*%
%TF.FileFunction,Drillmap*%
%TF.FilePolarity,Positive*%
%FSLAX45Y45*%
G04 Gerber Fmt 4.5, Leading zero omitted, Abs format (unit mm)*
G04 Created by KiCad (PCBNEW (6.0.10)) date 2023-03-19 21:25:39*
%MOMM*%
%LPD*%
G01*
G04 APERTURE LIST*
%ADD10C,0.150000*%
%ADD11C,0.200000*%
%ADD12C,0.120000*%
%ADD13C,0.170000*%
%ADD14C,0.190000*%
%ADD15C,0.300000*%
%ADD16C,0.400000*%
%ADD17C,0.500000*%
G04 APERTURE END LIST*
D10*
X19126200Y-4470400D02*
G75*
G03*
X18897600Y-4699000I0J-228600D01*
G01*
X21031200Y-5892800D02*
G75*
G03*
X20802600Y-5664200I-228600J0D01*
G01*
X21031200Y-6731000D02*
X21031200Y-7660640D01*
X21234400Y-6400800D02*
X22618700Y-6400800D01*
X21234400Y-9784080D02*
X21031200Y-9784080D01*
X19888200Y-14668500D02*
X20701000Y-13233400D01*
X21107400Y-16395700D02*
X22783800Y-13500100D01*
X21031200Y-8432800D02*
X21031200Y-8432800D01*
X13462000Y-3708400D02*
X16357600Y-3708400D01*
X22885400Y-6400800D02*
X22885400Y-12420600D01*
X19761200Y-14884400D02*
X19850100Y-14935200D01*
X21031200Y-5892800D02*
X21031200Y-6731000D01*
X21234400Y-7660640D02*
X21234400Y-6400800D01*
X21031200Y-11023600D02*
X21031200Y-12217400D01*
X22885400Y-12420600D02*
X21234400Y-12420600D01*
X22783800Y-13500100D02*
G75*
G03*
X22745700Y-13284200I-127000J88900D01*
G01*
X20142200Y-4699000D02*
X20142200Y-5435600D01*
X8051800Y-14300200D02*
X11480800Y-14300200D01*
X19202400Y-15443200D02*
G75*
G03*
X19494500Y-15354300I101600J190500D01*
G01*
X21031200Y-12217400D02*
X21031200Y-12661900D01*
X18897600Y-4699000D02*
X18770600Y-4699000D01*
X20904200Y-16421100D02*
G75*
G03*
X21107400Y-16395700I88900J114300D01*
G01*
X20142200Y-5435600D02*
G75*
G03*
X20370800Y-5664200I228600J0D01*
G01*
X19494500Y-15354300D02*
X19761200Y-14884400D01*
X7823200Y-14071600D02*
X7823200Y-5054600D01*
X21031200Y-12661900D02*
X20840700Y-12992100D01*
X8051800Y-4826000D02*
G75*
G03*
X7823200Y-5054600I0J-228600D01*
G01*
X19977100Y-14719300D02*
X20789900Y-13284200D01*
X21031200Y-8432800D02*
X21234400Y-8432800D01*
X11480800Y-14300200D02*
X17221200Y-14300200D01*
X19850100Y-14935200D02*
X19545300Y-15455900D01*
X21031200Y-9784080D02*
X21031200Y-11023600D01*
X17221200Y-14300200D02*
X19202400Y-15443200D01*
X20370800Y-5664200D02*
X20802600Y-5664200D01*
X19596100Y-15659100D02*
X20904200Y-16421100D01*
X16357600Y-3708400D02*
X17221200Y-3708400D01*
X21424900Y-12522200D02*
X22745700Y-13284200D01*
X21209000Y-12560300D02*
X20929600Y-13042900D01*
X21234400Y-8432800D02*
X21234400Y-8978900D01*
X19888200Y-14668500D02*
X19977100Y-14719300D01*
X19126200Y-4470400D02*
X19913600Y-4470400D01*
X22618700Y-6400800D02*
X22885400Y-6400800D01*
X21234400Y-12420600D02*
X21234400Y-9784080D01*
X17221200Y-3708400D02*
X18770600Y-4699000D01*
X21031200Y-8432800D02*
X21031200Y-8978900D01*
X21424900Y-12522200D02*
G75*
G03*
X21209000Y-12560300I-88900J-127000D01*
G01*
X13462000Y-3708400D02*
X8051800Y-4826000D01*
X21031200Y-8978900D02*
X21234400Y-8978900D01*
X20142200Y-4699000D02*
G75*
G03*
X19913600Y-4470400I-228600J0D01*
G01*
X7823200Y-14071600D02*
G75*
G03*
X8051800Y-14300200I228600J0D01*
G01*
X19545300Y-15455900D02*
G75*
G03*
X19596100Y-15659100I127000J-76200D01*
G01*
X20701000Y-13233400D02*
X20789900Y-13284200D01*
X21031200Y-7660640D02*
X21234400Y-7660640D01*
X20840700Y-12992100D02*
X20929600Y-13042900D01*
D11*
D12*
X19364200Y-4561500D02*
X19484200Y-4681500D01*
X19484200Y-4561500D02*
X19364200Y-4681500D01*
X19364200Y-5261500D02*
X19484200Y-5381500D01*
X19484200Y-5261500D02*
X19364200Y-5381500D01*
X19539200Y-4561500D02*
X19659200Y-4681500D01*
X19659200Y-4561500D02*
X19539200Y-4681500D01*
X19539200Y-5261500D02*
X19659200Y-5381500D01*
X19659200Y-5261500D02*
X19539200Y-5381500D01*
D13*
X8276500Y-5797550D02*
G75*
G03*
X8276500Y-5797550I-85000J0D01*
G01*
X8276500Y-7702550D02*
G75*
G03*
X8276500Y-7702550I-85000J0D01*
G01*
X8276500Y-9607550D02*
G75*
G03*
X8276500Y-9607550I-85000J0D01*
G01*
X8276500Y-11512550D02*
G75*
G03*
X8276500Y-11512550I-85000J0D01*
G01*
X8276500Y-13411200D02*
G75*
G03*
X8276500Y-13411200I-85000J0D01*
G01*
X9292500Y-5797550D02*
G75*
G03*
X9292500Y-5797550I-85000J0D01*
G01*
X9292500Y-7702550D02*
G75*
G03*
X9292500Y-7702550I-85000J0D01*
G01*
X9292500Y-9607550D02*
G75*
G03*
X9292500Y-9607550I-85000J0D01*
G01*
X9292500Y-11512550D02*
G75*
G03*
X9292500Y-11512550I-85000J0D01*
G01*
X9292500Y-13411200D02*
G75*
G03*
X9292500Y-13411200I-85000J0D01*
G01*
X10181500Y-5803900D02*
G75*
G03*
X10181500Y-5803900I-85000J0D01*
G01*
X10181500Y-7702550D02*
G75*
G03*
X10181500Y-7702550I-85000J0D01*
G01*
X10181500Y-9607550D02*
G75*
G03*
X10181500Y-9607550I-85000J0D01*
G01*
X10181500Y-11506200D02*
G75*
G03*
X10181500Y-11506200I-85000J0D01*
G01*
X10181500Y-13411200D02*
G75*
G03*
X10181500Y-13411200I-85000J0D01*
G01*
X11197500Y-5803900D02*
G75*
G03*
X11197500Y-5803900I-85000J0D01*
G01*
X11197500Y-7702550D02*
G75*
G03*
X11197500Y-7702550I-85000J0D01*
G01*
X11197500Y-9607550D02*
G75*
G03*
X11197500Y-9607550I-85000J0D01*
G01*
X11197500Y-11506200D02*
G75*
G03*
X11197500Y-11506200I-85000J0D01*
G01*
X11197500Y-13411200D02*
G75*
G03*
X11197500Y-13411200I-85000J0D01*
G01*
X12086500Y-5321300D02*
G75*
G03*
X12086500Y-5321300I-85000J0D01*
G01*
X12086500Y-7226300D02*
G75*
G03*
X12086500Y-7226300I-85000J0D01*
G01*
X12086500Y-9131300D02*
G75*
G03*
X12086500Y-9131300I-85000J0D01*
G01*
X12086500Y-11036300D02*
G75*
G03*
X12086500Y-11036300I-85000J0D01*
G01*
X12086500Y-12941300D02*
G75*
G03*
X12086500Y-12941300I-85000J0D01*
G01*
X13102500Y-5321300D02*
G75*
G03*
X13102500Y-5321300I-85000J0D01*
G01*
X13102500Y-7226300D02*
G75*
G03*
X13102500Y-7226300I-85000J0D01*
G01*
X13102500Y-9131300D02*
G75*
G03*
X13102500Y-9131300I-85000J0D01*
G01*
X13102500Y-11036300D02*
G75*
G03*
X13102500Y-11036300I-85000J0D01*
G01*
X13102500Y-12941300D02*
G75*
G03*
X13102500Y-12941300I-85000J0D01*
G01*
X13991500Y-5083175D02*
G75*
G03*
X13991500Y-5083175I-85000J0D01*
G01*
X13991500Y-6988175D02*
G75*
G03*
X13991500Y-6988175I-85000J0D01*
G01*
X13991500Y-8890000D02*
G75*
G03*
X13991500Y-8890000I-85000J0D01*
G01*
X13991500Y-10798175D02*
G75*
G03*
X13991500Y-10798175I-85000J0D01*
G01*
X13991500Y-12703175D02*
G75*
G03*
X13991500Y-12703175I-85000J0D01*
G01*
X14753500Y-12941300D02*
G75*
G03*
X14753500Y-12941300I-85000J0D01*
G01*
X15007500Y-5083175D02*
G75*
G03*
X15007500Y-5083175I-85000J0D01*
G01*
X15007500Y-6988175D02*
G75*
G03*
X15007500Y-6988175I-85000J0D01*
G01*
X15007500Y-8890000D02*
G75*
G03*
X15007500Y-8890000I-85000J0D01*
G01*
X15007500Y-10798175D02*
G75*
G03*
X15007500Y-10798175I-85000J0D01*
G01*
X15007500Y-12703175D02*
G75*
G03*
X15007500Y-12703175I-85000J0D01*
G01*
X15769500Y-12941300D02*
G75*
G03*
X15769500Y-12941300I-85000J0D01*
G01*
X15896500Y-5321300D02*
G75*
G03*
X15896500Y-5321300I-85000J0D01*
G01*
X15896500Y-7226300D02*
G75*
G03*
X15896500Y-7226300I-85000J0D01*
G01*
X15896500Y-9131300D02*
G75*
G03*
X15896500Y-9131300I-85000J0D01*
G01*
X15896500Y-11036300D02*
G75*
G03*
X15896500Y-11036300I-85000J0D01*
G01*
X16912500Y-5321300D02*
G75*
G03*
X16912500Y-5321300I-85000J0D01*
G01*
X16912500Y-7226300D02*
G75*
G03*
X16912500Y-7226300I-85000J0D01*
G01*
X16912500Y-9131300D02*
G75*
G03*
X16912500Y-9131300I-85000J0D01*
G01*
X16912500Y-11036300D02*
G75*
G03*
X16912500Y-11036300I-85000J0D01*
G01*
X17260200Y-13857466D02*
G75*
G03*
X17260200Y-13857466I-85000J0D01*
G01*
X17768200Y-12977584D02*
G75*
G03*
X17768200Y-12977584I-85000J0D01*
G01*
X17801500Y-5559425D02*
G75*
G03*
X17801500Y-5559425I-85000J0D01*
G01*
X17801500Y-7464425D02*
G75*
G03*
X17801500Y-7464425I-85000J0D01*
G01*
X17801500Y-9369425D02*
G75*
G03*
X17801500Y-9369425I-85000J0D01*
G01*
X17801500Y-11274425D02*
G75*
G03*
X17801500Y-11274425I-85000J0D01*
G01*
X18817500Y-5559425D02*
G75*
G03*
X18817500Y-5559425I-85000J0D01*
G01*
X18817500Y-7464425D02*
G75*
G03*
X18817500Y-7464425I-85000J0D01*
G01*
X18817500Y-9369425D02*
G75*
G03*
X18817500Y-9369425I-85000J0D01*
G01*
X18817500Y-11274425D02*
G75*
G03*
X18817500Y-11274425I-85000J0D01*
G01*
X18910000Y-14809971D02*
G75*
G03*
X18910000Y-14809971I-85000J0D01*
G01*
X19384441Y-13982211D02*
G75*
G03*
X19384441Y-13982211I-85000J0D01*
G01*
X19418000Y-13930089D02*
G75*
G03*
X19418000Y-13930089I-85000J0D01*
G01*
X19706500Y-6511925D02*
G75*
G03*
X19706500Y-6511925I-85000J0D01*
G01*
X19706500Y-8420100D02*
G75*
G03*
X19706500Y-8420100I-85000J0D01*
G01*
X19706500Y-10325100D02*
G75*
G03*
X19706500Y-10325100I-85000J0D01*
G01*
X19863459Y-13156711D02*
G75*
G03*
X19863459Y-13156711I-85000J0D01*
G01*
X19892441Y-13102330D02*
G75*
G03*
X19892441Y-13102330I-85000J0D01*
G01*
X20371459Y-12276830D02*
G75*
G03*
X20371459Y-12276830I-85000J0D01*
G01*
X20559800Y-15762476D02*
G75*
G03*
X20559800Y-15762476I-85000J0D01*
G01*
X20722500Y-6511925D02*
G75*
G03*
X20722500Y-6511925I-85000J0D01*
G01*
X20722500Y-8420100D02*
G75*
G03*
X20722500Y-8420100I-85000J0D01*
G01*
X20722500Y-10325100D02*
G75*
G03*
X20722500Y-10325100I-85000J0D01*
G01*
X21036050Y-14937571D02*
G75*
G03*
X21036050Y-14937571I-85000J0D01*
G01*
X21067800Y-14882594D02*
G75*
G03*
X21067800Y-14882594I-85000J0D01*
G01*
X21512300Y-14112676D02*
G75*
G03*
X21512300Y-14112676I-85000J0D01*
G01*
X21544050Y-14057689D02*
G75*
G03*
X21544050Y-14057689I-85000J0D01*
G01*
X22020300Y-13232794D02*
G75*
G03*
X22020300Y-13232794I-85000J0D01*
G01*
D14*
X13864500Y-4988175D02*
X13864500Y-5178175D01*
X13769500Y-5083175D02*
X13959500Y-5083175D01*
X13864500Y-6893175D02*
X13864500Y-7083175D01*
X13769500Y-6988175D02*
X13959500Y-6988175D01*
X14964500Y-4988175D02*
X14964500Y-5178175D01*
X14869500Y-5083175D02*
X15059500Y-5083175D01*
X14964500Y-6893175D02*
X14964500Y-7083175D01*
X14869500Y-6988175D02*
X15059500Y-6988175D01*
D15*
X8424567Y-5649617D02*
X8424567Y-5437483D01*
X8212433Y-5437483D01*
X8212433Y-5649617D01*
X8424567Y-5649617D01*
X8424567Y-7554617D02*
X8424567Y-7342483D01*
X8212433Y-7342483D01*
X8212433Y-7554617D01*
X8424567Y-7554617D01*
X8424567Y-9459617D02*
X8424567Y-9247483D01*
X8212433Y-9247483D01*
X8212433Y-9459617D01*
X8424567Y-9459617D01*
X8424567Y-11364617D02*
X8424567Y-11152483D01*
X8212433Y-11152483D01*
X8212433Y-11364617D01*
X8424567Y-11364617D01*
X8424567Y-13263267D02*
X8424567Y-13051133D01*
X8212433Y-13051133D01*
X8212433Y-13263267D01*
X8424567Y-13263267D01*
X8551567Y-5395617D02*
X8551567Y-5183483D01*
X8339433Y-5183483D01*
X8339433Y-5395617D01*
X8551567Y-5395617D01*
X8551567Y-7300617D02*
X8551567Y-7088483D01*
X8339433Y-7088483D01*
X8339433Y-7300617D01*
X8551567Y-7300617D01*
X8551567Y-9205617D02*
X8551567Y-8993483D01*
X8339433Y-8993483D01*
X8339433Y-9205617D01*
X8551567Y-9205617D01*
X8551567Y-11110617D02*
X8551567Y-10898483D01*
X8339433Y-10898483D01*
X8339433Y-11110617D01*
X8551567Y-11110617D01*
X8551567Y-13009267D02*
X8551567Y-12797133D01*
X8339433Y-12797133D01*
X8339433Y-13009267D01*
X8551567Y-13009267D01*
X9059567Y-5395617D02*
X9059567Y-5183483D01*
X8847433Y-5183483D01*
X8847433Y-5395617D01*
X9059567Y-5395617D01*
X9059567Y-7300617D02*
X9059567Y-7088483D01*
X8847433Y-7088483D01*
X8847433Y-7300617D01*
X9059567Y-7300617D01*
X9059567Y-9205617D02*
X9059567Y-8993483D01*
X8847433Y-8993483D01*
X8847433Y-9205617D01*
X9059567Y-9205617D01*
X9059567Y-11110617D02*
X9059567Y-10898483D01*
X8847433Y-10898483D01*
X8847433Y-11110617D01*
X9059567Y-11110617D01*
X9059567Y-13009267D02*
X9059567Y-12797133D01*
X8847433Y-12797133D01*
X8847433Y-13009267D01*
X9059567Y-13009267D01*
X9186567Y-5649617D02*
X9186567Y-5437483D01*
X8974433Y-5437483D01*
X8974433Y-5649617D01*
X9186567Y-5649617D01*
X9186567Y-7554617D02*
X9186567Y-7342483D01*
X8974433Y-7342483D01*
X8974433Y-7554617D01*
X9186567Y-7554617D01*
X9186567Y-9459617D02*
X9186567Y-9247483D01*
X8974433Y-9247483D01*
X8974433Y-9459617D01*
X9186567Y-9459617D01*
X9186567Y-11364617D02*
X9186567Y-11152483D01*
X8974433Y-11152483D01*
X8974433Y-11364617D01*
X9186567Y-11364617D01*
X9186567Y-13263267D02*
X9186567Y-13051133D01*
X8974433Y-13051133D01*
X8974433Y-13263267D01*
X9186567Y-13263267D01*
X10329567Y-5655967D02*
X10329567Y-5443833D01*
X10117433Y-5443833D01*
X10117433Y-5655967D01*
X10329567Y-5655967D01*
X10329567Y-7554617D02*
X10329567Y-7342483D01*
X10117433Y-7342483D01*
X10117433Y-7554617D01*
X10329567Y-7554617D01*
X10329567Y-9459617D02*
X10329567Y-9247483D01*
X10117433Y-9247483D01*
X10117433Y-9459617D01*
X10329567Y-9459617D01*
X10329567Y-11358267D02*
X10329567Y-11146133D01*
X10117433Y-11146133D01*
X10117433Y-11358267D01*
X10329567Y-11358267D01*
X10329567Y-13263267D02*
X10329567Y-13051133D01*
X10117433Y-13051133D01*
X10117433Y-13263267D01*
X10329567Y-13263267D01*
X10456567Y-5401967D02*
X10456567Y-5189833D01*
X10244433Y-5189833D01*
X10244433Y-5401967D01*
X10456567Y-5401967D01*
X10456567Y-7300617D02*
X10456567Y-7088483D01*
X10244433Y-7088483D01*
X10244433Y-7300617D01*
X10456567Y-7300617D01*
X10456567Y-9205617D02*
X10456567Y-8993483D01*
X10244433Y-8993483D01*
X10244433Y-9205617D01*
X10456567Y-9205617D01*
X10456567Y-11104267D02*
X10456567Y-10892133D01*
X10244433Y-10892133D01*
X10244433Y-11104267D01*
X10456567Y-11104267D01*
X10456567Y-13009267D02*
X10456567Y-12797133D01*
X10244433Y-12797133D01*
X10244433Y-13009267D01*
X10456567Y-13009267D01*
X10964567Y-5401967D02*
X10964567Y-5189833D01*
X10752433Y-5189833D01*
X10752433Y-5401967D01*
X10964567Y-5401967D01*
X10964567Y-7300617D02*
X10964567Y-7088483D01*
X10752433Y-7088483D01*
X10752433Y-7300617D01*
X10964567Y-7300617D01*
X10964567Y-9205617D02*
X10964567Y-8993483D01*
X10752433Y-8993483D01*
X10752433Y-9205617D01*
X10964567Y-9205617D01*
X10964567Y-11104267D02*
X10964567Y-10892133D01*
X10752433Y-10892133D01*
X10752433Y-11104267D01*
X10964567Y-11104267D01*
X10964567Y-13009267D02*
X10964567Y-12797133D01*
X10752433Y-12797133D01*
X10752433Y-13009267D01*
X10964567Y-13009267D01*
X11091567Y-5655967D02*
X11091567Y-5443833D01*
X10879433Y-5443833D01*
X10879433Y-5655967D01*
X11091567Y-5655967D01*
X11091567Y-7554617D02*
X11091567Y-7342483D01*
X10879433Y-7342483D01*
X10879433Y-7554617D01*
X11091567Y-7554617D01*
X11091567Y-9459617D02*
X11091567Y-9247483D01*
X10879433Y-9247483D01*
X10879433Y-9459617D01*
X11091567Y-9459617D01*
X11091567Y-11358267D02*
X11091567Y-11146133D01*
X10879433Y-11146133D01*
X10879433Y-11358267D01*
X11091567Y-11358267D01*
X11091567Y-13263267D02*
X11091567Y-13051133D01*
X10879433Y-13051133D01*
X10879433Y-13263267D01*
X11091567Y-13263267D01*
X12234567Y-5173367D02*
X12234567Y-4961233D01*
X12022433Y-4961233D01*
X12022433Y-5173367D01*
X12234567Y-5173367D01*
X12234567Y-7078367D02*
X12234567Y-6866233D01*
X12022433Y-6866233D01*
X12022433Y-7078367D01*
X12234567Y-7078367D01*
X12234567Y-8983367D02*
X12234567Y-8771233D01*
X12022433Y-8771233D01*
X12022433Y-8983367D01*
X12234567Y-8983367D01*
X12234567Y-10888367D02*
X12234567Y-10676233D01*
X12022433Y-10676233D01*
X12022433Y-10888367D01*
X12234567Y-10888367D01*
X12234567Y-12793367D02*
X12234567Y-12581233D01*
X12022433Y-12581233D01*
X12022433Y-12793367D01*
X12234567Y-12793367D01*
X12361567Y-4919367D02*
X12361567Y-4707233D01*
X12149433Y-4707233D01*
X12149433Y-4919367D01*
X12361567Y-4919367D01*
X12361567Y-6824367D02*
X12361567Y-6612233D01*
X12149433Y-6612233D01*
X12149433Y-6824367D01*
X12361567Y-6824367D01*
X12361567Y-8729367D02*
X12361567Y-8517233D01*
X12149433Y-8517233D01*
X12149433Y-8729367D01*
X12361567Y-8729367D01*
X12361567Y-10634367D02*
X12361567Y-10422233D01*
X12149433Y-10422233D01*
X12149433Y-10634367D01*
X12361567Y-10634367D01*
X12361567Y-12539367D02*
X12361567Y-12327233D01*
X12149433Y-12327233D01*
X12149433Y-12539367D01*
X12361567Y-12539367D01*
X12869567Y-4919367D02*
X12869567Y-4707233D01*
X12657433Y-4707233D01*
X12657433Y-4919367D01*
X12869567Y-4919367D01*
X12869567Y-6824367D02*
X12869567Y-6612233D01*
X12657433Y-6612233D01*
X12657433Y-6824367D01*
X12869567Y-6824367D01*
X12869567Y-8729367D02*
X12869567Y-8517233D01*
X12657433Y-8517233D01*
X12657433Y-8729367D01*
X12869567Y-8729367D01*
X12869567Y-10634367D02*
X12869567Y-10422233D01*
X12657433Y-10422233D01*
X12657433Y-10634367D01*
X12869567Y-10634367D01*
X12869567Y-12539367D02*
X12869567Y-12327233D01*
X12657433Y-12327233D01*
X12657433Y-12539367D01*
X12869567Y-12539367D01*
X12996567Y-5173367D02*
X12996567Y-4961233D01*
X12784433Y-4961233D01*
X12784433Y-5173367D01*
X12996567Y-5173367D01*
X12996567Y-7078367D02*
X12996567Y-6866233D01*
X12784433Y-6866233D01*
X12784433Y-7078367D01*
X12996567Y-7078367D01*
X12996567Y-8983367D02*
X12996567Y-8771233D01*
X12784433Y-8771233D01*
X12784433Y-8983367D01*
X12996567Y-8983367D01*
X12996567Y-10888367D02*
X12996567Y-10676233D01*
X12784433Y-10676233D01*
X12784433Y-10888367D01*
X12996567Y-10888367D01*
X12996567Y-12793367D02*
X12996567Y-12581233D01*
X12784433Y-12581233D01*
X12784433Y-12793367D01*
X12996567Y-12793367D01*
X14139567Y-8742067D02*
X14139567Y-8529933D01*
X13927433Y-8529933D01*
X13927433Y-8742067D01*
X14139567Y-8742067D01*
X14139567Y-10650242D02*
X14139567Y-10438108D01*
X13927433Y-10438108D01*
X13927433Y-10650242D01*
X14139567Y-10650242D01*
X14139567Y-12555242D02*
X14139567Y-12343108D01*
X13927433Y-12343108D01*
X13927433Y-12555242D01*
X14139567Y-12555242D01*
X14266567Y-8488067D02*
X14266567Y-8275933D01*
X14054433Y-8275933D01*
X14054433Y-8488067D01*
X14266567Y-8488067D01*
X14266567Y-10396242D02*
X14266567Y-10184108D01*
X14054433Y-10184108D01*
X14054433Y-10396242D01*
X14266567Y-10396242D01*
X14266567Y-12301242D02*
X14266567Y-12089108D01*
X14054433Y-12089108D01*
X14054433Y-12301242D01*
X14266567Y-12301242D01*
X14774567Y-8488067D02*
X14774567Y-8275933D01*
X14562433Y-8275933D01*
X14562433Y-8488067D01*
X14774567Y-8488067D01*
X14774567Y-10396242D02*
X14774567Y-10184108D01*
X14562433Y-10184108D01*
X14562433Y-10396242D01*
X14774567Y-10396242D01*
X14774567Y-12301242D02*
X14774567Y-12089108D01*
X14562433Y-12089108D01*
X14562433Y-12301242D01*
X14774567Y-12301242D01*
X14901567Y-8742067D02*
X14901567Y-8529933D01*
X14689433Y-8529933D01*
X14689433Y-8742067D01*
X14901567Y-8742067D01*
X14901567Y-10650242D02*
X14901567Y-10438108D01*
X14689433Y-10438108D01*
X14689433Y-10650242D01*
X14901567Y-10650242D01*
X14901567Y-12555242D02*
X14901567Y-12343108D01*
X14689433Y-12343108D01*
X14689433Y-12555242D01*
X14901567Y-12555242D01*
X14901567Y-13301367D02*
X14901567Y-13089233D01*
X14689433Y-13089233D01*
X14689433Y-13301367D01*
X14901567Y-13301367D01*
X15028567Y-13555367D02*
X15028567Y-13343233D01*
X14816433Y-13343233D01*
X14816433Y-13555367D01*
X15028567Y-13555367D01*
X15536567Y-13555367D02*
X15536567Y-13343233D01*
X15324433Y-13343233D01*
X15324433Y-13555367D01*
X15536567Y-13555367D01*
X15663567Y-13301367D02*
X15663567Y-13089233D01*
X15451433Y-13089233D01*
X15451433Y-13301367D01*
X15663567Y-13301367D01*
X16044567Y-5173367D02*
X16044567Y-4961233D01*
X15832433Y-4961233D01*
X15832433Y-5173367D01*
X16044567Y-5173367D01*
X16044567Y-7078367D02*
X16044567Y-6866233D01*
X15832433Y-6866233D01*
X15832433Y-7078367D01*
X16044567Y-7078367D01*
X16044567Y-8983367D02*
X16044567Y-8771233D01*
X15832433Y-8771233D01*
X15832433Y-8983367D01*
X16044567Y-8983367D01*
X16044567Y-10888367D02*
X16044567Y-10676233D01*
X15832433Y-10676233D01*
X15832433Y-10888367D01*
X16044567Y-10888367D01*
X16171567Y-4919367D02*
X16171567Y-4707233D01*
X15959433Y-4707233D01*
X15959433Y-4919367D01*
X16171567Y-4919367D01*
X16171567Y-6824367D02*
X16171567Y-6612233D01*
X15959433Y-6612233D01*
X15959433Y-6824367D01*
X16171567Y-6824367D01*
X16171567Y-8729367D02*
X16171567Y-8517233D01*
X15959433Y-8517233D01*
X15959433Y-8729367D01*
X16171567Y-8729367D01*
X16171567Y-10634367D02*
X16171567Y-10422233D01*
X15959433Y-10422233D01*
X15959433Y-10634367D01*
X16171567Y-10634367D01*
X16679567Y-4919367D02*
X16679567Y-4707233D01*
X16467433Y-4707233D01*
X16467433Y-4919367D01*
X16679567Y-4919367D01*
X16679567Y-6824367D02*
X16679567Y-6612233D01*
X16467433Y-6612233D01*
X16467433Y-6824367D01*
X16679567Y-6824367D01*
X16679567Y-8729367D02*
X16679567Y-8517233D01*
X16467433Y-8517233D01*
X16467433Y-8729367D01*
X16679567Y-8729367D01*
X16679567Y-10634367D02*
X16679567Y-10422233D01*
X16467433Y-10422233D01*
X16467433Y-10634367D01*
X16679567Y-10634367D01*
X16806567Y-5173367D02*
X16806567Y-4961233D01*
X16594433Y-4961233D01*
X16594433Y-5173367D01*
X16806567Y-5173367D01*
X16806567Y-7078367D02*
X16806567Y-6866233D01*
X16594433Y-6866233D01*
X16594433Y-7078367D01*
X16806567Y-7078367D01*
X16806567Y-8983367D02*
X16806567Y-8771233D01*
X16594433Y-8771233D01*
X16594433Y-8983367D01*
X16806567Y-8983367D01*
X16806567Y-10888367D02*
X16806567Y-10676233D01*
X16594433Y-10676233D01*
X16594433Y-10888367D01*
X16806567Y-10888367D01*
X16968326Y-13489562D02*
X16968326Y-13277428D01*
X16756192Y-13277428D01*
X16756192Y-13489562D01*
X16968326Y-13489562D01*
X17124797Y-13726548D02*
X17124797Y-13514414D01*
X16912663Y-13514414D01*
X16912663Y-13726548D01*
X17124797Y-13726548D01*
X17222326Y-13049621D02*
X17222326Y-12837487D01*
X17010192Y-12837487D01*
X17010192Y-13049621D01*
X17222326Y-13049621D01*
X17505797Y-13066636D02*
X17505797Y-12854502D01*
X17293663Y-12854502D01*
X17293663Y-13066636D01*
X17505797Y-13066636D01*
X17949567Y-5411492D02*
X17949567Y-5199358D01*
X17737433Y-5199358D01*
X17737433Y-5411492D01*
X17949567Y-5411492D01*
X17949567Y-7316492D02*
X17949567Y-7104358D01*
X17737433Y-7104358D01*
X17737433Y-7316492D01*
X17949567Y-7316492D01*
X17949567Y-9221492D02*
X17949567Y-9009358D01*
X17737433Y-9009358D01*
X17737433Y-9221492D01*
X17949567Y-9221492D01*
X17949567Y-11126492D02*
X17949567Y-10914358D01*
X17737433Y-10914358D01*
X17737433Y-11126492D01*
X17949567Y-11126492D01*
X18076567Y-5157492D02*
X18076567Y-4945358D01*
X17864433Y-4945358D01*
X17864433Y-5157492D01*
X18076567Y-5157492D01*
X18076567Y-7062492D02*
X18076567Y-6850358D01*
X17864433Y-6850358D01*
X17864433Y-7062492D01*
X18076567Y-7062492D01*
X18076567Y-8967492D02*
X18076567Y-8755358D01*
X17864433Y-8755358D01*
X17864433Y-8967492D01*
X18076567Y-8967492D01*
X18076567Y-10872492D02*
X18076567Y-10660358D01*
X17864433Y-10660358D01*
X17864433Y-10872492D01*
X18076567Y-10872492D01*
X18584567Y-5157492D02*
X18584567Y-4945358D01*
X18372433Y-4945358D01*
X18372433Y-5157492D01*
X18584567Y-5157492D01*
X18584567Y-7062492D02*
X18584567Y-6850358D01*
X18372433Y-6850358D01*
X18372433Y-7062492D01*
X18584567Y-7062492D01*
X18584567Y-8967492D02*
X18584567Y-8755358D01*
X18372433Y-8755358D01*
X18372433Y-8967492D01*
X18584567Y-8967492D01*
X18584567Y-10872492D02*
X18584567Y-10660358D01*
X18372433Y-10660358D01*
X18372433Y-10872492D01*
X18584567Y-10872492D01*
X18711567Y-5411492D02*
X18711567Y-5199358D01*
X18499433Y-5199358D01*
X18499433Y-5411492D01*
X18711567Y-5411492D01*
X18711567Y-7316492D02*
X18711567Y-7104358D01*
X18499433Y-7104358D01*
X18499433Y-7316492D01*
X18711567Y-7316492D01*
X18711567Y-9221492D02*
X18711567Y-9009358D01*
X18499433Y-9009358D01*
X18499433Y-9221492D01*
X18711567Y-9221492D01*
X18711567Y-11126492D02*
X18711567Y-10914358D01*
X18499433Y-10914358D01*
X18499433Y-11126492D01*
X18711567Y-11126492D01*
X19092567Y-13614308D02*
X19092567Y-13402174D01*
X18880433Y-13402174D01*
X18880433Y-13614308D01*
X19092567Y-13614308D01*
X19214538Y-14933053D02*
X19214538Y-14720919D01*
X19002404Y-14720919D01*
X19002404Y-14933053D01*
X19214538Y-14933053D01*
X19249037Y-13851293D02*
X19249037Y-13639159D01*
X19036903Y-13639159D01*
X19036903Y-13851293D01*
X19249037Y-13851293D01*
X19346567Y-13174367D02*
X19346567Y-12962233D01*
X19134433Y-12962233D01*
X19134433Y-13174367D01*
X19346567Y-13174367D01*
X19498008Y-14950067D02*
X19498008Y-14737933D01*
X19285874Y-14737933D01*
X19285874Y-14950067D01*
X19498008Y-14950067D01*
X19595538Y-14273141D02*
X19595538Y-14061007D01*
X19383404Y-14061007D01*
X19383404Y-14273141D01*
X19595538Y-14273141D01*
X19630037Y-13191382D02*
X19630037Y-12979248D01*
X19417903Y-12979248D01*
X19417903Y-13191382D01*
X19630037Y-13191382D01*
X19752008Y-14510126D02*
X19752008Y-14297992D01*
X19539874Y-14297992D01*
X19539874Y-14510126D01*
X19752008Y-14510126D01*
X19854567Y-6363992D02*
X19854567Y-6151858D01*
X19642433Y-6151858D01*
X19642433Y-6363992D01*
X19854567Y-6363992D01*
X19854567Y-8272167D02*
X19854567Y-8060033D01*
X19642433Y-8060033D01*
X19642433Y-8272167D01*
X19854567Y-8272167D01*
X19854567Y-10177167D02*
X19854567Y-9965033D01*
X19642433Y-9965033D01*
X19642433Y-10177167D01*
X19854567Y-10177167D01*
X19981567Y-6109992D02*
X19981567Y-5897858D01*
X19769433Y-5897858D01*
X19769433Y-6109992D01*
X19981567Y-6109992D01*
X19981567Y-8018167D02*
X19981567Y-7806033D01*
X19769433Y-7806033D01*
X19769433Y-8018167D01*
X19981567Y-8018167D01*
X19981567Y-9923167D02*
X19981567Y-9711033D01*
X19769433Y-9711033D01*
X19769433Y-9923167D01*
X19981567Y-9923167D01*
X20167997Y-13279793D02*
X20167997Y-13067659D01*
X19955863Y-13067659D01*
X19955863Y-13279793D01*
X20167997Y-13279793D01*
X20451467Y-13296808D02*
X20451467Y-13084674D01*
X20239333Y-13084674D01*
X20239333Y-13296808D01*
X20451467Y-13296808D01*
X20489567Y-6109992D02*
X20489567Y-5897858D01*
X20277433Y-5897858D01*
X20277433Y-6109992D01*
X20489567Y-6109992D01*
X20489567Y-8018167D02*
X20489567Y-7806033D01*
X20277433Y-7806033D01*
X20277433Y-8018167D01*
X20489567Y-8018167D01*
X20489567Y-9923167D02*
X20489567Y-9711033D01*
X20277433Y-9711033D01*
X20277433Y-9923167D01*
X20489567Y-9923167D01*
X20548997Y-12619882D02*
X20548997Y-12407748D01*
X20336863Y-12407748D01*
X20336863Y-12619882D01*
X20548997Y-12619882D01*
X20616567Y-6363992D02*
X20616567Y-6151858D01*
X20404433Y-6151858D01*
X20404433Y-6363992D01*
X20616567Y-6363992D01*
X20616567Y-8272167D02*
X20616567Y-8060033D01*
X20404433Y-8060033D01*
X20404433Y-8272167D01*
X20616567Y-8272167D01*
X20616567Y-10177167D02*
X20616567Y-9965033D01*
X20404433Y-9965033D01*
X20404433Y-10177167D01*
X20616567Y-10177167D01*
X20705467Y-12856867D02*
X20705467Y-12644733D01*
X20493333Y-12644733D01*
X20493333Y-12856867D01*
X20705467Y-12856867D01*
X20744176Y-14569667D02*
X20744176Y-14357533D01*
X20532042Y-14357533D01*
X20532042Y-14569667D01*
X20744176Y-14569667D01*
X20864338Y-15885558D02*
X20864338Y-15673424D01*
X20652204Y-15673424D01*
X20652204Y-15885558D01*
X20864338Y-15885558D01*
X20900647Y-14806653D02*
X20900647Y-14594519D01*
X20688513Y-14594519D01*
X20688513Y-14806653D01*
X20900647Y-14806653D01*
X20998176Y-14129726D02*
X20998176Y-13917592D01*
X20786042Y-13917592D01*
X20786042Y-14129726D01*
X20998176Y-14129726D01*
X21147808Y-15902572D02*
X21147808Y-15690438D01*
X20935674Y-15690438D01*
X20935674Y-15902572D01*
X21147808Y-15902572D01*
X21245338Y-15225646D02*
X21245338Y-15013512D01*
X21033204Y-15013512D01*
X21033204Y-15225646D01*
X21245338Y-15225646D01*
X21281647Y-14146741D02*
X21281647Y-13934607D01*
X21069513Y-13934607D01*
X21069513Y-14146741D01*
X21281647Y-14146741D01*
X21401808Y-15462631D02*
X21401808Y-15250497D01*
X21189674Y-15250497D01*
X21189674Y-15462631D01*
X21401808Y-15462631D01*
X21816838Y-14235758D02*
X21816838Y-14023624D01*
X21604704Y-14023624D01*
X21604704Y-14235758D01*
X21816838Y-14235758D01*
X22100308Y-14252772D02*
X22100308Y-14040638D01*
X21888174Y-14040638D01*
X21888174Y-14252772D01*
X22100308Y-14252772D01*
X22197838Y-13575846D02*
X22197838Y-13363712D01*
X21985704Y-13363712D01*
X21985704Y-13575846D01*
X22197838Y-13575846D01*
X22354308Y-13812831D02*
X22354308Y-13600697D01*
X22142174Y-13600697D01*
X22142174Y-13812831D01*
X22354308Y-13812831D01*
D16*
X8699500Y-5997550D02*
X8899500Y-5797550D01*
X8699500Y-5597550D01*
X8499500Y-5797550D01*
X8699500Y-5997550D01*
X8699500Y-7902550D02*
X8899500Y-7702550D01*
X8699500Y-7502550D01*
X8499500Y-7702550D01*
X8699500Y-7902550D01*
X8699500Y-9807550D02*
X8899500Y-9607550D01*
X8699500Y-9407550D01*
X8499500Y-9607550D01*
X8699500Y-9807550D01*
X8699500Y-11712550D02*
X8899500Y-11512550D01*
X8699500Y-11312550D01*
X8499500Y-11512550D01*
X8699500Y-11712550D01*
X8699500Y-13611200D02*
X8899500Y-13411200D01*
X8699500Y-13211200D01*
X8499500Y-13411200D01*
X8699500Y-13611200D01*
X10604500Y-6003900D02*
X10804500Y-5803900D01*
X10604500Y-5603900D01*
X10404500Y-5803900D01*
X10604500Y-6003900D01*
X10604500Y-7902550D02*
X10804500Y-7702550D01*
X10604500Y-7502550D01*
X10404500Y-7702550D01*
X10604500Y-7902550D01*
X10604500Y-9807550D02*
X10804500Y-9607550D01*
X10604500Y-9407550D01*
X10404500Y-9607550D01*
X10604500Y-9807550D01*
X10604500Y-11706200D02*
X10804500Y-11506200D01*
X10604500Y-11306200D01*
X10404500Y-11506200D01*
X10604500Y-11706200D01*
X10604500Y-13611200D02*
X10804500Y-13411200D01*
X10604500Y-13211200D01*
X10404500Y-13411200D01*
X10604500Y-13611200D01*
X12509500Y-5521300D02*
X12709500Y-5321300D01*
X12509500Y-5121300D01*
X12309500Y-5321300D01*
X12509500Y-5521300D01*
X12509500Y-7426300D02*
X12709500Y-7226300D01*
X12509500Y-7026300D01*
X12309500Y-7226300D01*
X12509500Y-7426300D01*
X12509500Y-9331300D02*
X12709500Y-9131300D01*
X12509500Y-8931300D01*
X12309500Y-9131300D01*
X12509500Y-9331300D01*
X12509500Y-11236300D02*
X12709500Y-11036300D01*
X12509500Y-10836300D01*
X12309500Y-11036300D01*
X12509500Y-11236300D01*
X12509500Y-13141300D02*
X12709500Y-12941300D01*
X12509500Y-12741300D01*
X12309500Y-12941300D01*
X12509500Y-13141300D01*
X14414500Y-5283175D02*
X14614500Y-5083175D01*
X14414500Y-4883175D01*
X14214500Y-5083175D01*
X14414500Y-5283175D01*
X14414500Y-7188175D02*
X14614500Y-6988175D01*
X14414500Y-6788175D01*
X14214500Y-6988175D01*
X14414500Y-7188175D01*
X14414500Y-9090000D02*
X14614500Y-8890000D01*
X14414500Y-8690000D01*
X14214500Y-8890000D01*
X14414500Y-9090000D01*
X14414500Y-10998175D02*
X14614500Y-10798175D01*
X14414500Y-10598175D01*
X14214500Y-10798175D01*
X14414500Y-10998175D01*
X14414500Y-12903175D02*
X14614500Y-12703175D01*
X14414500Y-12503175D01*
X14214500Y-12703175D01*
X14414500Y-12903175D01*
X15176500Y-13141300D02*
X15376500Y-12941300D01*
X15176500Y-12741300D01*
X14976500Y-12941300D01*
X15176500Y-13141300D01*
X16319500Y-5521300D02*
X16519500Y-5321300D01*
X16319500Y-5121300D01*
X16119500Y-5321300D01*
X16319500Y-5521300D01*
X16319500Y-7426300D02*
X16519500Y-7226300D01*
X16319500Y-7026300D01*
X16119500Y-7226300D01*
X16319500Y-7426300D01*
X16319500Y-9331300D02*
X16519500Y-9131300D01*
X16319500Y-8931300D01*
X16119500Y-9131300D01*
X16319500Y-9331300D01*
X16319500Y-11236300D02*
X16519500Y-11036300D01*
X16319500Y-10836300D01*
X16119500Y-11036300D01*
X16319500Y-11236300D01*
X17429200Y-13617525D02*
X17629200Y-13417525D01*
X17429200Y-13217525D01*
X17229200Y-13417525D01*
X17429200Y-13617525D01*
X18224500Y-5759425D02*
X18424500Y-5559425D01*
X18224500Y-5359425D01*
X18024500Y-5559425D01*
X18224500Y-5759425D01*
X18224500Y-7664425D02*
X18424500Y-7464425D01*
X18224500Y-7264425D01*
X18024500Y-7464425D01*
X18224500Y-7664425D01*
X18224500Y-9569425D02*
X18424500Y-9369425D01*
X18224500Y-9169425D01*
X18024500Y-9369425D01*
X18224500Y-9569425D01*
X18224500Y-11474425D02*
X18424500Y-11274425D01*
X18224500Y-11074425D01*
X18024500Y-11274425D01*
X18224500Y-11474425D01*
X19079000Y-14570030D02*
X19279000Y-14370030D01*
X19079000Y-14170030D01*
X18879000Y-14370030D01*
X19079000Y-14570030D01*
X19553441Y-13742270D02*
X19753441Y-13542270D01*
X19553441Y-13342270D01*
X19353441Y-13542270D01*
X19553441Y-13742270D01*
X20032459Y-12916770D02*
X20232459Y-12716770D01*
X20032459Y-12516770D01*
X19832459Y-12716770D01*
X20032459Y-12916770D01*
X20129500Y-6711925D02*
X20329500Y-6511925D01*
X20129500Y-6311925D01*
X19929500Y-6511925D01*
X20129500Y-6711925D01*
X20129500Y-8620100D02*
X20329500Y-8420100D01*
X20129500Y-8220100D01*
X19929500Y-8420100D01*
X20129500Y-8620100D01*
X20129500Y-10525100D02*
X20329500Y-10325100D01*
X20129500Y-10125100D01*
X19929500Y-10325100D01*
X20129500Y-10525100D01*
X20728800Y-15522535D02*
X20928800Y-15322535D01*
X20728800Y-15122535D01*
X20528800Y-15322535D01*
X20728800Y-15522535D01*
X21205050Y-14697630D02*
X21405050Y-14497630D01*
X21205050Y-14297630D01*
X21005050Y-14497630D01*
X21205050Y-14697630D01*
X21681300Y-13872735D02*
X21881300Y-13672735D01*
X21681300Y-13472735D01*
X21481300Y-13672735D01*
X21681300Y-13872735D01*
D17*
X9402000Y-6506400D02*
X9902000Y-7006400D01*
X9902000Y-6506400D02*
X9402000Y-7006400D01*
X9902000Y-6756400D02*
G75*
G03*
X9902000Y-6756400I-250000J0D01*
G01*
X9402000Y-12246800D02*
X9902000Y-12746800D01*
X9902000Y-12246800D02*
X9402000Y-12746800D01*
X9902000Y-12496800D02*
G75*
G03*
X9902000Y-12496800I-250000J0D01*
G01*
X12589700Y-4017200D02*
X13089700Y-4517200D01*
X13089700Y-4017200D02*
X12589700Y-4517200D01*
X13089700Y-4267200D02*
G75*
G03*
X13089700Y-4267200I-250000J0D01*
G01*
X13212000Y-7928800D02*
X13712000Y-8428800D01*
X13712000Y-7928800D02*
X13212000Y-8428800D01*
X13712000Y-8178800D02*
G75*
G03*
X13712000Y-8178800I-250000J0D01*
G01*
X13262800Y-11484800D02*
X13762800Y-11984800D01*
X13762800Y-11484800D02*
X13262800Y-11984800D01*
X13762800Y-11734800D02*
G75*
G03*
X13762800Y-11734800I-250000J0D01*
G01*
X18330100Y-12221400D02*
X18830100Y-12721400D01*
X18830100Y-12221400D02*
X18330100Y-12721400D01*
X18830100Y-12471400D02*
G75*
G03*
X18830100Y-12471400I-250000J0D01*
G01*
X18874500Y-6314425D02*
X19374500Y-6814425D01*
X19374500Y-6314425D02*
X18874500Y-6814425D01*
X19374500Y-6564425D02*
G75*
G03*
X19374500Y-6564425I-250000J0D01*
G01*
D11*
X8073319Y-16769578D02*
X8073319Y-16569578D01*
X8120938Y-16569578D01*
X8149509Y-16579102D01*
X8168557Y-16598150D01*
X8178081Y-16617197D01*
X8187605Y-16655293D01*
X8187605Y-16683864D01*
X8178081Y-16721959D01*
X8168557Y-16741007D01*
X8149509Y-16760055D01*
X8120938Y-16769578D01*
X8073319Y-16769578D01*
X8273319Y-16769578D02*
X8273319Y-16636245D01*
X8273319Y-16674340D02*
X8282843Y-16655293D01*
X8292367Y-16645769D01*
X8311414Y-16636245D01*
X8330462Y-16636245D01*
X8397129Y-16769578D02*
X8397129Y-16636245D01*
X8397129Y-16569578D02*
X8387605Y-16579102D01*
X8397129Y-16588626D01*
X8406652Y-16579102D01*
X8397129Y-16569578D01*
X8397129Y-16588626D01*
X8520938Y-16769578D02*
X8501890Y-16760055D01*
X8492367Y-16741007D01*
X8492367Y-16569578D01*
X8625700Y-16769578D02*
X8606652Y-16760055D01*
X8597129Y-16741007D01*
X8597129Y-16569578D01*
X8854271Y-16769578D02*
X8854271Y-16569578D01*
X8920938Y-16712436D01*
X8987605Y-16569578D01*
X8987605Y-16769578D01*
X9168557Y-16769578D02*
X9168557Y-16664816D01*
X9159033Y-16645769D01*
X9139986Y-16636245D01*
X9101890Y-16636245D01*
X9082843Y-16645769D01*
X9168557Y-16760055D02*
X9149510Y-16769578D01*
X9101890Y-16769578D01*
X9082843Y-16760055D01*
X9073319Y-16741007D01*
X9073319Y-16721959D01*
X9082843Y-16702912D01*
X9101890Y-16693388D01*
X9149510Y-16693388D01*
X9168557Y-16683864D01*
X9263795Y-16636245D02*
X9263795Y-16836245D01*
X9263795Y-16645769D02*
X9282843Y-16636245D01*
X9320938Y-16636245D01*
X9339986Y-16645769D01*
X9349510Y-16655293D01*
X9359033Y-16674340D01*
X9359033Y-16731483D01*
X9349510Y-16750531D01*
X9339986Y-16760055D01*
X9320938Y-16769578D01*
X9282843Y-16769578D01*
X9263795Y-16760055D01*
X9444748Y-16750531D02*
X9454271Y-16760055D01*
X9444748Y-16769578D01*
X9435224Y-16760055D01*
X9444748Y-16750531D01*
X9444748Y-16769578D01*
X9444748Y-16645769D02*
X9454271Y-16655293D01*
X9444748Y-16664816D01*
X9435224Y-16655293D01*
X9444748Y-16645769D01*
X9444748Y-16664816D01*
D12*
X7695700Y-17039102D02*
X7815700Y-17159102D01*
X7815700Y-17039102D02*
X7695700Y-17159102D01*
D11*
X8178081Y-17189578D02*
X8063795Y-17189578D01*
X8120938Y-17189578D02*
X8120938Y-16989578D01*
X8101890Y-17018150D01*
X8082843Y-17037198D01*
X8063795Y-17046721D01*
X8263795Y-17170531D02*
X8273319Y-17180055D01*
X8263795Y-17189578D01*
X8254271Y-17180055D01*
X8263795Y-17170531D01*
X8263795Y-17189578D01*
X8349509Y-17008626D02*
X8359033Y-16999102D01*
X8378081Y-16989578D01*
X8425700Y-16989578D01*
X8444748Y-16999102D01*
X8454271Y-17008626D01*
X8463795Y-17027674D01*
X8463795Y-17046721D01*
X8454271Y-17075293D01*
X8339986Y-17189578D01*
X8463795Y-17189578D01*
X8587605Y-16989578D02*
X8606652Y-16989578D01*
X8625700Y-16999102D01*
X8635224Y-17008626D01*
X8644748Y-17027674D01*
X8654271Y-17065769D01*
X8654271Y-17113388D01*
X8644748Y-17151483D01*
X8635224Y-17170531D01*
X8625700Y-17180055D01*
X8606652Y-17189578D01*
X8587605Y-17189578D01*
X8568557Y-17180055D01*
X8559033Y-17170531D01*
X8549510Y-17151483D01*
X8539986Y-17113388D01*
X8539986Y-17065769D01*
X8549510Y-17027674D01*
X8559033Y-17008626D01*
X8568557Y-16999102D01*
X8587605Y-16989578D01*
X8778081Y-16989578D02*
X8797129Y-16989578D01*
X8816176Y-16999102D01*
X8825700Y-17008626D01*
X8835224Y-17027674D01*
X8844748Y-17065769D01*
X8844748Y-17113388D01*
X8835224Y-17151483D01*
X8825700Y-17170531D01*
X8816176Y-17180055D01*
X8797129Y-17189578D01*
X8778081Y-17189578D01*
X8759033Y-17180055D01*
X8749510Y-17170531D01*
X8739986Y-17151483D01*
X8730462Y-17113388D01*
X8730462Y-17065769D01*
X8739986Y-17027674D01*
X8749510Y-17008626D01*
X8759033Y-16999102D01*
X8778081Y-16989578D01*
X8930462Y-17189578D02*
X8930462Y-17056245D01*
X8930462Y-17075293D02*
X8939986Y-17065769D01*
X8959033Y-17056245D01*
X8987605Y-17056245D01*
X9006652Y-17065769D01*
X9016176Y-17084817D01*
X9016176Y-17189578D01*
X9016176Y-17084817D02*
X9025700Y-17065769D01*
X9044748Y-17056245D01*
X9073319Y-17056245D01*
X9092367Y-17065769D01*
X9101890Y-17084817D01*
X9101890Y-17189578D01*
X9197129Y-17189578D02*
X9197129Y-17056245D01*
X9197129Y-17075293D02*
X9206652Y-17065769D01*
X9225700Y-17056245D01*
X9254271Y-17056245D01*
X9273319Y-17065769D01*
X9282843Y-17084817D01*
X9282843Y-17189578D01*
X9282843Y-17084817D02*
X9292367Y-17065769D01*
X9311414Y-17056245D01*
X9339986Y-17056245D01*
X9359033Y-17065769D01*
X9368557Y-17084817D01*
X9368557Y-17189578D01*
X9759033Y-16980055D02*
X9587605Y-17237198D01*
X10016176Y-16989578D02*
X10035224Y-16989578D01*
X10054271Y-16999102D01*
X10063795Y-17008626D01*
X10073319Y-17027674D01*
X10082843Y-17065769D01*
X10082843Y-17113388D01*
X10073319Y-17151483D01*
X10063795Y-17170531D01*
X10054271Y-17180055D01*
X10035224Y-17189578D01*
X10016176Y-17189578D01*
X9997129Y-17180055D01*
X9987605Y-17170531D01*
X9978081Y-17151483D01*
X9968557Y-17113388D01*
X9968557Y-17065769D01*
X9978081Y-17027674D01*
X9987605Y-17008626D01*
X9997129Y-16999102D01*
X10016176Y-16989578D01*
X10168557Y-17170531D02*
X10178081Y-17180055D01*
X10168557Y-17189578D01*
X10159033Y-17180055D01*
X10168557Y-17170531D01*
X10168557Y-17189578D01*
X10301890Y-16989578D02*
X10320938Y-16989578D01*
X10339986Y-16999102D01*
X10349510Y-17008626D01*
X10359033Y-17027674D01*
X10368557Y-17065769D01*
X10368557Y-17113388D01*
X10359033Y-17151483D01*
X10349510Y-17170531D01*
X10339986Y-17180055D01*
X10320938Y-17189578D01*
X10301890Y-17189578D01*
X10282843Y-17180055D01*
X10273319Y-17170531D01*
X10263795Y-17151483D01*
X10254271Y-17113388D01*
X10254271Y-17065769D01*
X10263795Y-17027674D01*
X10273319Y-17008626D01*
X10282843Y-16999102D01*
X10301890Y-16989578D01*
X10539986Y-17056245D02*
X10539986Y-17189578D01*
X10492367Y-16980055D02*
X10444748Y-17122912D01*
X10568557Y-17122912D01*
X10625700Y-16989578D02*
X10759033Y-16989578D01*
X10673319Y-17189578D01*
X10825700Y-17008626D02*
X10835224Y-16999102D01*
X10854271Y-16989578D01*
X10901890Y-16989578D01*
X10920938Y-16999102D01*
X10930462Y-17008626D01*
X10939986Y-17027674D01*
X10939986Y-17046721D01*
X10930462Y-17075293D01*
X10816176Y-17189578D01*
X10939986Y-17189578D01*
X11016176Y-16989578D02*
X11016176Y-17027674D01*
X11092367Y-16989578D02*
X11092367Y-17027674D01*
X11387605Y-17265769D02*
X11378081Y-17256245D01*
X11359033Y-17227674D01*
X11349509Y-17208626D01*
X11339986Y-17180055D01*
X11330462Y-17132436D01*
X11330462Y-17094340D01*
X11339986Y-17046721D01*
X11349509Y-17018150D01*
X11359033Y-16999102D01*
X11378081Y-16970531D01*
X11387605Y-16961007D01*
X11549509Y-17056245D02*
X11549509Y-17189578D01*
X11501890Y-16980055D02*
X11454271Y-17122912D01*
X11578081Y-17122912D01*
X11806652Y-17189578D02*
X11806652Y-16989578D01*
X11892367Y-17189578D02*
X11892367Y-17084817D01*
X11882843Y-17065769D01*
X11863795Y-17056245D01*
X11835224Y-17056245D01*
X11816176Y-17065769D01*
X11806652Y-17075293D01*
X12016176Y-17189578D02*
X11997128Y-17180055D01*
X11987605Y-17170531D01*
X11978081Y-17151483D01*
X11978081Y-17094340D01*
X11987605Y-17075293D01*
X11997128Y-17065769D01*
X12016176Y-17056245D01*
X12044748Y-17056245D01*
X12063795Y-17065769D01*
X12073319Y-17075293D01*
X12082843Y-17094340D01*
X12082843Y-17151483D01*
X12073319Y-17170531D01*
X12063795Y-17180055D01*
X12044748Y-17189578D01*
X12016176Y-17189578D01*
X12197128Y-17189578D02*
X12178081Y-17180055D01*
X12168557Y-17161007D01*
X12168557Y-16989578D01*
X12349509Y-17180055D02*
X12330462Y-17189578D01*
X12292367Y-17189578D01*
X12273319Y-17180055D01*
X12263795Y-17161007D01*
X12263795Y-17084817D01*
X12273319Y-17065769D01*
X12292367Y-17056245D01*
X12330462Y-17056245D01*
X12349509Y-17065769D01*
X12359033Y-17084817D01*
X12359033Y-17103864D01*
X12263795Y-17122912D01*
X12435224Y-17180055D02*
X12454271Y-17189578D01*
X12492367Y-17189578D01*
X12511414Y-17180055D01*
X12520938Y-17161007D01*
X12520938Y-17151483D01*
X12511414Y-17132436D01*
X12492367Y-17122912D01*
X12463795Y-17122912D01*
X12444748Y-17113388D01*
X12435224Y-17094340D01*
X12435224Y-17084817D01*
X12444748Y-17065769D01*
X12463795Y-17056245D01*
X12492367Y-17056245D01*
X12511414Y-17065769D01*
X12587605Y-17265769D02*
X12597128Y-17256245D01*
X12616176Y-17227674D01*
X12625700Y-17208626D01*
X12635224Y-17180055D01*
X12644748Y-17132436D01*
X12644748Y-17094340D01*
X12635224Y-17046721D01*
X12625700Y-17018150D01*
X12616176Y-16999102D01*
X12597128Y-16970531D01*
X12587605Y-16961007D01*
X12949509Y-17265769D02*
X12939986Y-17256245D01*
X12920938Y-17227674D01*
X12911414Y-17208626D01*
X12901890Y-17180055D01*
X12892367Y-17132436D01*
X12892367Y-17094340D01*
X12901890Y-17046721D01*
X12911414Y-17018150D01*
X12920938Y-16999102D01*
X12939986Y-16970531D01*
X12949509Y-16961007D01*
X13025700Y-17056245D02*
X13025700Y-17189578D01*
X13025700Y-17075293D02*
X13035224Y-17065769D01*
X13054271Y-17056245D01*
X13082843Y-17056245D01*
X13101890Y-17065769D01*
X13111414Y-17084817D01*
X13111414Y-17189578D01*
X13235224Y-17189578D02*
X13216176Y-17180055D01*
X13206652Y-17170531D01*
X13197128Y-17151483D01*
X13197128Y-17094340D01*
X13206652Y-17075293D01*
X13216176Y-17065769D01*
X13235224Y-17056245D01*
X13263795Y-17056245D01*
X13282843Y-17065769D01*
X13292367Y-17075293D01*
X13301890Y-17094340D01*
X13301890Y-17151483D01*
X13292367Y-17170531D01*
X13282843Y-17180055D01*
X13263795Y-17189578D01*
X13235224Y-17189578D01*
X13359033Y-17056245D02*
X13435224Y-17056245D01*
X13387605Y-16989578D02*
X13387605Y-17161007D01*
X13397128Y-17180055D01*
X13416176Y-17189578D01*
X13435224Y-17189578D01*
X13654271Y-17056245D02*
X13654271Y-17256245D01*
X13654271Y-17065769D02*
X13673319Y-17056245D01*
X13711414Y-17056245D01*
X13730462Y-17065769D01*
X13739986Y-17075293D01*
X13749509Y-17094340D01*
X13749509Y-17151483D01*
X13739986Y-17170531D01*
X13730462Y-17180055D01*
X13711414Y-17189578D01*
X13673319Y-17189578D01*
X13654271Y-17180055D01*
X13863795Y-17189578D02*
X13844748Y-17180055D01*
X13835224Y-17161007D01*
X13835224Y-16989578D01*
X14025700Y-17189578D02*
X14025700Y-17084817D01*
X14016176Y-17065769D01*
X13997128Y-17056245D01*
X13959033Y-17056245D01*
X13939986Y-17065769D01*
X14025700Y-17180055D02*
X14006652Y-17189578D01*
X13959033Y-17189578D01*
X13939986Y-17180055D01*
X13930462Y-17161007D01*
X13930462Y-17141959D01*
X13939986Y-17122912D01*
X13959033Y-17113388D01*
X14006652Y-17113388D01*
X14025700Y-17103864D01*
X14092367Y-17056245D02*
X14168557Y-17056245D01*
X14120938Y-16989578D02*
X14120938Y-17161007D01*
X14130462Y-17180055D01*
X14149509Y-17189578D01*
X14168557Y-17189578D01*
X14311414Y-17180055D02*
X14292367Y-17189578D01*
X14254271Y-17189578D01*
X14235224Y-17180055D01*
X14225700Y-17161007D01*
X14225700Y-17084817D01*
X14235224Y-17065769D01*
X14254271Y-17056245D01*
X14292367Y-17056245D01*
X14311414Y-17065769D01*
X14320938Y-17084817D01*
X14320938Y-17103864D01*
X14225700Y-17122912D01*
X14492367Y-17189578D02*
X14492367Y-16989578D01*
X14492367Y-17180055D02*
X14473319Y-17189578D01*
X14435224Y-17189578D01*
X14416176Y-17180055D01*
X14406652Y-17170531D01*
X14397128Y-17151483D01*
X14397128Y-17094340D01*
X14406652Y-17075293D01*
X14416176Y-17065769D01*
X14435224Y-17056245D01*
X14473319Y-17056245D01*
X14492367Y-17065769D01*
X14568557Y-17265769D02*
X14578081Y-17256245D01*
X14597128Y-17227674D01*
X14606652Y-17208626D01*
X14616176Y-17180055D01*
X14625700Y-17132436D01*
X14625700Y-17094340D01*
X14616176Y-17046721D01*
X14606652Y-17018150D01*
X14597128Y-16999102D01*
X14578081Y-16970531D01*
X14568557Y-16961007D01*
D13*
X7815700Y-17363102D02*
G75*
G03*
X7815700Y-17363102I-85000J0D01*
G01*
D11*
X8178081Y-17453578D02*
X8063795Y-17453578D01*
X8120938Y-17453578D02*
X8120938Y-17253578D01*
X8101890Y-17282150D01*
X8082843Y-17301198D01*
X8063795Y-17310721D01*
X8263795Y-17434531D02*
X8273319Y-17444055D01*
X8263795Y-17453578D01*
X8254271Y-17444055D01*
X8263795Y-17434531D01*
X8263795Y-17453578D01*
X8339986Y-17253578D02*
X8473319Y-17253578D01*
X8387605Y-17453578D01*
X8587605Y-17253578D02*
X8606652Y-17253578D01*
X8625700Y-17263102D01*
X8635224Y-17272626D01*
X8644748Y-17291674D01*
X8654271Y-17329769D01*
X8654271Y-17377388D01*
X8644748Y-17415483D01*
X8635224Y-17434531D01*
X8625700Y-17444055D01*
X8606652Y-17453578D01*
X8587605Y-17453578D01*
X8568557Y-17444055D01*
X8559033Y-17434531D01*
X8549510Y-17415483D01*
X8539986Y-17377388D01*
X8539986Y-17329769D01*
X8549510Y-17291674D01*
X8559033Y-17272626D01*
X8568557Y-17263102D01*
X8587605Y-17253578D01*
X8778081Y-17253578D02*
X8797129Y-17253578D01*
X8816176Y-17263102D01*
X8825700Y-17272626D01*
X8835224Y-17291674D01*
X8844748Y-17329769D01*
X8844748Y-17377388D01*
X8835224Y-17415483D01*
X8825700Y-17434531D01*
X8816176Y-17444055D01*
X8797129Y-17453578D01*
X8778081Y-17453578D01*
X8759033Y-17444055D01*
X8749510Y-17434531D01*
X8739986Y-17415483D01*
X8730462Y-17377388D01*
X8730462Y-17329769D01*
X8739986Y-17291674D01*
X8749510Y-17272626D01*
X8759033Y-17263102D01*
X8778081Y-17253578D01*
X8930462Y-17453578D02*
X8930462Y-17320245D01*
X8930462Y-17339293D02*
X8939986Y-17329769D01*
X8959033Y-17320245D01*
X8987605Y-17320245D01*
X9006652Y-17329769D01*
X9016176Y-17348817D01*
X9016176Y-17453578D01*
X9016176Y-17348817D02*
X9025700Y-17329769D01*
X9044748Y-17320245D01*
X9073319Y-17320245D01*
X9092367Y-17329769D01*
X9101890Y-17348817D01*
X9101890Y-17453578D01*
X9197129Y-17453578D02*
X9197129Y-17320245D01*
X9197129Y-17339293D02*
X9206652Y-17329769D01*
X9225700Y-17320245D01*
X9254271Y-17320245D01*
X9273319Y-17329769D01*
X9282843Y-17348817D01*
X9282843Y-17453578D01*
X9282843Y-17348817D02*
X9292367Y-17329769D01*
X9311414Y-17320245D01*
X9339986Y-17320245D01*
X9359033Y-17329769D01*
X9368557Y-17348817D01*
X9368557Y-17453578D01*
X9759033Y-17244055D02*
X9587605Y-17501198D01*
X10016176Y-17253578D02*
X10035224Y-17253578D01*
X10054271Y-17263102D01*
X10063795Y-17272626D01*
X10073319Y-17291674D01*
X10082843Y-17329769D01*
X10082843Y-17377388D01*
X10073319Y-17415483D01*
X10063795Y-17434531D01*
X10054271Y-17444055D01*
X10035224Y-17453578D01*
X10016176Y-17453578D01*
X9997129Y-17444055D01*
X9987605Y-17434531D01*
X9978081Y-17415483D01*
X9968557Y-17377388D01*
X9968557Y-17329769D01*
X9978081Y-17291674D01*
X9987605Y-17272626D01*
X9997129Y-17263102D01*
X10016176Y-17253578D01*
X10168557Y-17434531D02*
X10178081Y-17444055D01*
X10168557Y-17453578D01*
X10159033Y-17444055D01*
X10168557Y-17434531D01*
X10168557Y-17453578D01*
X10301890Y-17253578D02*
X10320938Y-17253578D01*
X10339986Y-17263102D01*
X10349510Y-17272626D01*
X10359033Y-17291674D01*
X10368557Y-17329769D01*
X10368557Y-17377388D01*
X10359033Y-17415483D01*
X10349510Y-17434531D01*
X10339986Y-17444055D01*
X10320938Y-17453578D01*
X10301890Y-17453578D01*
X10282843Y-17444055D01*
X10273319Y-17434531D01*
X10263795Y-17415483D01*
X10254271Y-17377388D01*
X10254271Y-17329769D01*
X10263795Y-17291674D01*
X10273319Y-17272626D01*
X10282843Y-17263102D01*
X10301890Y-17253578D01*
X10539986Y-17253578D02*
X10501890Y-17253578D01*
X10482843Y-17263102D01*
X10473319Y-17272626D01*
X10454271Y-17301198D01*
X10444748Y-17339293D01*
X10444748Y-17415483D01*
X10454271Y-17434531D01*
X10463795Y-17444055D01*
X10482843Y-17453578D01*
X10520938Y-17453578D01*
X10539986Y-17444055D01*
X10549510Y-17434531D01*
X10559033Y-17415483D01*
X10559033Y-17367864D01*
X10549510Y-17348817D01*
X10539986Y-17339293D01*
X10520938Y-17329769D01*
X10482843Y-17329769D01*
X10463795Y-17339293D01*
X10454271Y-17348817D01*
X10444748Y-17367864D01*
X10730462Y-17253578D02*
X10692367Y-17253578D01*
X10673319Y-17263102D01*
X10663795Y-17272626D01*
X10644748Y-17301198D01*
X10635224Y-17339293D01*
X10635224Y-17415483D01*
X10644748Y-17434531D01*
X10654271Y-17444055D01*
X10673319Y-17453578D01*
X10711414Y-17453578D01*
X10730462Y-17444055D01*
X10739986Y-17434531D01*
X10749510Y-17415483D01*
X10749510Y-17367864D01*
X10739986Y-17348817D01*
X10730462Y-17339293D01*
X10711414Y-17329769D01*
X10673319Y-17329769D01*
X10654271Y-17339293D01*
X10644748Y-17348817D01*
X10635224Y-17367864D01*
X10844748Y-17453578D02*
X10882843Y-17453578D01*
X10901890Y-17444055D01*
X10911414Y-17434531D01*
X10930462Y-17405959D01*
X10939986Y-17367864D01*
X10939986Y-17291674D01*
X10930462Y-17272626D01*
X10920938Y-17263102D01*
X10901890Y-17253578D01*
X10863795Y-17253578D01*
X10844748Y-17263102D01*
X10835224Y-17272626D01*
X10825700Y-17291674D01*
X10825700Y-17339293D01*
X10835224Y-17358340D01*
X10844748Y-17367864D01*
X10863795Y-17377388D01*
X10901890Y-17377388D01*
X10920938Y-17367864D01*
X10930462Y-17358340D01*
X10939986Y-17339293D01*
X11016176Y-17253578D02*
X11016176Y-17291674D01*
X11092367Y-17253578D02*
X11092367Y-17291674D01*
X11387605Y-17529769D02*
X11378081Y-17520245D01*
X11359033Y-17491674D01*
X11349509Y-17472626D01*
X11339986Y-17444055D01*
X11330462Y-17396436D01*
X11330462Y-17358340D01*
X11339986Y-17310721D01*
X11349509Y-17282150D01*
X11359033Y-17263102D01*
X11378081Y-17234531D01*
X11387605Y-17225007D01*
X11444748Y-17253578D02*
X11578081Y-17253578D01*
X11492367Y-17453578D01*
X11682843Y-17339293D02*
X11663795Y-17329769D01*
X11654271Y-17320245D01*
X11644748Y-17301198D01*
X11644748Y-17291674D01*
X11654271Y-17272626D01*
X11663795Y-17263102D01*
X11682843Y-17253578D01*
X11720938Y-17253578D01*
X11739986Y-17263102D01*
X11749509Y-17272626D01*
X11759033Y-17291674D01*
X11759033Y-17301198D01*
X11749509Y-17320245D01*
X11739986Y-17329769D01*
X11720938Y-17339293D01*
X11682843Y-17339293D01*
X11663795Y-17348817D01*
X11654271Y-17358340D01*
X11644748Y-17377388D01*
X11644748Y-17415483D01*
X11654271Y-17434531D01*
X11663795Y-17444055D01*
X11682843Y-17453578D01*
X11720938Y-17453578D01*
X11739986Y-17444055D01*
X11749509Y-17434531D01*
X11759033Y-17415483D01*
X11759033Y-17377388D01*
X11749509Y-17358340D01*
X11739986Y-17348817D01*
X11720938Y-17339293D01*
X11997128Y-17453578D02*
X11997128Y-17253578D01*
X12082843Y-17453578D02*
X12082843Y-17348817D01*
X12073319Y-17329769D01*
X12054271Y-17320245D01*
X12025700Y-17320245D01*
X12006652Y-17329769D01*
X11997128Y-17339293D01*
X12206652Y-17453578D02*
X12187605Y-17444055D01*
X12178081Y-17434531D01*
X12168557Y-17415483D01*
X12168557Y-17358340D01*
X12178081Y-17339293D01*
X12187605Y-17329769D01*
X12206652Y-17320245D01*
X12235224Y-17320245D01*
X12254271Y-17329769D01*
X12263795Y-17339293D01*
X12273319Y-17358340D01*
X12273319Y-17415483D01*
X12263795Y-17434531D01*
X12254271Y-17444055D01*
X12235224Y-17453578D01*
X12206652Y-17453578D01*
X12387605Y-17453578D02*
X12368557Y-17444055D01*
X12359033Y-17425007D01*
X12359033Y-17253578D01*
X12539986Y-17444055D02*
X12520938Y-17453578D01*
X12482843Y-17453578D01*
X12463795Y-17444055D01*
X12454271Y-17425007D01*
X12454271Y-17348817D01*
X12463795Y-17329769D01*
X12482843Y-17320245D01*
X12520938Y-17320245D01*
X12539986Y-17329769D01*
X12549509Y-17348817D01*
X12549509Y-17367864D01*
X12454271Y-17386912D01*
X12625700Y-17444055D02*
X12644748Y-17453578D01*
X12682843Y-17453578D01*
X12701890Y-17444055D01*
X12711414Y-17425007D01*
X12711414Y-17415483D01*
X12701890Y-17396436D01*
X12682843Y-17386912D01*
X12654271Y-17386912D01*
X12635224Y-17377388D01*
X12625700Y-17358340D01*
X12625700Y-17348817D01*
X12635224Y-17329769D01*
X12654271Y-17320245D01*
X12682843Y-17320245D01*
X12701890Y-17329769D01*
X12778081Y-17529769D02*
X12787605Y-17520245D01*
X12806652Y-17491674D01*
X12816176Y-17472626D01*
X12825700Y-17444055D01*
X12835224Y-17396436D01*
X12835224Y-17358340D01*
X12825700Y-17310721D01*
X12816176Y-17282150D01*
X12806652Y-17263102D01*
X12787605Y-17234531D01*
X12778081Y-17225007D01*
X13139986Y-17529769D02*
X13130462Y-17520245D01*
X13111414Y-17491674D01*
X13101890Y-17472626D01*
X13092367Y-17444055D01*
X13082843Y-17396436D01*
X13082843Y-17358340D01*
X13092367Y-17310721D01*
X13101890Y-17282150D01*
X13111414Y-17263102D01*
X13130462Y-17234531D01*
X13139986Y-17225007D01*
X13216176Y-17320245D02*
X13216176Y-17453578D01*
X13216176Y-17339293D02*
X13225700Y-17329769D01*
X13244748Y-17320245D01*
X13273319Y-17320245D01*
X13292367Y-17329769D01*
X13301890Y-17348817D01*
X13301890Y-17453578D01*
X13425700Y-17453578D02*
X13406652Y-17444055D01*
X13397128Y-17434531D01*
X13387605Y-17415483D01*
X13387605Y-17358340D01*
X13397128Y-17339293D01*
X13406652Y-17329769D01*
X13425700Y-17320245D01*
X13454271Y-17320245D01*
X13473319Y-17329769D01*
X13482843Y-17339293D01*
X13492367Y-17358340D01*
X13492367Y-17415483D01*
X13482843Y-17434531D01*
X13473319Y-17444055D01*
X13454271Y-17453578D01*
X13425700Y-17453578D01*
X13549509Y-17320245D02*
X13625700Y-17320245D01*
X13578081Y-17253578D02*
X13578081Y-17425007D01*
X13587605Y-17444055D01*
X13606652Y-17453578D01*
X13625700Y-17453578D01*
X13844748Y-17320245D02*
X13844748Y-17520245D01*
X13844748Y-17329769D02*
X13863795Y-17320245D01*
X13901890Y-17320245D01*
X13920938Y-17329769D01*
X13930462Y-17339293D01*
X13939986Y-17358340D01*
X13939986Y-17415483D01*
X13930462Y-17434531D01*
X13920938Y-17444055D01*
X13901890Y-17453578D01*
X13863795Y-17453578D01*
X13844748Y-17444055D01*
X14054271Y-17453578D02*
X14035224Y-17444055D01*
X14025700Y-17425007D01*
X14025700Y-17253578D01*
X14216176Y-17453578D02*
X14216176Y-17348817D01*
X14206652Y-17329769D01*
X14187605Y-17320245D01*
X14149509Y-17320245D01*
X14130462Y-17329769D01*
X14216176Y-17444055D02*
X14197128Y-17453578D01*
X14149509Y-17453578D01*
X14130462Y-17444055D01*
X14120938Y-17425007D01*
X14120938Y-17405959D01*
X14130462Y-17386912D01*
X14149509Y-17377388D01*
X14197128Y-17377388D01*
X14216176Y-17367864D01*
X14282843Y-17320245D02*
X14359033Y-17320245D01*
X14311414Y-17253578D02*
X14311414Y-17425007D01*
X14320938Y-17444055D01*
X14339986Y-17453578D01*
X14359033Y-17453578D01*
X14501890Y-17444055D02*
X14482843Y-17453578D01*
X14444748Y-17453578D01*
X14425700Y-17444055D01*
X14416176Y-17425007D01*
X14416176Y-17348817D01*
X14425700Y-17329769D01*
X14444748Y-17320245D01*
X14482843Y-17320245D01*
X14501890Y-17329769D01*
X14511414Y-17348817D01*
X14511414Y-17367864D01*
X14416176Y-17386912D01*
X14682843Y-17453578D02*
X14682843Y-17253578D01*
X14682843Y-17444055D02*
X14663795Y-17453578D01*
X14625700Y-17453578D01*
X14606652Y-17444055D01*
X14597128Y-17434531D01*
X14587605Y-17415483D01*
X14587605Y-17358340D01*
X14597128Y-17339293D01*
X14606652Y-17329769D01*
X14625700Y-17320245D01*
X14663795Y-17320245D01*
X14682843Y-17329769D01*
X14759033Y-17529769D02*
X14768557Y-17520245D01*
X14787605Y-17491674D01*
X14797128Y-17472626D01*
X14806652Y-17444055D01*
X14816176Y-17396436D01*
X14816176Y-17358340D01*
X14806652Y-17310721D01*
X14797128Y-17282150D01*
X14787605Y-17263102D01*
X14768557Y-17234531D01*
X14759033Y-17225007D01*
D14*
X7720700Y-17558102D02*
X7720700Y-17748102D01*
X7625700Y-17653102D02*
X7815700Y-17653102D01*
D11*
X8178081Y-17743578D02*
X8063795Y-17743578D01*
X8120938Y-17743578D02*
X8120938Y-17543578D01*
X8101890Y-17572150D01*
X8082843Y-17591198D01*
X8063795Y-17600721D01*
X8263795Y-17724531D02*
X8273319Y-17734055D01*
X8263795Y-17743578D01*
X8254271Y-17734055D01*
X8263795Y-17724531D01*
X8263795Y-17743578D01*
X8368557Y-17743578D02*
X8406652Y-17743578D01*
X8425700Y-17734055D01*
X8435224Y-17724531D01*
X8454271Y-17695959D01*
X8463795Y-17657864D01*
X8463795Y-17581674D01*
X8454271Y-17562626D01*
X8444748Y-17553102D01*
X8425700Y-17543578D01*
X8387605Y-17543578D01*
X8368557Y-17553102D01*
X8359033Y-17562626D01*
X8349509Y-17581674D01*
X8349509Y-17629293D01*
X8359033Y-17648340D01*
X8368557Y-17657864D01*
X8387605Y-17667388D01*
X8425700Y-17667388D01*
X8444748Y-17657864D01*
X8454271Y-17648340D01*
X8463795Y-17629293D01*
X8587605Y-17543578D02*
X8606652Y-17543578D01*
X8625700Y-17553102D01*
X8635224Y-17562626D01*
X8644748Y-17581674D01*
X8654271Y-17619769D01*
X8654271Y-17667388D01*
X8644748Y-17705483D01*
X8635224Y-17724531D01*
X8625700Y-17734055D01*
X8606652Y-17743578D01*
X8587605Y-17743578D01*
X8568557Y-17734055D01*
X8559033Y-17724531D01*
X8549510Y-17705483D01*
X8539986Y-17667388D01*
X8539986Y-17619769D01*
X8549510Y-17581674D01*
X8559033Y-17562626D01*
X8568557Y-17553102D01*
X8587605Y-17543578D01*
X8778081Y-17543578D02*
X8797129Y-17543578D01*
X8816176Y-17553102D01*
X8825700Y-17562626D01*
X8835224Y-17581674D01*
X8844748Y-17619769D01*
X8844748Y-17667388D01*
X8835224Y-17705483D01*
X8825700Y-17724531D01*
X8816176Y-17734055D01*
X8797129Y-17743578D01*
X8778081Y-17743578D01*
X8759033Y-17734055D01*
X8749510Y-17724531D01*
X8739986Y-17705483D01*
X8730462Y-17667388D01*
X8730462Y-17619769D01*
X8739986Y-17581674D01*
X8749510Y-17562626D01*
X8759033Y-17553102D01*
X8778081Y-17543578D01*
X8930462Y-17743578D02*
X8930462Y-17610245D01*
X8930462Y-17629293D02*
X8939986Y-17619769D01*
X8959033Y-17610245D01*
X8987605Y-17610245D01*
X9006652Y-17619769D01*
X9016176Y-17638817D01*
X9016176Y-17743578D01*
X9016176Y-17638817D02*
X9025700Y-17619769D01*
X9044748Y-17610245D01*
X9073319Y-17610245D01*
X9092367Y-17619769D01*
X9101890Y-17638817D01*
X9101890Y-17743578D01*
X9197129Y-17743578D02*
X9197129Y-17610245D01*
X9197129Y-17629293D02*
X9206652Y-17619769D01*
X9225700Y-17610245D01*
X9254271Y-17610245D01*
X9273319Y-17619769D01*
X9282843Y-17638817D01*
X9282843Y-17743578D01*
X9282843Y-17638817D02*
X9292367Y-17619769D01*
X9311414Y-17610245D01*
X9339986Y-17610245D01*
X9359033Y-17619769D01*
X9368557Y-17638817D01*
X9368557Y-17743578D01*
X9759033Y-17534055D02*
X9587605Y-17791198D01*
X10016176Y-17543578D02*
X10035224Y-17543578D01*
X10054271Y-17553102D01*
X10063795Y-17562626D01*
X10073319Y-17581674D01*
X10082843Y-17619769D01*
X10082843Y-17667388D01*
X10073319Y-17705483D01*
X10063795Y-17724531D01*
X10054271Y-17734055D01*
X10035224Y-17743578D01*
X10016176Y-17743578D01*
X9997129Y-17734055D01*
X9987605Y-17724531D01*
X9978081Y-17705483D01*
X9968557Y-17667388D01*
X9968557Y-17619769D01*
X9978081Y-17581674D01*
X9987605Y-17562626D01*
X9997129Y-17553102D01*
X10016176Y-17543578D01*
X10168557Y-17724531D02*
X10178081Y-17734055D01*
X10168557Y-17743578D01*
X10159033Y-17734055D01*
X10168557Y-17724531D01*
X10168557Y-17743578D01*
X10301890Y-17543578D02*
X10320938Y-17543578D01*
X10339986Y-17553102D01*
X10349510Y-17562626D01*
X10359033Y-17581674D01*
X10368557Y-17619769D01*
X10368557Y-17667388D01*
X10359033Y-17705483D01*
X10349510Y-17724531D01*
X10339986Y-17734055D01*
X10320938Y-17743578D01*
X10301890Y-17743578D01*
X10282843Y-17734055D01*
X10273319Y-17724531D01*
X10263795Y-17705483D01*
X10254271Y-17667388D01*
X10254271Y-17619769D01*
X10263795Y-17581674D01*
X10273319Y-17562626D01*
X10282843Y-17553102D01*
X10301890Y-17543578D01*
X10435224Y-17543578D02*
X10568557Y-17543578D01*
X10482843Y-17743578D01*
X10730462Y-17610245D02*
X10730462Y-17743578D01*
X10682843Y-17534055D02*
X10635224Y-17676912D01*
X10759033Y-17676912D01*
X10863795Y-17629293D02*
X10844748Y-17619769D01*
X10835224Y-17610245D01*
X10825700Y-17591198D01*
X10825700Y-17581674D01*
X10835224Y-17562626D01*
X10844748Y-17553102D01*
X10863795Y-17543578D01*
X10901890Y-17543578D01*
X10920938Y-17553102D01*
X10930462Y-17562626D01*
X10939986Y-17581674D01*
X10939986Y-17591198D01*
X10930462Y-17610245D01*
X10920938Y-17619769D01*
X10901890Y-17629293D01*
X10863795Y-17629293D01*
X10844748Y-17638817D01*
X10835224Y-17648340D01*
X10825700Y-17667388D01*
X10825700Y-17705483D01*
X10835224Y-17724531D01*
X10844748Y-17734055D01*
X10863795Y-17743578D01*
X10901890Y-17743578D01*
X10920938Y-17734055D01*
X10930462Y-17724531D01*
X10939986Y-17705483D01*
X10939986Y-17667388D01*
X10930462Y-17648340D01*
X10920938Y-17638817D01*
X10901890Y-17629293D01*
X11016176Y-17543578D02*
X11016176Y-17581674D01*
X11092367Y-17543578D02*
X11092367Y-17581674D01*
X11387605Y-17819769D02*
X11378081Y-17810245D01*
X11359033Y-17781674D01*
X11349509Y-17762626D01*
X11339986Y-17734055D01*
X11330462Y-17686436D01*
X11330462Y-17648340D01*
X11339986Y-17600721D01*
X11349509Y-17572150D01*
X11359033Y-17553102D01*
X11378081Y-17524531D01*
X11387605Y-17515007D01*
X11549509Y-17610245D02*
X11549509Y-17743578D01*
X11501890Y-17534055D02*
X11454271Y-17676912D01*
X11578081Y-17676912D01*
X11806652Y-17743578D02*
X11806652Y-17543578D01*
X11892367Y-17743578D02*
X11892367Y-17638817D01*
X11882843Y-17619769D01*
X11863795Y-17610245D01*
X11835224Y-17610245D01*
X11816176Y-17619769D01*
X11806652Y-17629293D01*
X12016176Y-17743578D02*
X11997128Y-17734055D01*
X11987605Y-17724531D01*
X11978081Y-17705483D01*
X11978081Y-17648340D01*
X11987605Y-17629293D01*
X11997128Y-17619769D01*
X12016176Y-17610245D01*
X12044748Y-17610245D01*
X12063795Y-17619769D01*
X12073319Y-17629293D01*
X12082843Y-17648340D01*
X12082843Y-17705483D01*
X12073319Y-17724531D01*
X12063795Y-17734055D01*
X12044748Y-17743578D01*
X12016176Y-17743578D01*
X12197128Y-17743578D02*
X12178081Y-17734055D01*
X12168557Y-17715007D01*
X12168557Y-17543578D01*
X12349509Y-17734055D02*
X12330462Y-17743578D01*
X12292367Y-17743578D01*
X12273319Y-17734055D01*
X12263795Y-17715007D01*
X12263795Y-17638817D01*
X12273319Y-17619769D01*
X12292367Y-17610245D01*
X12330462Y-17610245D01*
X12349509Y-17619769D01*
X12359033Y-17638817D01*
X12359033Y-17657864D01*
X12263795Y-17676912D01*
X12435224Y-17734055D02*
X12454271Y-17743578D01*
X12492367Y-17743578D01*
X12511414Y-17734055D01*
X12520938Y-17715007D01*
X12520938Y-17705483D01*
X12511414Y-17686436D01*
X12492367Y-17676912D01*
X12463795Y-17676912D01*
X12444748Y-17667388D01*
X12435224Y-17648340D01*
X12435224Y-17638817D01*
X12444748Y-17619769D01*
X12463795Y-17610245D01*
X12492367Y-17610245D01*
X12511414Y-17619769D01*
X12587605Y-17819769D02*
X12597128Y-17810245D01*
X12616176Y-17781674D01*
X12625700Y-17762626D01*
X12635224Y-17734055D01*
X12644748Y-17686436D01*
X12644748Y-17648340D01*
X12635224Y-17600721D01*
X12625700Y-17572150D01*
X12616176Y-17553102D01*
X12597128Y-17524531D01*
X12587605Y-17515007D01*
X12949509Y-17819769D02*
X12939986Y-17810245D01*
X12920938Y-17781674D01*
X12911414Y-17762626D01*
X12901890Y-17734055D01*
X12892367Y-17686436D01*
X12892367Y-17648340D01*
X12901890Y-17600721D01*
X12911414Y-17572150D01*
X12920938Y-17553102D01*
X12939986Y-17524531D01*
X12949509Y-17515007D01*
X13025700Y-17610245D02*
X13025700Y-17743578D01*
X13025700Y-17629293D02*
X13035224Y-17619769D01*
X13054271Y-17610245D01*
X13082843Y-17610245D01*
X13101890Y-17619769D01*
X13111414Y-17638817D01*
X13111414Y-17743578D01*
X13235224Y-17743578D02*
X13216176Y-17734055D01*
X13206652Y-17724531D01*
X13197128Y-17705483D01*
X13197128Y-17648340D01*
X13206652Y-17629293D01*
X13216176Y-17619769D01*
X13235224Y-17610245D01*
X13263795Y-17610245D01*
X13282843Y-17619769D01*
X13292367Y-17629293D01*
X13301890Y-17648340D01*
X13301890Y-17705483D01*
X13292367Y-17724531D01*
X13282843Y-17734055D01*
X13263795Y-17743578D01*
X13235224Y-17743578D01*
X13359033Y-17610245D02*
X13435224Y-17610245D01*
X13387605Y-17543578D02*
X13387605Y-17715007D01*
X13397128Y-17734055D01*
X13416176Y-17743578D01*
X13435224Y-17743578D01*
X13654271Y-17610245D02*
X13654271Y-17810245D01*
X13654271Y-17619769D02*
X13673319Y-17610245D01*
X13711414Y-17610245D01*
X13730462Y-17619769D01*
X13739986Y-17629293D01*
X13749509Y-17648340D01*
X13749509Y-17705483D01*
X13739986Y-17724531D01*
X13730462Y-17734055D01*
X13711414Y-17743578D01*
X13673319Y-17743578D01*
X13654271Y-17734055D01*
X13863795Y-17743578D02*
X13844748Y-17734055D01*
X13835224Y-17715007D01*
X13835224Y-17543578D01*
X14025700Y-17743578D02*
X14025700Y-17638817D01*
X14016176Y-17619769D01*
X13997128Y-17610245D01*
X13959033Y-17610245D01*
X13939986Y-17619769D01*
X14025700Y-17734055D02*
X14006652Y-17743578D01*
X13959033Y-17743578D01*
X13939986Y-17734055D01*
X13930462Y-17715007D01*
X13930462Y-17695959D01*
X13939986Y-17676912D01*
X13959033Y-17667388D01*
X14006652Y-17667388D01*
X14025700Y-17657864D01*
X14092367Y-17610245D02*
X14168557Y-17610245D01*
X14120938Y-17543578D02*
X14120938Y-17715007D01*
X14130462Y-17734055D01*
X14149509Y-17743578D01*
X14168557Y-17743578D01*
X14311414Y-17734055D02*
X14292367Y-17743578D01*
X14254271Y-17743578D01*
X14235224Y-17734055D01*
X14225700Y-17715007D01*
X14225700Y-17638817D01*
X14235224Y-17619769D01*
X14254271Y-17610245D01*
X14292367Y-17610245D01*
X14311414Y-17619769D01*
X14320938Y-17638817D01*
X14320938Y-17657864D01*
X14225700Y-17676912D01*
X14492367Y-17743578D02*
X14492367Y-17543578D01*
X14492367Y-17734055D02*
X14473319Y-17743578D01*
X14435224Y-17743578D01*
X14416176Y-17734055D01*
X14406652Y-17724531D01*
X14397128Y-17705483D01*
X14397128Y-17648340D01*
X14406652Y-17629293D01*
X14416176Y-17619769D01*
X14435224Y-17610245D01*
X14473319Y-17610245D01*
X14492367Y-17619769D01*
X14568557Y-17819769D02*
X14578081Y-17810245D01*
X14597128Y-17781674D01*
X14606652Y-17762626D01*
X14616176Y-17734055D01*
X14625700Y-17686436D01*
X14625700Y-17648340D01*
X14616176Y-17600721D01*
X14606652Y-17572150D01*
X14597128Y-17553102D01*
X14578081Y-17524531D01*
X14568557Y-17515007D01*
X7786411Y-18033814D02*
X7786411Y-17892391D01*
X7644989Y-17892391D01*
X7644989Y-18033814D01*
X7786411Y-18033814D01*
X8054271Y-17853578D02*
X8178081Y-17853578D01*
X8111414Y-17929769D01*
X8139986Y-17929769D01*
X8159033Y-17939293D01*
X8168557Y-17948817D01*
X8178081Y-17967864D01*
X8178081Y-18015483D01*
X8168557Y-18034531D01*
X8159033Y-18044055D01*
X8139986Y-18053578D01*
X8082843Y-18053578D01*
X8063795Y-18044055D01*
X8054271Y-18034531D01*
X8263795Y-18034531D02*
X8273319Y-18044055D01*
X8263795Y-18053578D01*
X8254271Y-18044055D01*
X8263795Y-18034531D01*
X8263795Y-18053578D01*
X8397129Y-17853578D02*
X8416176Y-17853578D01*
X8435224Y-17863102D01*
X8444748Y-17872626D01*
X8454271Y-17891674D01*
X8463795Y-17929769D01*
X8463795Y-17977388D01*
X8454271Y-18015483D01*
X8444748Y-18034531D01*
X8435224Y-18044055D01*
X8416176Y-18053578D01*
X8397129Y-18053578D01*
X8378081Y-18044055D01*
X8368557Y-18034531D01*
X8359033Y-18015483D01*
X8349509Y-17977388D01*
X8349509Y-17929769D01*
X8359033Y-17891674D01*
X8368557Y-17872626D01*
X8378081Y-17863102D01*
X8397129Y-17853578D01*
X8587605Y-17853578D02*
X8606652Y-17853578D01*
X8625700Y-17863102D01*
X8635224Y-17872626D01*
X8644748Y-17891674D01*
X8654271Y-17929769D01*
X8654271Y-17977388D01*
X8644748Y-18015483D01*
X8635224Y-18034531D01*
X8625700Y-18044055D01*
X8606652Y-18053578D01*
X8587605Y-18053578D01*
X8568557Y-18044055D01*
X8559033Y-18034531D01*
X8549510Y-18015483D01*
X8539986Y-17977388D01*
X8539986Y-17929769D01*
X8549510Y-17891674D01*
X8559033Y-17872626D01*
X8568557Y-17863102D01*
X8587605Y-17853578D01*
X8778081Y-17853578D02*
X8797129Y-17853578D01*
X8816176Y-17863102D01*
X8825700Y-17872626D01*
X8835224Y-17891674D01*
X8844748Y-17929769D01*
X8844748Y-17977388D01*
X8835224Y-18015483D01*
X8825700Y-18034531D01*
X8816176Y-18044055D01*
X8797129Y-18053578D01*
X8778081Y-18053578D01*
X8759033Y-18044055D01*
X8749510Y-18034531D01*
X8739986Y-18015483D01*
X8730462Y-17977388D01*
X8730462Y-17929769D01*
X8739986Y-17891674D01*
X8749510Y-17872626D01*
X8759033Y-17863102D01*
X8778081Y-17853578D01*
X8930462Y-18053578D02*
X8930462Y-17920245D01*
X8930462Y-17939293D02*
X8939986Y-17929769D01*
X8959033Y-17920245D01*
X8987605Y-17920245D01*
X9006652Y-17929769D01*
X9016176Y-17948817D01*
X9016176Y-18053578D01*
X9016176Y-17948817D02*
X9025700Y-17929769D01*
X9044748Y-17920245D01*
X9073319Y-17920245D01*
X9092367Y-17929769D01*
X9101890Y-17948817D01*
X9101890Y-18053578D01*
X9197129Y-18053578D02*
X9197129Y-17920245D01*
X9197129Y-17939293D02*
X9206652Y-17929769D01*
X9225700Y-17920245D01*
X9254271Y-17920245D01*
X9273319Y-17929769D01*
X9282843Y-17948817D01*
X9282843Y-18053578D01*
X9282843Y-17948817D02*
X9292367Y-17929769D01*
X9311414Y-17920245D01*
X9339986Y-17920245D01*
X9359033Y-17929769D01*
X9368557Y-17948817D01*
X9368557Y-18053578D01*
X9759033Y-17844055D02*
X9587605Y-18101198D01*
X10016176Y-17853578D02*
X10035224Y-17853578D01*
X10054271Y-17863102D01*
X10063795Y-17872626D01*
X10073319Y-17891674D01*
X10082843Y-17929769D01*
X10082843Y-17977388D01*
X10073319Y-18015483D01*
X10063795Y-18034531D01*
X10054271Y-18044055D01*
X10035224Y-18053578D01*
X10016176Y-18053578D01*
X9997129Y-18044055D01*
X9987605Y-18034531D01*
X9978081Y-18015483D01*
X9968557Y-17977388D01*
X9968557Y-17929769D01*
X9978081Y-17891674D01*
X9987605Y-17872626D01*
X9997129Y-17863102D01*
X10016176Y-17853578D01*
X10168557Y-18034531D02*
X10178081Y-18044055D01*
X10168557Y-18053578D01*
X10159033Y-18044055D01*
X10168557Y-18034531D01*
X10168557Y-18053578D01*
X10368557Y-18053578D02*
X10254271Y-18053578D01*
X10311414Y-18053578D02*
X10311414Y-17853578D01*
X10292367Y-17882150D01*
X10273319Y-17901198D01*
X10254271Y-17910721D01*
X10559033Y-18053578D02*
X10444748Y-18053578D01*
X10501890Y-18053578D02*
X10501890Y-17853578D01*
X10482843Y-17882150D01*
X10463795Y-17901198D01*
X10444748Y-17910721D01*
X10673319Y-17939293D02*
X10654271Y-17929769D01*
X10644748Y-17920245D01*
X10635224Y-17901198D01*
X10635224Y-17891674D01*
X10644748Y-17872626D01*
X10654271Y-17863102D01*
X10673319Y-17853578D01*
X10711414Y-17853578D01*
X10730462Y-17863102D01*
X10739986Y-17872626D01*
X10749510Y-17891674D01*
X10749510Y-17901198D01*
X10739986Y-17920245D01*
X10730462Y-17929769D01*
X10711414Y-17939293D01*
X10673319Y-17939293D01*
X10654271Y-17948817D01*
X10644748Y-17958340D01*
X10635224Y-17977388D01*
X10635224Y-18015483D01*
X10644748Y-18034531D01*
X10654271Y-18044055D01*
X10673319Y-18053578D01*
X10711414Y-18053578D01*
X10730462Y-18044055D01*
X10739986Y-18034531D01*
X10749510Y-18015483D01*
X10749510Y-17977388D01*
X10739986Y-17958340D01*
X10730462Y-17948817D01*
X10711414Y-17939293D01*
X10939986Y-18053578D02*
X10825700Y-18053578D01*
X10882843Y-18053578D02*
X10882843Y-17853578D01*
X10863795Y-17882150D01*
X10844748Y-17901198D01*
X10825700Y-17910721D01*
X11016176Y-17853578D02*
X11016176Y-17891674D01*
X11092367Y-17853578D02*
X11092367Y-17891674D01*
X11387605Y-18129769D02*
X11378081Y-18120245D01*
X11359033Y-18091674D01*
X11349509Y-18072626D01*
X11339986Y-18044055D01*
X11330462Y-17996436D01*
X11330462Y-17958340D01*
X11339986Y-17910721D01*
X11349509Y-17882150D01*
X11359033Y-17863102D01*
X11378081Y-17834531D01*
X11387605Y-17825007D01*
X11568557Y-18053578D02*
X11454271Y-18053578D01*
X11511414Y-18053578D02*
X11511414Y-17853578D01*
X11492367Y-17882150D01*
X11473319Y-17901198D01*
X11454271Y-17910721D01*
X11739986Y-17920245D02*
X11739986Y-18053578D01*
X11692367Y-17844055D02*
X11644748Y-17986912D01*
X11768557Y-17986912D01*
X11873319Y-17939293D02*
X11854271Y-17929769D01*
X11844748Y-17920245D01*
X11835224Y-17901198D01*
X11835224Y-17891674D01*
X11844748Y-17872626D01*
X11854271Y-17863102D01*
X11873319Y-17853578D01*
X11911414Y-17853578D01*
X11930462Y-17863102D01*
X11939986Y-17872626D01*
X11949509Y-17891674D01*
X11949509Y-17901198D01*
X11939986Y-17920245D01*
X11930462Y-17929769D01*
X11911414Y-17939293D01*
X11873319Y-17939293D01*
X11854271Y-17948817D01*
X11844748Y-17958340D01*
X11835224Y-17977388D01*
X11835224Y-18015483D01*
X11844748Y-18034531D01*
X11854271Y-18044055D01*
X11873319Y-18053578D01*
X11911414Y-18053578D01*
X11930462Y-18044055D01*
X11939986Y-18034531D01*
X11949509Y-18015483D01*
X11949509Y-17977388D01*
X11939986Y-17958340D01*
X11930462Y-17948817D01*
X11911414Y-17939293D01*
X12187605Y-18053578D02*
X12187605Y-17853578D01*
X12273319Y-18053578D02*
X12273319Y-17948817D01*
X12263795Y-17929769D01*
X12244748Y-17920245D01*
X12216176Y-17920245D01*
X12197128Y-17929769D01*
X12187605Y-17939293D01*
X12397128Y-18053578D02*
X12378081Y-18044055D01*
X12368557Y-18034531D01*
X12359033Y-18015483D01*
X12359033Y-17958340D01*
X12368557Y-17939293D01*
X12378081Y-17929769D01*
X12397128Y-17920245D01*
X12425700Y-17920245D01*
X12444748Y-17929769D01*
X12454271Y-17939293D01*
X12463795Y-17958340D01*
X12463795Y-18015483D01*
X12454271Y-18034531D01*
X12444748Y-18044055D01*
X12425700Y-18053578D01*
X12397128Y-18053578D01*
X12578081Y-18053578D02*
X12559033Y-18044055D01*
X12549509Y-18025007D01*
X12549509Y-17853578D01*
X12730462Y-18044055D02*
X12711414Y-18053578D01*
X12673319Y-18053578D01*
X12654271Y-18044055D01*
X12644748Y-18025007D01*
X12644748Y-17948817D01*
X12654271Y-17929769D01*
X12673319Y-17920245D01*
X12711414Y-17920245D01*
X12730462Y-17929769D01*
X12739986Y-17948817D01*
X12739986Y-17967864D01*
X12644748Y-17986912D01*
X12816176Y-18044055D02*
X12835224Y-18053578D01*
X12873319Y-18053578D01*
X12892367Y-18044055D01*
X12901890Y-18025007D01*
X12901890Y-18015483D01*
X12892367Y-17996436D01*
X12873319Y-17986912D01*
X12844748Y-17986912D01*
X12825700Y-17977388D01*
X12816176Y-17958340D01*
X12816176Y-17948817D01*
X12825700Y-17929769D01*
X12844748Y-17920245D01*
X12873319Y-17920245D01*
X12892367Y-17929769D01*
X12968557Y-18129769D02*
X12978081Y-18120245D01*
X12997128Y-18091674D01*
X13006652Y-18072626D01*
X13016176Y-18044055D01*
X13025700Y-17996436D01*
X13025700Y-17958340D01*
X13016176Y-17910721D01*
X13006652Y-17882150D01*
X12997128Y-17863102D01*
X12978081Y-17834531D01*
X12968557Y-17825007D01*
X13330462Y-18129769D02*
X13320938Y-18120245D01*
X13301890Y-18091674D01*
X13292367Y-18072626D01*
X13282843Y-18044055D01*
X13273319Y-17996436D01*
X13273319Y-17958340D01*
X13282843Y-17910721D01*
X13292367Y-17882150D01*
X13301890Y-17863102D01*
X13320938Y-17834531D01*
X13330462Y-17825007D01*
X13406652Y-17920245D02*
X13406652Y-18053578D01*
X13406652Y-17939293D02*
X13416176Y-17929769D01*
X13435224Y-17920245D01*
X13463795Y-17920245D01*
X13482843Y-17929769D01*
X13492367Y-17948817D01*
X13492367Y-18053578D01*
X13616176Y-18053578D02*
X13597128Y-18044055D01*
X13587605Y-18034531D01*
X13578081Y-18015483D01*
X13578081Y-17958340D01*
X13587605Y-17939293D01*
X13597128Y-17929769D01*
X13616176Y-17920245D01*
X13644748Y-17920245D01*
X13663795Y-17929769D01*
X13673319Y-17939293D01*
X13682843Y-17958340D01*
X13682843Y-18015483D01*
X13673319Y-18034531D01*
X13663795Y-18044055D01*
X13644748Y-18053578D01*
X13616176Y-18053578D01*
X13739986Y-17920245D02*
X13816176Y-17920245D01*
X13768557Y-17853578D02*
X13768557Y-18025007D01*
X13778081Y-18044055D01*
X13797128Y-18053578D01*
X13816176Y-18053578D01*
X14035224Y-17920245D02*
X14035224Y-18120245D01*
X14035224Y-17929769D02*
X14054271Y-17920245D01*
X14092367Y-17920245D01*
X14111414Y-17929769D01*
X14120938Y-17939293D01*
X14130462Y-17958340D01*
X14130462Y-18015483D01*
X14120938Y-18034531D01*
X14111414Y-18044055D01*
X14092367Y-18053578D01*
X14054271Y-18053578D01*
X14035224Y-18044055D01*
X14244748Y-18053578D02*
X14225700Y-18044055D01*
X14216176Y-18025007D01*
X14216176Y-17853578D01*
X14406652Y-18053578D02*
X14406652Y-17948817D01*
X14397128Y-17929769D01*
X14378081Y-17920245D01*
X14339986Y-17920245D01*
X14320938Y-17929769D01*
X14406652Y-18044055D02*
X14387605Y-18053578D01*
X14339986Y-18053578D01*
X14320938Y-18044055D01*
X14311414Y-18025007D01*
X14311414Y-18005959D01*
X14320938Y-17986912D01*
X14339986Y-17977388D01*
X14387605Y-17977388D01*
X14406652Y-17967864D01*
X14473319Y-17920245D02*
X14549509Y-17920245D01*
X14501890Y-17853578D02*
X14501890Y-18025007D01*
X14511414Y-18044055D01*
X14530462Y-18053578D01*
X14549509Y-18053578D01*
X14692367Y-18044055D02*
X14673319Y-18053578D01*
X14635224Y-18053578D01*
X14616176Y-18044055D01*
X14606652Y-18025007D01*
X14606652Y-17948817D01*
X14616176Y-17929769D01*
X14635224Y-17920245D01*
X14673319Y-17920245D01*
X14692367Y-17929769D01*
X14701890Y-17948817D01*
X14701890Y-17967864D01*
X14606652Y-17986912D01*
X14873319Y-18053578D02*
X14873319Y-17853578D01*
X14873319Y-18044055D02*
X14854271Y-18053578D01*
X14816176Y-18053578D01*
X14797128Y-18044055D01*
X14787605Y-18034531D01*
X14778081Y-18015483D01*
X14778081Y-17958340D01*
X14787605Y-17939293D01*
X14797128Y-17929769D01*
X14816176Y-17920245D01*
X14854271Y-17920245D01*
X14873319Y-17929769D01*
X14949509Y-18129769D02*
X14959033Y-18120245D01*
X14978081Y-18091674D01*
X14987605Y-18072626D01*
X14997128Y-18044055D01*
X15006652Y-17996436D01*
X15006652Y-17958340D01*
X14997128Y-17910721D01*
X14987605Y-17882150D01*
X14978081Y-17863102D01*
X14959033Y-17834531D01*
X14949509Y-17825007D01*
X7715700Y-18383102D02*
X7815700Y-18283102D01*
X7715700Y-18183102D01*
X7615700Y-18283102D01*
X7715700Y-18383102D01*
X8159033Y-18240245D02*
X8159033Y-18373578D01*
X8111414Y-18164055D02*
X8063795Y-18306912D01*
X8187605Y-18306912D01*
X8263795Y-18354531D02*
X8273319Y-18364055D01*
X8263795Y-18373578D01*
X8254271Y-18364055D01*
X8263795Y-18354531D01*
X8263795Y-18373578D01*
X8397129Y-18173578D02*
X8416176Y-18173578D01*
X8435224Y-18183102D01*
X8444748Y-18192626D01*
X8454271Y-18211674D01*
X8463795Y-18249769D01*
X8463795Y-18297388D01*
X8454271Y-18335483D01*
X8444748Y-18354531D01*
X8435224Y-18364055D01*
X8416176Y-18373578D01*
X8397129Y-18373578D01*
X8378081Y-18364055D01*
X8368557Y-18354531D01*
X8359033Y-18335483D01*
X8349509Y-18297388D01*
X8349509Y-18249769D01*
X8359033Y-18211674D01*
X8368557Y-18192626D01*
X8378081Y-18183102D01*
X8397129Y-18173578D01*
X8587605Y-18173578D02*
X8606652Y-18173578D01*
X8625700Y-18183102D01*
X8635224Y-18192626D01*
X8644748Y-18211674D01*
X8654271Y-18249769D01*
X8654271Y-18297388D01*
X8644748Y-18335483D01*
X8635224Y-18354531D01*
X8625700Y-18364055D01*
X8606652Y-18373578D01*
X8587605Y-18373578D01*
X8568557Y-18364055D01*
X8559033Y-18354531D01*
X8549510Y-18335483D01*
X8539986Y-18297388D01*
X8539986Y-18249769D01*
X8549510Y-18211674D01*
X8559033Y-18192626D01*
X8568557Y-18183102D01*
X8587605Y-18173578D01*
X8778081Y-18173578D02*
X8797129Y-18173578D01*
X8816176Y-18183102D01*
X8825700Y-18192626D01*
X8835224Y-18211674D01*
X8844748Y-18249769D01*
X8844748Y-18297388D01*
X8835224Y-18335483D01*
X8825700Y-18354531D01*
X8816176Y-18364055D01*
X8797129Y-18373578D01*
X8778081Y-18373578D01*
X8759033Y-18364055D01*
X8749510Y-18354531D01*
X8739986Y-18335483D01*
X8730462Y-18297388D01*
X8730462Y-18249769D01*
X8739986Y-18211674D01*
X8749510Y-18192626D01*
X8759033Y-18183102D01*
X8778081Y-18173578D01*
X8930462Y-18373578D02*
X8930462Y-18240245D01*
X8930462Y-18259293D02*
X8939986Y-18249769D01*
X8959033Y-18240245D01*
X8987605Y-18240245D01*
X9006652Y-18249769D01*
X9016176Y-18268817D01*
X9016176Y-18373578D01*
X9016176Y-18268817D02*
X9025700Y-18249769D01*
X9044748Y-18240245D01*
X9073319Y-18240245D01*
X9092367Y-18249769D01*
X9101890Y-18268817D01*
X9101890Y-18373578D01*
X9197129Y-18373578D02*
X9197129Y-18240245D01*
X9197129Y-18259293D02*
X9206652Y-18249769D01*
X9225700Y-18240245D01*
X9254271Y-18240245D01*
X9273319Y-18249769D01*
X9282843Y-18268817D01*
X9282843Y-18373578D01*
X9282843Y-18268817D02*
X9292367Y-18249769D01*
X9311414Y-18240245D01*
X9339986Y-18240245D01*
X9359033Y-18249769D01*
X9368557Y-18268817D01*
X9368557Y-18373578D01*
X9759033Y-18164055D02*
X9587605Y-18421198D01*
X10016176Y-18173578D02*
X10035224Y-18173578D01*
X10054271Y-18183102D01*
X10063795Y-18192626D01*
X10073319Y-18211674D01*
X10082843Y-18249769D01*
X10082843Y-18297388D01*
X10073319Y-18335483D01*
X10063795Y-18354531D01*
X10054271Y-18364055D01*
X10035224Y-18373578D01*
X10016176Y-18373578D01*
X9997129Y-18364055D01*
X9987605Y-18354531D01*
X9978081Y-18335483D01*
X9968557Y-18297388D01*
X9968557Y-18249769D01*
X9978081Y-18211674D01*
X9987605Y-18192626D01*
X9997129Y-18183102D01*
X10016176Y-18173578D01*
X10168557Y-18354531D02*
X10178081Y-18364055D01*
X10168557Y-18373578D01*
X10159033Y-18364055D01*
X10168557Y-18354531D01*
X10168557Y-18373578D01*
X10368557Y-18373578D02*
X10254271Y-18373578D01*
X10311414Y-18373578D02*
X10311414Y-18173578D01*
X10292367Y-18202150D01*
X10273319Y-18221198D01*
X10254271Y-18230721D01*
X10549510Y-18173578D02*
X10454271Y-18173578D01*
X10444748Y-18268817D01*
X10454271Y-18259293D01*
X10473319Y-18249769D01*
X10520938Y-18249769D01*
X10539986Y-18259293D01*
X10549510Y-18268817D01*
X10559033Y-18287864D01*
X10559033Y-18335483D01*
X10549510Y-18354531D01*
X10539986Y-18364055D01*
X10520938Y-18373578D01*
X10473319Y-18373578D01*
X10454271Y-18364055D01*
X10444748Y-18354531D01*
X10625700Y-18173578D02*
X10759033Y-18173578D01*
X10673319Y-18373578D01*
X10930462Y-18173578D02*
X10835224Y-18173578D01*
X10825700Y-18268817D01*
X10835224Y-18259293D01*
X10854271Y-18249769D01*
X10901890Y-18249769D01*
X10920938Y-18259293D01*
X10930462Y-18268817D01*
X10939986Y-18287864D01*
X10939986Y-18335483D01*
X10930462Y-18354531D01*
X10920938Y-18364055D01*
X10901890Y-18373578D01*
X10854271Y-18373578D01*
X10835224Y-18364055D01*
X10825700Y-18354531D01*
X11016176Y-18173578D02*
X11016176Y-18211674D01*
X11092367Y-18173578D02*
X11092367Y-18211674D01*
X11387605Y-18449769D02*
X11378081Y-18440245D01*
X11359033Y-18411674D01*
X11349509Y-18392626D01*
X11339986Y-18364055D01*
X11330462Y-18316436D01*
X11330462Y-18278340D01*
X11339986Y-18230721D01*
X11349509Y-18202150D01*
X11359033Y-18183102D01*
X11378081Y-18154531D01*
X11387605Y-18145007D01*
X11444748Y-18173578D02*
X11568557Y-18173578D01*
X11501890Y-18249769D01*
X11530462Y-18249769D01*
X11549509Y-18259293D01*
X11559033Y-18268817D01*
X11568557Y-18287864D01*
X11568557Y-18335483D01*
X11559033Y-18354531D01*
X11549509Y-18364055D01*
X11530462Y-18373578D01*
X11473319Y-18373578D01*
X11454271Y-18364055D01*
X11444748Y-18354531D01*
X11663795Y-18373578D02*
X11701890Y-18373578D01*
X11720938Y-18364055D01*
X11730462Y-18354531D01*
X11749509Y-18325959D01*
X11759033Y-18287864D01*
X11759033Y-18211674D01*
X11749509Y-18192626D01*
X11739986Y-18183102D01*
X11720938Y-18173578D01*
X11682843Y-18173578D01*
X11663795Y-18183102D01*
X11654271Y-18192626D01*
X11644748Y-18211674D01*
X11644748Y-18259293D01*
X11654271Y-18278340D01*
X11663795Y-18287864D01*
X11682843Y-18297388D01*
X11720938Y-18297388D01*
X11739986Y-18287864D01*
X11749509Y-18278340D01*
X11759033Y-18259293D01*
X11997128Y-18373578D02*
X11997128Y-18173578D01*
X12082843Y-18373578D02*
X12082843Y-18268817D01*
X12073319Y-18249769D01*
X12054271Y-18240245D01*
X12025700Y-18240245D01*
X12006652Y-18249769D01*
X11997128Y-18259293D01*
X12206652Y-18373578D02*
X12187605Y-18364055D01*
X12178081Y-18354531D01*
X12168557Y-18335483D01*
X12168557Y-18278340D01*
X12178081Y-18259293D01*
X12187605Y-18249769D01*
X12206652Y-18240245D01*
X12235224Y-18240245D01*
X12254271Y-18249769D01*
X12263795Y-18259293D01*
X12273319Y-18278340D01*
X12273319Y-18335483D01*
X12263795Y-18354531D01*
X12254271Y-18364055D01*
X12235224Y-18373578D01*
X12206652Y-18373578D01*
X12387605Y-18373578D02*
X12368557Y-18364055D01*
X12359033Y-18345007D01*
X12359033Y-18173578D01*
X12539986Y-18364055D02*
X12520938Y-18373578D01*
X12482843Y-18373578D01*
X12463795Y-18364055D01*
X12454271Y-18345007D01*
X12454271Y-18268817D01*
X12463795Y-18249769D01*
X12482843Y-18240245D01*
X12520938Y-18240245D01*
X12539986Y-18249769D01*
X12549509Y-18268817D01*
X12549509Y-18287864D01*
X12454271Y-18306912D01*
X12625700Y-18364055D02*
X12644748Y-18373578D01*
X12682843Y-18373578D01*
X12701890Y-18364055D01*
X12711414Y-18345007D01*
X12711414Y-18335483D01*
X12701890Y-18316436D01*
X12682843Y-18306912D01*
X12654271Y-18306912D01*
X12635224Y-18297388D01*
X12625700Y-18278340D01*
X12625700Y-18268817D01*
X12635224Y-18249769D01*
X12654271Y-18240245D01*
X12682843Y-18240245D01*
X12701890Y-18249769D01*
X12778081Y-18449769D02*
X12787605Y-18440245D01*
X12806652Y-18411674D01*
X12816176Y-18392626D01*
X12825700Y-18364055D01*
X12835224Y-18316436D01*
X12835224Y-18278340D01*
X12825700Y-18230721D01*
X12816176Y-18202150D01*
X12806652Y-18183102D01*
X12787605Y-18154531D01*
X12778081Y-18145007D01*
X13139986Y-18449769D02*
X13130462Y-18440245D01*
X13111414Y-18411674D01*
X13101890Y-18392626D01*
X13092367Y-18364055D01*
X13082843Y-18316436D01*
X13082843Y-18278340D01*
X13092367Y-18230721D01*
X13101890Y-18202150D01*
X13111414Y-18183102D01*
X13130462Y-18154531D01*
X13139986Y-18145007D01*
X13216176Y-18240245D02*
X13216176Y-18373578D01*
X13216176Y-18259293D02*
X13225700Y-18249769D01*
X13244748Y-18240245D01*
X13273319Y-18240245D01*
X13292367Y-18249769D01*
X13301890Y-18268817D01*
X13301890Y-18373578D01*
X13425700Y-18373578D02*
X13406652Y-18364055D01*
X13397128Y-18354531D01*
X13387605Y-18335483D01*
X13387605Y-18278340D01*
X13397128Y-18259293D01*
X13406652Y-18249769D01*
X13425700Y-18240245D01*
X13454271Y-18240245D01*
X13473319Y-18249769D01*
X13482843Y-18259293D01*
X13492367Y-18278340D01*
X13492367Y-18335483D01*
X13482843Y-18354531D01*
X13473319Y-18364055D01*
X13454271Y-18373578D01*
X13425700Y-18373578D01*
X13549509Y-18240245D02*
X13625700Y-18240245D01*
X13578081Y-18173578D02*
X13578081Y-18345007D01*
X13587605Y-18364055D01*
X13606652Y-18373578D01*
X13625700Y-18373578D01*
X13844748Y-18240245D02*
X13844748Y-18440245D01*
X13844748Y-18249769D02*
X13863795Y-18240245D01*
X13901890Y-18240245D01*
X13920938Y-18249769D01*
X13930462Y-18259293D01*
X13939986Y-18278340D01*
X13939986Y-18335483D01*
X13930462Y-18354531D01*
X13920938Y-18364055D01*
X13901890Y-18373578D01*
X13863795Y-18373578D01*
X13844748Y-18364055D01*
X14054271Y-18373578D02*
X14035224Y-18364055D01*
X14025700Y-18345007D01*
X14025700Y-18173578D01*
X14216176Y-18373578D02*
X14216176Y-18268817D01*
X14206652Y-18249769D01*
X14187605Y-18240245D01*
X14149509Y-18240245D01*
X14130462Y-18249769D01*
X14216176Y-18364055D02*
X14197128Y-18373578D01*
X14149509Y-18373578D01*
X14130462Y-18364055D01*
X14120938Y-18345007D01*
X14120938Y-18325959D01*
X14130462Y-18306912D01*
X14149509Y-18297388D01*
X14197128Y-18297388D01*
X14216176Y-18287864D01*
X14282843Y-18240245D02*
X14359033Y-18240245D01*
X14311414Y-18173578D02*
X14311414Y-18345007D01*
X14320938Y-18364055D01*
X14339986Y-18373578D01*
X14359033Y-18373578D01*
X14501890Y-18364055D02*
X14482843Y-18373578D01*
X14444748Y-18373578D01*
X14425700Y-18364055D01*
X14416176Y-18345007D01*
X14416176Y-18268817D01*
X14425700Y-18249769D01*
X14444748Y-18240245D01*
X14482843Y-18240245D01*
X14501890Y-18249769D01*
X14511414Y-18268817D01*
X14511414Y-18287864D01*
X14416176Y-18306912D01*
X14682843Y-18373578D02*
X14682843Y-18173578D01*
X14682843Y-18364055D02*
X14663795Y-18373578D01*
X14625700Y-18373578D01*
X14606652Y-18364055D01*
X14597128Y-18354531D01*
X14587605Y-18335483D01*
X14587605Y-18278340D01*
X14597128Y-18259293D01*
X14606652Y-18249769D01*
X14625700Y-18240245D01*
X14663795Y-18240245D01*
X14682843Y-18249769D01*
X14759033Y-18449769D02*
X14768557Y-18440245D01*
X14787605Y-18411674D01*
X14797128Y-18392626D01*
X14806652Y-18364055D01*
X14816176Y-18316436D01*
X14816176Y-18278340D01*
X14806652Y-18230721D01*
X14797128Y-18202150D01*
X14787605Y-18183102D01*
X14768557Y-18154531D01*
X14759033Y-18145007D01*
X7615700Y-18503102D02*
X7815700Y-18703102D01*
X7815700Y-18503102D02*
X7615700Y-18703102D01*
X7815700Y-18603102D02*
G75*
G03*
X7815700Y-18603102I-100000J0D01*
G01*
X8168557Y-18493578D02*
X8073319Y-18493578D01*
X8063795Y-18588817D01*
X8073319Y-18579293D01*
X8092367Y-18569769D01*
X8139986Y-18569769D01*
X8159033Y-18579293D01*
X8168557Y-18588817D01*
X8178081Y-18607864D01*
X8178081Y-18655483D01*
X8168557Y-18674531D01*
X8159033Y-18684055D01*
X8139986Y-18693578D01*
X8092367Y-18693578D01*
X8073319Y-18684055D01*
X8063795Y-18674531D01*
X8263795Y-18674531D02*
X8273319Y-18684055D01*
X8263795Y-18693578D01*
X8254271Y-18684055D01*
X8263795Y-18674531D01*
X8263795Y-18693578D01*
X8397129Y-18493578D02*
X8416176Y-18493578D01*
X8435224Y-18503102D01*
X8444748Y-18512626D01*
X8454271Y-18531674D01*
X8463795Y-18569769D01*
X8463795Y-18617388D01*
X8454271Y-18655483D01*
X8444748Y-18674531D01*
X8435224Y-18684055D01*
X8416176Y-18693578D01*
X8397129Y-18693578D01*
X8378081Y-18684055D01*
X8368557Y-18674531D01*
X8359033Y-18655483D01*
X8349509Y-18617388D01*
X8349509Y-18569769D01*
X8359033Y-18531674D01*
X8368557Y-18512626D01*
X8378081Y-18503102D01*
X8397129Y-18493578D01*
X8587605Y-18493578D02*
X8606652Y-18493578D01*
X8625700Y-18503102D01*
X8635224Y-18512626D01*
X8644748Y-18531674D01*
X8654271Y-18569769D01*
X8654271Y-18617388D01*
X8644748Y-18655483D01*
X8635224Y-18674531D01*
X8625700Y-18684055D01*
X8606652Y-18693578D01*
X8587605Y-18693578D01*
X8568557Y-18684055D01*
X8559033Y-18674531D01*
X8549510Y-18655483D01*
X8539986Y-18617388D01*
X8539986Y-18569769D01*
X8549510Y-18531674D01*
X8559033Y-18512626D01*
X8568557Y-18503102D01*
X8587605Y-18493578D01*
X8778081Y-18493578D02*
X8797129Y-18493578D01*
X8816176Y-18503102D01*
X8825700Y-18512626D01*
X8835224Y-18531674D01*
X8844748Y-18569769D01*
X8844748Y-18617388D01*
X8835224Y-18655483D01*
X8825700Y-18674531D01*
X8816176Y-18684055D01*
X8797129Y-18693578D01*
X8778081Y-18693578D01*
X8759033Y-18684055D01*
X8749510Y-18674531D01*
X8739986Y-18655483D01*
X8730462Y-18617388D01*
X8730462Y-18569769D01*
X8739986Y-18531674D01*
X8749510Y-18512626D01*
X8759033Y-18503102D01*
X8778081Y-18493578D01*
X8930462Y-18693578D02*
X8930462Y-18560245D01*
X8930462Y-18579293D02*
X8939986Y-18569769D01*
X8959033Y-18560245D01*
X8987605Y-18560245D01*
X9006652Y-18569769D01*
X9016176Y-18588817D01*
X9016176Y-18693578D01*
X9016176Y-18588817D02*
X9025700Y-18569769D01*
X9044748Y-18560245D01*
X9073319Y-18560245D01*
X9092367Y-18569769D01*
X9101890Y-18588817D01*
X9101890Y-18693578D01*
X9197129Y-18693578D02*
X9197129Y-18560245D01*
X9197129Y-18579293D02*
X9206652Y-18569769D01*
X9225700Y-18560245D01*
X9254271Y-18560245D01*
X9273319Y-18569769D01*
X9282843Y-18588817D01*
X9282843Y-18693578D01*
X9282843Y-18588817D02*
X9292367Y-18569769D01*
X9311414Y-18560245D01*
X9339986Y-18560245D01*
X9359033Y-18569769D01*
X9368557Y-18588817D01*
X9368557Y-18693578D01*
X9759033Y-18484055D02*
X9587605Y-18741198D01*
X10016176Y-18493578D02*
X10035224Y-18493578D01*
X10054271Y-18503102D01*
X10063795Y-18512626D01*
X10073319Y-18531674D01*
X10082843Y-18569769D01*
X10082843Y-18617388D01*
X10073319Y-18655483D01*
X10063795Y-18674531D01*
X10054271Y-18684055D01*
X10035224Y-18693578D01*
X10016176Y-18693578D01*
X9997129Y-18684055D01*
X9987605Y-18674531D01*
X9978081Y-18655483D01*
X9968557Y-18617388D01*
X9968557Y-18569769D01*
X9978081Y-18531674D01*
X9987605Y-18512626D01*
X9997129Y-18503102D01*
X10016176Y-18493578D01*
X10168557Y-18674531D02*
X10178081Y-18684055D01*
X10168557Y-18693578D01*
X10159033Y-18684055D01*
X10168557Y-18674531D01*
X10168557Y-18693578D01*
X10368557Y-18693578D02*
X10254271Y-18693578D01*
X10311414Y-18693578D02*
X10311414Y-18493578D01*
X10292367Y-18522150D01*
X10273319Y-18541198D01*
X10254271Y-18550721D01*
X10463795Y-18693578D02*
X10501890Y-18693578D01*
X10520938Y-18684055D01*
X10530462Y-18674531D01*
X10549510Y-18645959D01*
X10559033Y-18607864D01*
X10559033Y-18531674D01*
X10549510Y-18512626D01*
X10539986Y-18503102D01*
X10520938Y-18493578D01*
X10482843Y-18493578D01*
X10463795Y-18503102D01*
X10454271Y-18512626D01*
X10444748Y-18531674D01*
X10444748Y-18579293D01*
X10454271Y-18598340D01*
X10463795Y-18607864D01*
X10482843Y-18617388D01*
X10520938Y-18617388D01*
X10539986Y-18607864D01*
X10549510Y-18598340D01*
X10559033Y-18579293D01*
X10730462Y-18493578D02*
X10692367Y-18493578D01*
X10673319Y-18503102D01*
X10663795Y-18512626D01*
X10644748Y-18541198D01*
X10635224Y-18579293D01*
X10635224Y-18655483D01*
X10644748Y-18674531D01*
X10654271Y-18684055D01*
X10673319Y-18693578D01*
X10711414Y-18693578D01*
X10730462Y-18684055D01*
X10739986Y-18674531D01*
X10749510Y-18655483D01*
X10749510Y-18607864D01*
X10739986Y-18588817D01*
X10730462Y-18579293D01*
X10711414Y-18569769D01*
X10673319Y-18569769D01*
X10654271Y-18579293D01*
X10644748Y-18588817D01*
X10635224Y-18607864D01*
X10844748Y-18693578D02*
X10882843Y-18693578D01*
X10901890Y-18684055D01*
X10911414Y-18674531D01*
X10930462Y-18645959D01*
X10939986Y-18607864D01*
X10939986Y-18531674D01*
X10930462Y-18512626D01*
X10920938Y-18503102D01*
X10901890Y-18493578D01*
X10863795Y-18493578D01*
X10844748Y-18503102D01*
X10835224Y-18512626D01*
X10825700Y-18531674D01*
X10825700Y-18579293D01*
X10835224Y-18598340D01*
X10844748Y-18607864D01*
X10863795Y-18617388D01*
X10901890Y-18617388D01*
X10920938Y-18607864D01*
X10930462Y-18598340D01*
X10939986Y-18579293D01*
X11016176Y-18493578D02*
X11016176Y-18531674D01*
X11092367Y-18493578D02*
X11092367Y-18531674D01*
X11387605Y-18769769D02*
X11378081Y-18760245D01*
X11359033Y-18731674D01*
X11349509Y-18712626D01*
X11339986Y-18684055D01*
X11330462Y-18636436D01*
X11330462Y-18598340D01*
X11339986Y-18550721D01*
X11349509Y-18522150D01*
X11359033Y-18503102D01*
X11378081Y-18474531D01*
X11387605Y-18465007D01*
X11444748Y-18493578D02*
X11578081Y-18493578D01*
X11492367Y-18693578D01*
X11806652Y-18693578D02*
X11806652Y-18493578D01*
X11892367Y-18693578D02*
X11892367Y-18588817D01*
X11882843Y-18569769D01*
X11863795Y-18560245D01*
X11835224Y-18560245D01*
X11816176Y-18569769D01*
X11806652Y-18579293D01*
X12016176Y-18693578D02*
X11997128Y-18684055D01*
X11987605Y-18674531D01*
X11978081Y-18655483D01*
X11978081Y-18598340D01*
X11987605Y-18579293D01*
X11997128Y-18569769D01*
X12016176Y-18560245D01*
X12044748Y-18560245D01*
X12063795Y-18569769D01*
X12073319Y-18579293D01*
X12082843Y-18598340D01*
X12082843Y-18655483D01*
X12073319Y-18674531D01*
X12063795Y-18684055D01*
X12044748Y-18693578D01*
X12016176Y-18693578D01*
X12197128Y-18693578D02*
X12178081Y-18684055D01*
X12168557Y-18665007D01*
X12168557Y-18493578D01*
X12349509Y-18684055D02*
X12330462Y-18693578D01*
X12292367Y-18693578D01*
X12273319Y-18684055D01*
X12263795Y-18665007D01*
X12263795Y-18588817D01*
X12273319Y-18569769D01*
X12292367Y-18560245D01*
X12330462Y-18560245D01*
X12349509Y-18569769D01*
X12359033Y-18588817D01*
X12359033Y-18607864D01*
X12263795Y-18626912D01*
X12435224Y-18684055D02*
X12454271Y-18693578D01*
X12492367Y-18693578D01*
X12511414Y-18684055D01*
X12520938Y-18665007D01*
X12520938Y-18655483D01*
X12511414Y-18636436D01*
X12492367Y-18626912D01*
X12463795Y-18626912D01*
X12444748Y-18617388D01*
X12435224Y-18598340D01*
X12435224Y-18588817D01*
X12444748Y-18569769D01*
X12463795Y-18560245D01*
X12492367Y-18560245D01*
X12511414Y-18569769D01*
X12587605Y-18769769D02*
X12597128Y-18760245D01*
X12616176Y-18731674D01*
X12625700Y-18712626D01*
X12635224Y-18684055D01*
X12644748Y-18636436D01*
X12644748Y-18598340D01*
X12635224Y-18550721D01*
X12625700Y-18522150D01*
X12616176Y-18503102D01*
X12597128Y-18474531D01*
X12587605Y-18465007D01*
X12949509Y-18769769D02*
X12939986Y-18760245D01*
X12920938Y-18731674D01*
X12911414Y-18712626D01*
X12901890Y-18684055D01*
X12892367Y-18636436D01*
X12892367Y-18598340D01*
X12901890Y-18550721D01*
X12911414Y-18522150D01*
X12920938Y-18503102D01*
X12939986Y-18474531D01*
X12949509Y-18465007D01*
X13025700Y-18560245D02*
X13025700Y-18693578D01*
X13025700Y-18579293D02*
X13035224Y-18569769D01*
X13054271Y-18560245D01*
X13082843Y-18560245D01*
X13101890Y-18569769D01*
X13111414Y-18588817D01*
X13111414Y-18693578D01*
X13235224Y-18693578D02*
X13216176Y-18684055D01*
X13206652Y-18674531D01*
X13197128Y-18655483D01*
X13197128Y-18598340D01*
X13206652Y-18579293D01*
X13216176Y-18569769D01*
X13235224Y-18560245D01*
X13263795Y-18560245D01*
X13282843Y-18569769D01*
X13292367Y-18579293D01*
X13301890Y-18598340D01*
X13301890Y-18655483D01*
X13292367Y-18674531D01*
X13282843Y-18684055D01*
X13263795Y-18693578D01*
X13235224Y-18693578D01*
X13359033Y-18560245D02*
X13435224Y-18560245D01*
X13387605Y-18493578D02*
X13387605Y-18665007D01*
X13397128Y-18684055D01*
X13416176Y-18693578D01*
X13435224Y-18693578D01*
X13654271Y-18560245D02*
X13654271Y-18760245D01*
X13654271Y-18569769D02*
X13673319Y-18560245D01*
X13711414Y-18560245D01*
X13730462Y-18569769D01*
X13739986Y-18579293D01*
X13749509Y-18598340D01*
X13749509Y-18655483D01*
X13739986Y-18674531D01*
X13730462Y-18684055D01*
X13711414Y-18693578D01*
X13673319Y-18693578D01*
X13654271Y-18684055D01*
X13863795Y-18693578D02*
X13844748Y-18684055D01*
X13835224Y-18665007D01*
X13835224Y-18493578D01*
X14025700Y-18693578D02*
X14025700Y-18588817D01*
X14016176Y-18569769D01*
X13997128Y-18560245D01*
X13959033Y-18560245D01*
X13939986Y-18569769D01*
X14025700Y-18684055D02*
X14006652Y-18693578D01*
X13959033Y-18693578D01*
X13939986Y-18684055D01*
X13930462Y-18665007D01*
X13930462Y-18645959D01*
X13939986Y-18626912D01*
X13959033Y-18617388D01*
X14006652Y-18617388D01*
X14025700Y-18607864D01*
X14092367Y-18560245D02*
X14168557Y-18560245D01*
X14120938Y-18493578D02*
X14120938Y-18665007D01*
X14130462Y-18684055D01*
X14149509Y-18693578D01*
X14168557Y-18693578D01*
X14311414Y-18684055D02*
X14292367Y-18693578D01*
X14254271Y-18693578D01*
X14235224Y-18684055D01*
X14225700Y-18665007D01*
X14225700Y-18588817D01*
X14235224Y-18569769D01*
X14254271Y-18560245D01*
X14292367Y-18560245D01*
X14311414Y-18569769D01*
X14320938Y-18588817D01*
X14320938Y-18607864D01*
X14225700Y-18626912D01*
X14492367Y-18693578D02*
X14492367Y-18493578D01*
X14492367Y-18684055D02*
X14473319Y-18693578D01*
X14435224Y-18693578D01*
X14416176Y-18684055D01*
X14406652Y-18674531D01*
X14397128Y-18655483D01*
X14397128Y-18598340D01*
X14406652Y-18579293D01*
X14416176Y-18569769D01*
X14435224Y-18560245D01*
X14473319Y-18560245D01*
X14492367Y-18569769D01*
X14568557Y-18769769D02*
X14578081Y-18760245D01*
X14597128Y-18731674D01*
X14606652Y-18712626D01*
X14616176Y-18684055D01*
X14625700Y-18636436D01*
X14625700Y-18598340D01*
X14616176Y-18550721D01*
X14606652Y-18522150D01*
X14597128Y-18503102D01*
X14578081Y-18474531D01*
X14568557Y-18465007D01*
M02*
