M48
; DRILL file {KiCad (6.0.10)} date Sun Mar 19 21:25:38 2023
; FORMAT={-:-/ absolute / metric / decimal}
; #@! TF.CreationDate,2023-03-19T21:25:38+07:00
; #@! TF.GenerationSoftware,Kicad,Pcbnew,(6.0.10)
; #@! TF.FileFunction,Plated,1,2,PTH
FMAT,2
METRIC
; #@! TA.AperFunction,Plated,PTH,ComponentDrill
T1C0.305
; #@! TA.AperFunction,Plated,PTH,ViaDrill
T2C0.400
; #@! TA.AperFunction,Plated,PTH,ComponentDrill
T3C0.400
; #@! TA.AperFunction,Plated,PTH,ComponentDrill
T4C0.762
; #@! TA.AperFunction,Plated,PTH,ComponentDrill
T5C0.813
; #@! TA.AperFunction,Plated,PTH,ComponentDrill
T6C1.000
; #@! TA.AperFunction,Plated,PTH,ComponentDrill
T7C1.092
; #@! TA.AperFunction,Plated,PTH,ComponentDrill
T8C1.300
; #@! TA.AperFunction,Plated,PTH,ComponentDrill
T9C1.500
; #@! TA.AperFunction,Plated,PTH,ComponentDrill
T10C1.513
%
G90
G05
T1
X80.859Y-61.873
X80.859Y-62.623
X80.859Y-66.923
X80.859Y-67.723
X80.859Y-100.354
X80.859Y-101.104
X80.859Y-105.404
X80.859Y-106.204
X80.999Y-118.766
X80.999Y-119.516
X80.999Y-123.816
X80.999Y-124.616
X81.113Y-81.171
X81.113Y-81.921
X81.113Y-86.221
X81.113Y-87.021
X93.493Y-140.435
X94.243Y-140.435
X98.543Y-140.435
X99.343Y-140.435
X115.591Y-140.489
X116.341Y-140.489
X120.641Y-140.489
X121.441Y-140.489
X138.578Y-140.435
X139.328Y-140.435
X143.628Y-140.435
X144.428Y-140.435
X158.368Y-140.604
X159.118Y-140.604
X163.418Y-140.604
X164.218Y-140.604
X181.572Y-139.208
X181.972Y-138.515
X184.122Y-134.791
X184.497Y-134.141
X217.485Y-115.782
X217.573Y-66.6
X218.235Y-115.782
X218.373Y-66.6
X222.535Y-115.782
X222.673Y-66.6
X223.335Y-115.782
X223.423Y-66.6
X226.262Y-86.204
X226.262Y-87.004
X226.262Y-91.304
X226.262Y-92.054
T2
X79.146Y-79.756
X79.248Y-98.704
X79.756Y-110.033
X79.807Y-52.883
X79.807Y-71.984
X79.807Y-90.983
X79.807Y-129.032
X80.264Y-68.783
X82.347Y-139.751
X82.956Y-60.757
X84.023Y-83.414
X84.226Y-63.856
X84.43Y-120.904
X84.531Y-68.631
X84.684Y-101.143
X85.75Y-83.464
X85.954Y-48.412
X86.512Y-80.061
X86.766Y-123.8
X87.02Y-105.664
X87.224Y-66.446
X87.274Y-68.783
X87.274Y-107.544
X87.274Y-126.797
X87.427Y-88.29
X87.478Y-138.328
X87.579Y-51.257
X87.782Y-101.143
X89.256Y-82.753
X90.83Y-63.449
X93.646Y-85.165
X93.878Y-103.022
X94.082Y-117.043
X94.183Y-52.883
X94.183Y-90.983
X94.234Y-71.882
X94.234Y-109.982
X94.285Y-128.981
X94.742Y-135.839
X96.723Y-87.63
X97.942Y-137.82
X98.704Y-52.984
X98.806Y-71.933
X98.806Y-109.931
X98.806Y-128.981
X99.009Y-90.983
X100.381Y-49.174
X102.18Y-86.631
X103.022Y-118.72
X103.53Y-80.569
X107.696Y-125.324
X108.001Y-138.43
X108.255Y-81.534
X108.712Y-67.462
X108.712Y-101.143
X109.22Y-86.716
X109.423Y-135.941
X109.728Y-61.519
X109.982Y-105.105
X110.998Y-48.362
X113.233Y-90.983
X113.245Y-71.925
X113.284Y-52.934
X113.284Y-109.982
X113.284Y-128.981
X117.45Y-55.524
X117.856Y-124.409
X117.895Y-48.113
X117.895Y-67.163
X117.895Y-86.213
X117.895Y-105.263
X121.006Y-61.824
X121.463Y-93.777
X121.564Y-117.043
X123.8Y-58.725
X125.781Y-62.789
X126.543Y-133.909
X126.746Y-120.498
X126.848Y-99.974
X126.848Y-135.89
X128.372Y-130.962
X128.727Y-138.836
X132.232Y-124.308
X132.295Y-48.113
X132.295Y-67.163
X132.295Y-86.213
X132.295Y-105.263
X132.639Y-53.289
X133.452Y-44.552
X133.655Y-73.406
X134.468Y-53.34
X134.925Y-56.134
X135.645Y-86.4
X135.738Y-105.461
X136.169Y-74.549
X136.449Y-77.419
X136.652Y-95.91
X136.754Y-129.743
X136.906Y-121.971
X137.617Y-112.878
X138.024Y-132.791
X138.024Y-135.433
X138.43Y-73.152
X138.887Y-55.626
X139.446Y-92.253
X140.005Y-40.132
X140.106Y-110.49
X140.208Y-54.458
X140.767Y-58.369
X141.072Y-96.063
X141.072Y-98.044
X142.088Y-77.064
X142.088Y-79.197
X142.494Y-58.928
X142.596Y-60.096
X143.256Y-131.724
X143.764Y-73.0
X144.018Y-44.044
X145.288Y-54.407
X146.253Y-40.589
X146.304Y-53.594
X148.133Y-53.594
X148.184Y-54.712
X149.911Y-79.908
X150.978Y-79.908
X151.333Y-121.92
X151.345Y-83.8
X151.486Y-138.633
X152.146Y-140.411
X152.451Y-72.847
X152.603Y-105.613
X153.264Y-63.297
X153.314Y-66.294
X153.772Y-57.455
X153.772Y-81.432
X154.432Y-67.056
X154.686Y-50.698
X154.686Y-107.848
X155.651Y-55.067
X155.702Y-72.441
X155.702Y-121.818
X155.854Y-83.769
X155.995Y-67.163
X155.995Y-86.213
X156.159Y-125.984
X156.566Y-64.313
X157.531Y-60.808
X158.496Y-59.436
X159.461Y-64.313
X159.614Y-59.639
X160.325Y-131.928
X160.68Y-100.076
X160.731Y-134.061
X160.782Y-76.708
X161.849Y-135.484
X162.357Y-117.907
X162.966Y-62.128
X163.474Y-94.59
X165.659Y-140.665
X165.76Y-42.062
X166.218Y-125.07
X166.319Y-137.871
X166.827Y-43.231
X167.081Y-55.27
X167.488Y-41.25
X167.488Y-61.316
X168.504Y-57.15
X168.605Y-63.348
X168.859Y-100.94
X168.961Y-77.419
X169.316Y-39.167
X169.926Y-63.043
X170.395Y-67.163
X170.395Y-86.213
X170.891Y-59.385
X171.755Y-107.848
X171.856Y-50.546
X171.856Y-65.176
X172.161Y-94.894
X172.923Y-48.87
X173.533Y-125.324
X173.736Y-86.106
X173.787Y-53.086
X174.041Y-48.971
X174.396Y-139.852
X175.006Y-85.954
X175.006Y-107.594
X175.045Y-69.544
X175.045Y-88.594
X176.174Y-138.074
X176.987Y-142.342
X177.749Y-138.176
X177.851Y-64.364
X178.511Y-132.588
X178.714Y-134.315
X179.121Y-122.631
X179.426Y-135.738
X179.73Y-77.064
X179.883Y-58.522
X179.883Y-60.198
X180.442Y-102.108
X180.543Y-99.67
X180.746Y-120.904
X180.899Y-134.112
X181.407Y-80.772
X182.829Y-47.752
X185.979Y-64.364
X187.554Y-95.86
X187.554Y-139.141
X188.011Y-58.217
X188.925Y-132.08
X189.382Y-50.394
X189.382Y-107.594
X189.445Y-69.544
X189.445Y-88.594
X189.941Y-119.786
X190.246Y-60.554
X190.957Y-57.302
X191.618Y-152.4
X191.922Y-106.274
X191.973Y-103.988
X192.024Y-108.56
X192.43Y-77.572
X192.684Y-69.444
X192.837Y-60.604
X193.345Y-70.51
X193.345Y-72.593
X193.345Y-116.992
X193.396Y-145.999
X193.599Y-94.336
X193.65Y-83.922
X193.751Y-98.044
X194.095Y-79.101
X194.412Y-95.301
X194.462Y-84.938
X194.718Y-126.637
X194.92Y-110.592
X194.97Y-86.258
X195.478Y-87.376
X195.478Y-92.659
X195.682Y-95.555
X196.088Y-91.084
X197.256Y-90.678
X198.73Y-68.732
X198.807Y-140.015
X199.847Y-57.302
X200.762Y-73.66
X201.141Y-135.953
X202.794Y-113.69
X203.505Y-107.95
X204.013Y-148.692
X204.622Y-70.561
X206.427Y-74.066
X206.74Y-121.056
X208.128Y-162.001
X208.483Y-79.096
X208.483Y-98.146
X208.534Y-59.995
X209.194Y-96.063
X211.734Y-92.71
X211.988Y-135.23
X212.344Y-95.504
X213.309Y-109.017
X213.614Y-79.146
X213.665Y-123.19
X214.02Y-66.853
X215.087Y-111.455
X215.197Y-120.075
X215.24Y-149.504
X215.29Y-130.962
X215.29Y-130.962
X215.748Y-96.672
X216.306Y-80.061
X217.322Y-97.688
X217.627Y-145.491
X218.186Y-95.809
X218.338Y-72.796
X218.999Y-91.034
X219.405Y-129.438
X219.761Y-111.1
X220.167Y-99.06
X220.675Y-95.25
X221.742Y-97.79
X222.707Y-99.416
X224.18Y-92.608
X224.841Y-97.384
X224.841Y-132.994
X225.196Y-119.634
X225.45Y-94.437
X226.009Y-99.06
X226.06Y-122.225
X226.365Y-109.576
T3
X89.662Y-119.255
X89.662Y-122.655
X91.846Y-119.255
X91.846Y-122.655
X95.25Y-59.514
X95.25Y-62.914
X97.663Y-80.469
X97.663Y-83.869
X97.663Y-99.392
X97.663Y-102.792
X113.919Y-61.292
X113.919Y-64.692
X114.427Y-98.63
X114.427Y-102.03
X115.316Y-118.315
X115.316Y-121.715
X115.57Y-77.675
X115.57Y-81.075
X116.205Y-61.292
X116.205Y-64.692
X116.713Y-98.63
X116.713Y-102.03
X117.172Y-132.588
X117.172Y-134.747
X117.856Y-77.802
X117.856Y-81.202
X120.572Y-132.588
X120.572Y-134.747
X129.54Y-114.505
X129.54Y-117.905
X133.477Y-130.74
X133.477Y-134.14
X143.412Y-55.829
X146.812Y-55.829
X152.095Y-93.499
X152.095Y-96.899
X152.095Y-111.228
X152.095Y-114.628
X152.654Y-75.516
X152.654Y-78.916
X154.229Y-93.499
X154.229Y-96.899
X161.033Y-42.672
X161.033Y-44.958
X163.833Y-42.672
X163.833Y-44.958
X171.298Y-75.567
X171.298Y-78.967
X171.577Y-116.156
X171.577Y-119.556
X173.609Y-59.387
X173.609Y-62.787
X173.863Y-116.156
X173.863Y-119.556
X176.276Y-59.311
X176.276Y-62.711
X181.758Y-129.124
X182.907Y-144.778
X184.607Y-141.834
X184.702Y-130.824
X187.757Y-77.65
X187.757Y-81.05
X189.941Y-77.65
X189.941Y-81.05
X189.941Y-96.293
X189.941Y-99.693
X190.627Y-123.141
X190.627Y-126.541
X201.461Y-146.379
X203.161Y-143.435
X207.874Y-68.404
X207.874Y-71.804
X208.534Y-106.707
X208.534Y-110.107
X218.518Y-119.736
X221.918Y-119.736
T4
X93.639Y-48.133
X96.139Y-48.133
X98.639Y-48.133
X174.411Y-45.72
X176.911Y-45.72
X179.411Y-45.72
T5
X155.753Y-62.789
X216.408Y-103.378
X218.948Y-103.378
X221.488Y-103.378
X224.028Y-103.378
T6
X217.885Y-108.182
X217.885Y-122.682
X220.385Y-108.182
X222.885Y-108.182
X222.885Y-122.682
T7
X136.169Y-39.37
X136.169Y-44.45
X136.169Y-49.53
X136.169Y-54.61
X136.169Y-59.69
X136.169Y-64.77
X136.627Y-41.91
X136.627Y-46.99
X136.627Y-52.07
X136.627Y-57.15
X136.627Y-62.23
X136.627Y-67.31
X151.409Y-41.91
X151.409Y-46.99
X151.409Y-52.07
X151.409Y-57.15
X151.409Y-62.23
X151.409Y-67.31
X151.867Y-39.37
X151.867Y-44.45
X151.867Y-49.53
X151.867Y-54.61
X151.867Y-59.69
X151.867Y-64.77
T8
X159.437Y-39.497
X165.937Y-39.497
T9
X140.335Y-48.292
X140.335Y-67.342
X147.955Y-48.292
X147.955Y-67.342
T6
X192.142Y-47.765G85X192.142Y-48.265
G05
X192.142Y-50.765G85X192.142Y-51.265
G05
X192.142Y-54.765G85X192.142Y-55.265
G05
X193.892Y-56.265G85X193.892Y-56.765
G05
X196.342Y-56.265G85X196.342Y-56.765
G05
X198.092Y-47.765G85X198.092Y-48.265
G05
X198.092Y-50.765G85X198.092Y-51.265
G05
X198.092Y-54.765G85X198.092Y-55.265
G05
T9
X214.785Y-115.032G85X214.785Y-116.332
G05
X225.985Y-115.032G85X225.985Y-116.332
G05
T10
X141.625Y-45.813G85X141.625Y-46.85
G05
X141.625Y-64.863G85X141.625Y-65.9
G05
X146.665Y-45.813G85X146.665Y-46.85
G05
X146.665Y-64.863G85X146.665Y-65.9
G05
T0
M30
