%TF.GenerationSoftware,KiCad,Pcbnew,(6.0.10)*%
%TF.CreationDate,2023-03-19T21:25:39+07:00*%
%TF.ProjectId,ergodash,6572676f-6461-4736-982e-6b696361645f,2.0*%
%TF.SameCoordinates,Original*%
%TF.FileFunction,Drillmap*%
%TF.FilePolarity,Positive*%
%FSLAX45Y45*%
G04 Gerber Fmt 4.5, Leading zero omitted, Abs format (unit mm)*
G04 Created by KiCad (PCBNEW (6.0.10)) date 2023-03-19 21:25:39*
%MOMM*%
%LPD*%
G01*
G04 APERTURE LIST*
%ADD10C,0.150000*%
%ADD11C,0.200000*%
%ADD12C,0.030480*%
%ADD13C,0.040000*%
%ADD14C,0.076200*%
%ADD15C,0.081280*%
%ADD16C,0.100000*%
%ADD17C,0.109220*%
%ADD18C,0.130000*%
%ADD19C,0.151300*%
G04 APERTURE END LIST*
D10*
X19126200Y-4470400D02*
G75*
G03*
X18897600Y-4699000I0J-228600D01*
G01*
X21031200Y-5892800D02*
G75*
G03*
X20802600Y-5664200I-228600J0D01*
G01*
X21031200Y-6731000D02*
X21031200Y-7660640D01*
X21234400Y-6400800D02*
X22618700Y-6400800D01*
X21234400Y-9784080D02*
X21031200Y-9784080D01*
X19888200Y-14668500D02*
X20701000Y-13233400D01*
X21107400Y-16395700D02*
X22783800Y-13500100D01*
X21031200Y-8432800D02*
X21031200Y-8432800D01*
X13462000Y-3708400D02*
X16357600Y-3708400D01*
X22885400Y-6400800D02*
X22885400Y-12420600D01*
X19761200Y-14884400D02*
X19850100Y-14935200D01*
X21031200Y-5892800D02*
X21031200Y-6731000D01*
X21234400Y-7660640D02*
X21234400Y-6400800D01*
X21031200Y-11023600D02*
X21031200Y-12217400D01*
X22885400Y-12420600D02*
X21234400Y-12420600D01*
X22783800Y-13500100D02*
G75*
G03*
X22745700Y-13284200I-127000J88900D01*
G01*
X20142200Y-4699000D02*
X20142200Y-5435600D01*
X8051800Y-14300200D02*
X11480800Y-14300200D01*
X19202400Y-15443200D02*
G75*
G03*
X19494500Y-15354300I101600J190500D01*
G01*
X21031200Y-12217400D02*
X21031200Y-12661900D01*
X18897600Y-4699000D02*
X18770600Y-4699000D01*
X20904200Y-16421100D02*
G75*
G03*
X21107400Y-16395700I88900J114300D01*
G01*
X20142200Y-5435600D02*
G75*
G03*
X20370800Y-5664200I228600J0D01*
G01*
X19494500Y-15354300D02*
X19761200Y-14884400D01*
X7823200Y-14071600D02*
X7823200Y-5054600D01*
X21031200Y-12661900D02*
X20840700Y-12992100D01*
X8051800Y-4826000D02*
G75*
G03*
X7823200Y-5054600I0J-228600D01*
G01*
X19977100Y-14719300D02*
X20789900Y-13284200D01*
X21031200Y-8432800D02*
X21234400Y-8432800D01*
X11480800Y-14300200D02*
X17221200Y-14300200D01*
X19850100Y-14935200D02*
X19545300Y-15455900D01*
X21031200Y-9784080D02*
X21031200Y-11023600D01*
X17221200Y-14300200D02*
X19202400Y-15443200D01*
X20370800Y-5664200D02*
X20802600Y-5664200D01*
X19596100Y-15659100D02*
X20904200Y-16421100D01*
X16357600Y-3708400D02*
X17221200Y-3708400D01*
X21424900Y-12522200D02*
X22745700Y-13284200D01*
X21209000Y-12560300D02*
X20929600Y-13042900D01*
X21234400Y-8432800D02*
X21234400Y-8978900D01*
X19888200Y-14668500D02*
X19977100Y-14719300D01*
X19126200Y-4470400D02*
X19913600Y-4470400D01*
X22618700Y-6400800D02*
X22885400Y-6400800D01*
X21234400Y-12420600D02*
X21234400Y-9784080D01*
X17221200Y-3708400D02*
X18770600Y-4699000D01*
X21031200Y-8432800D02*
X21031200Y-8978900D01*
X21424900Y-12522200D02*
G75*
G03*
X21209000Y-12560300I-88900J-127000D01*
G01*
X13462000Y-3708400D02*
X8051800Y-4826000D01*
X21031200Y-8978900D02*
X21234400Y-8978900D01*
X20142200Y-4699000D02*
G75*
G03*
X19913600Y-4470400I-228600J0D01*
G01*
X7823200Y-14071600D02*
G75*
G03*
X8051800Y-14300200I228600J0D01*
G01*
X19545300Y-15455900D02*
G75*
G03*
X19596100Y-15659100I127000J-76200D01*
G01*
X20701000Y-13233400D02*
X20789900Y-13284200D01*
X21031200Y-7660640D02*
X21234400Y-7660640D01*
X20840700Y-12992100D02*
X20929600Y-13042900D01*
D11*
D12*
X8070660Y-6172060D02*
X8101140Y-6202540D01*
X8101140Y-6172060D02*
X8070660Y-6202540D01*
X8070660Y-6247060D02*
X8101140Y-6277540D01*
X8101140Y-6247060D02*
X8070660Y-6277540D01*
X8070660Y-6677060D02*
X8101140Y-6707540D01*
X8101140Y-6677060D02*
X8070660Y-6707540D01*
X8070660Y-6757060D02*
X8101140Y-6787540D01*
X8101140Y-6757060D02*
X8070660Y-6787540D01*
X8070660Y-10020160D02*
X8101140Y-10050640D01*
X8101140Y-10020160D02*
X8070660Y-10050640D01*
X8070660Y-10095160D02*
X8101140Y-10125640D01*
X8101140Y-10095160D02*
X8070660Y-10125640D01*
X8070660Y-10525160D02*
X8101140Y-10555640D01*
X8101140Y-10525160D02*
X8070660Y-10555640D01*
X8070660Y-10605160D02*
X8101140Y-10635640D01*
X8101140Y-10605160D02*
X8070660Y-10635640D01*
X8084660Y-11861360D02*
X8115140Y-11891840D01*
X8115140Y-11861360D02*
X8084660Y-11891840D01*
X8084660Y-11936360D02*
X8115140Y-11966840D01*
X8115140Y-11936360D02*
X8084660Y-11966840D01*
X8084660Y-12366360D02*
X8115140Y-12396840D01*
X8115140Y-12366360D02*
X8084660Y-12396840D01*
X8084660Y-12446360D02*
X8115140Y-12476840D01*
X8115140Y-12446360D02*
X8084660Y-12476840D01*
X8096060Y-8101860D02*
X8126540Y-8132340D01*
X8126540Y-8101860D02*
X8096060Y-8132340D01*
X8096060Y-8176860D02*
X8126540Y-8207340D01*
X8126540Y-8176860D02*
X8096060Y-8207340D01*
X8096060Y-8606860D02*
X8126540Y-8637340D01*
X8126540Y-8606860D02*
X8096060Y-8637340D01*
X8096060Y-8686860D02*
X8126540Y-8717340D01*
X8126540Y-8686860D02*
X8096060Y-8717340D01*
X9334060Y-14028260D02*
X9364540Y-14058740D01*
X9364540Y-14028260D02*
X9334060Y-14058740D01*
X9409060Y-14028260D02*
X9439540Y-14058740D01*
X9439540Y-14028260D02*
X9409060Y-14058740D01*
X9839060Y-14028260D02*
X9869540Y-14058740D01*
X9869540Y-14028260D02*
X9839060Y-14058740D01*
X9919060Y-14028260D02*
X9949540Y-14058740D01*
X9949540Y-14028260D02*
X9919060Y-14058740D01*
X11543860Y-14033660D02*
X11574340Y-14064140D01*
X11574340Y-14033660D02*
X11543860Y-14064140D01*
X11618860Y-14033660D02*
X11649340Y-14064140D01*
X11649340Y-14033660D02*
X11618860Y-14064140D01*
X12048860Y-14033660D02*
X12079340Y-14064140D01*
X12079340Y-14033660D02*
X12048860Y-14064140D01*
X12128860Y-14033660D02*
X12159340Y-14064140D01*
X12159340Y-14033660D02*
X12128860Y-14064140D01*
X13842560Y-14028260D02*
X13873040Y-14058740D01*
X13873040Y-14028260D02*
X13842560Y-14058740D01*
X13917560Y-14028260D02*
X13948040Y-14058740D01*
X13948040Y-14028260D02*
X13917560Y-14058740D01*
X14347560Y-14028260D02*
X14378040Y-14058740D01*
X14378040Y-14028260D02*
X14347560Y-14058740D01*
X14427560Y-14028260D02*
X14458040Y-14058740D01*
X14458040Y-14028260D02*
X14427560Y-14058740D01*
X15821520Y-14045120D02*
X15852000Y-14075600D01*
X15852000Y-14045120D02*
X15821520Y-14075600D01*
X15896520Y-14045120D02*
X15927000Y-14075600D01*
X15927000Y-14045120D02*
X15896520Y-14075600D01*
X16326520Y-14045120D02*
X16357000Y-14075600D01*
X16357000Y-14045120D02*
X16326520Y-14075600D01*
X16406520Y-14045120D02*
X16437000Y-14075600D01*
X16437000Y-14045120D02*
X16406520Y-14075600D01*
X18142000Y-13905517D02*
X18172480Y-13935997D01*
X18172480Y-13905517D02*
X18142000Y-13935997D01*
X18182000Y-13836235D02*
X18212480Y-13866715D01*
X18212480Y-13836235D02*
X18182000Y-13866715D01*
X18397000Y-13463844D02*
X18427480Y-13494324D01*
X18427480Y-13463844D02*
X18397000Y-13494324D01*
X18434500Y-13398893D02*
X18464980Y-13429373D01*
X18464980Y-13398893D02*
X18434500Y-13429373D01*
X21733260Y-11562960D02*
X21763740Y-11593440D01*
X21763740Y-11562960D02*
X21733260Y-11593440D01*
X21742040Y-6644800D02*
X21772520Y-6675280D01*
X21772520Y-6644800D02*
X21742040Y-6675280D01*
X21808260Y-11562960D02*
X21838740Y-11593440D01*
X21838740Y-11562960D02*
X21808260Y-11593440D01*
X21822040Y-6644800D02*
X21852520Y-6675280D01*
X21852520Y-6644800D02*
X21822040Y-6675280D01*
X22238260Y-11562960D02*
X22268740Y-11593440D01*
X22268740Y-11562960D02*
X22238260Y-11593440D01*
X22252040Y-6644800D02*
X22282520Y-6675280D01*
X22282520Y-6644800D02*
X22252040Y-6675280D01*
X22318260Y-11562960D02*
X22348740Y-11593440D01*
X22348740Y-11562960D02*
X22318260Y-11593440D01*
X22327040Y-6644800D02*
X22357520Y-6675280D01*
X22357520Y-6644800D02*
X22327040Y-6675280D01*
X22610920Y-8605160D02*
X22641400Y-8635640D01*
X22641400Y-8605160D02*
X22610920Y-8635640D01*
X22610920Y-8685160D02*
X22641400Y-8715640D01*
X22641400Y-8685160D02*
X22610920Y-8715640D01*
X22610920Y-9115160D02*
X22641400Y-9145640D01*
X22641400Y-9115160D02*
X22610920Y-9145640D01*
X22610920Y-9190160D02*
X22641400Y-9220640D01*
X22641400Y-9190160D02*
X22610920Y-9220640D01*
D13*
X7934640Y-7975600D02*
G75*
G03*
X7934640Y-7975600I-20000J0D01*
G01*
X7944800Y-9870440D02*
G75*
G03*
X7944800Y-9870440I-20000J0D01*
G01*
X7995600Y-11003280D02*
G75*
G03*
X7995600Y-11003280I-20000J0D01*
G01*
X8000680Y-5288280D02*
G75*
G03*
X8000680Y-5288280I-20000J0D01*
G01*
X8000680Y-7198360D02*
G75*
G03*
X8000680Y-7198360I-20000J0D01*
G01*
X8000680Y-9098280D02*
G75*
G03*
X8000680Y-9098280I-20000J0D01*
G01*
X8000680Y-12903200D02*
G75*
G03*
X8000680Y-12903200I-20000J0D01*
G01*
X8046400Y-6878320D02*
G75*
G03*
X8046400Y-6878320I-20000J0D01*
G01*
X8254680Y-13975080D02*
G75*
G03*
X8254680Y-13975080I-20000J0D01*
G01*
X8315640Y-6075680D02*
G75*
G03*
X8315640Y-6075680I-20000J0D01*
G01*
X8422320Y-8341360D02*
G75*
G03*
X8422320Y-8341360I-20000J0D01*
G01*
X8442640Y-6385560D02*
G75*
G03*
X8442640Y-6385560I-20000J0D01*
G01*
X8462960Y-12090400D02*
G75*
G03*
X8462960Y-12090400I-20000J0D01*
G01*
X8473120Y-6863080D02*
G75*
G03*
X8473120Y-6863080I-20000J0D01*
G01*
X8488360Y-10114280D02*
G75*
G03*
X8488360Y-10114280I-20000J0D01*
G01*
X8595040Y-8346440D02*
G75*
G03*
X8595040Y-8346440I-20000J0D01*
G01*
X8615360Y-4841240D02*
G75*
G03*
X8615360Y-4841240I-20000J0D01*
G01*
X8671240Y-8006080D02*
G75*
G03*
X8671240Y-8006080I-20000J0D01*
G01*
X8696640Y-12379960D02*
G75*
G03*
X8696640Y-12379960I-20000J0D01*
G01*
X8722040Y-10566400D02*
G75*
G03*
X8722040Y-10566400I-20000J0D01*
G01*
X8742360Y-6644640D02*
G75*
G03*
X8742360Y-6644640I-20000J0D01*
G01*
X8747440Y-6878320D02*
G75*
G03*
X8747440Y-6878320I-20000J0D01*
G01*
X8747440Y-10754360D02*
G75*
G03*
X8747440Y-10754360I-20000J0D01*
G01*
X8747440Y-12679680D02*
G75*
G03*
X8747440Y-12679680I-20000J0D01*
G01*
X8762680Y-8829040D02*
G75*
G03*
X8762680Y-8829040I-20000J0D01*
G01*
X8767760Y-13832840D02*
G75*
G03*
X8767760Y-13832840I-20000J0D01*
G01*
X8777920Y-5125720D02*
G75*
G03*
X8777920Y-5125720I-20000J0D01*
G01*
X8798240Y-10114280D02*
G75*
G03*
X8798240Y-10114280I-20000J0D01*
G01*
X8945560Y-8275320D02*
G75*
G03*
X8945560Y-8275320I-20000J0D01*
G01*
X9103040Y-6344920D02*
G75*
G03*
X9103040Y-6344920I-20000J0D01*
G01*
X9384608Y-8516510D02*
G75*
G03*
X9384608Y-8516510I-20000J0D01*
G01*
X9407840Y-10302240D02*
G75*
G03*
X9407840Y-10302240I-20000J0D01*
G01*
X9428160Y-11704320D02*
G75*
G03*
X9428160Y-11704320I-20000J0D01*
G01*
X9438320Y-5288280D02*
G75*
G03*
X9438320Y-5288280I-20000J0D01*
G01*
X9438320Y-9098280D02*
G75*
G03*
X9438320Y-9098280I-20000J0D01*
G01*
X9443400Y-7188200D02*
G75*
G03*
X9443400Y-7188200I-20000J0D01*
G01*
X9443400Y-10998200D02*
G75*
G03*
X9443400Y-10998200I-20000J0D01*
G01*
X9448480Y-12898120D02*
G75*
G03*
X9448480Y-12898120I-20000J0D01*
G01*
X9494200Y-13583920D02*
G75*
G03*
X9494200Y-13583920I-20000J0D01*
G01*
X9692320Y-8763000D02*
G75*
G03*
X9692320Y-8763000I-20000J0D01*
G01*
X9814240Y-13782040D02*
G75*
G03*
X9814240Y-13782040I-20000J0D01*
G01*
X9890440Y-5298440D02*
G75*
G03*
X9890440Y-5298440I-20000J0D01*
G01*
X9900600Y-7193280D02*
G75*
G03*
X9900600Y-7193280I-20000J0D01*
G01*
X9900600Y-10993120D02*
G75*
G03*
X9900600Y-10993120I-20000J0D01*
G01*
X9900600Y-12898120D02*
G75*
G03*
X9900600Y-12898120I-20000J0D01*
G01*
X9920920Y-9098280D02*
G75*
G03*
X9920920Y-9098280I-20000J0D01*
G01*
X10058080Y-4917440D02*
G75*
G03*
X10058080Y-4917440I-20000J0D01*
G01*
X10237982Y-8663101D02*
G75*
G03*
X10237982Y-8663101I-20000J0D01*
G01*
X10322240Y-11871960D02*
G75*
G03*
X10322240Y-11871960I-20000J0D01*
G01*
X10373040Y-8056880D02*
G75*
G03*
X10373040Y-8056880I-20000J0D01*
G01*
X10789600Y-12532360D02*
G75*
G03*
X10789600Y-12532360I-20000J0D01*
G01*
X10820080Y-13843000D02*
G75*
G03*
X10820080Y-13843000I-20000J0D01*
G01*
X10845480Y-8153400D02*
G75*
G03*
X10845480Y-8153400I-20000J0D01*
G01*
X10891200Y-6746240D02*
G75*
G03*
X10891200Y-6746240I-20000J0D01*
G01*
X10891200Y-10114280D02*
G75*
G03*
X10891200Y-10114280I-20000J0D01*
G01*
X10942000Y-8671560D02*
G75*
G03*
X10942000Y-8671560I-20000J0D01*
G01*
X10962320Y-13594080D02*
G75*
G03*
X10962320Y-13594080I-20000J0D01*
G01*
X10992800Y-6151880D02*
G75*
G03*
X10992800Y-6151880I-20000J0D01*
G01*
X11018200Y-10510520D02*
G75*
G03*
X11018200Y-10510520I-20000J0D01*
G01*
X11119800Y-4836160D02*
G75*
G03*
X11119800Y-4836160I-20000J0D01*
G01*
X11343320Y-9098280D02*
G75*
G03*
X11343320Y-9098280I-20000J0D01*
G01*
X11344500Y-7192550D02*
G75*
G03*
X11344500Y-7192550I-20000J0D01*
G01*
X11348400Y-5293360D02*
G75*
G03*
X11348400Y-5293360I-20000J0D01*
G01*
X11348400Y-10998200D02*
G75*
G03*
X11348400Y-10998200I-20000J0D01*
G01*
X11348400Y-12898120D02*
G75*
G03*
X11348400Y-12898120I-20000J0D01*
G01*
X11764960Y-5552440D02*
G75*
G03*
X11764960Y-5552440I-20000J0D01*
G01*
X11805600Y-12440920D02*
G75*
G03*
X11805600Y-12440920I-20000J0D01*
G01*
X11809500Y-4811300D02*
G75*
G03*
X11809500Y-4811300I-20000J0D01*
G01*
X11809500Y-6716300D02*
G75*
G03*
X11809500Y-6716300I-20000J0D01*
G01*
X11809500Y-8621300D02*
G75*
G03*
X11809500Y-8621300I-20000J0D01*
G01*
X11809500Y-10526300D02*
G75*
G03*
X11809500Y-10526300I-20000J0D01*
G01*
X12120560Y-6182360D02*
G75*
G03*
X12120560Y-6182360I-20000J0D01*
G01*
X12166280Y-9377680D02*
G75*
G03*
X12166280Y-9377680I-20000J0D01*
G01*
X12176440Y-11704320D02*
G75*
G03*
X12176440Y-11704320I-20000J0D01*
G01*
X12399960Y-5872480D02*
G75*
G03*
X12399960Y-5872480I-20000J0D01*
G01*
X12598080Y-6278880D02*
G75*
G03*
X12598080Y-6278880I-20000J0D01*
G01*
X12674280Y-13390880D02*
G75*
G03*
X12674280Y-13390880I-20000J0D01*
G01*
X12694600Y-12049760D02*
G75*
G03*
X12694600Y-12049760I-20000J0D01*
G01*
X12704760Y-9997440D02*
G75*
G03*
X12704760Y-9997440I-20000J0D01*
G01*
X12704760Y-13589000D02*
G75*
G03*
X12704760Y-13589000I-20000J0D01*
G01*
X12857160Y-13096240D02*
G75*
G03*
X12857160Y-13096240I-20000J0D01*
G01*
X12892720Y-13883640D02*
G75*
G03*
X12892720Y-13883640I-20000J0D01*
G01*
X13243240Y-12430760D02*
G75*
G03*
X13243240Y-12430760I-20000J0D01*
G01*
X13249500Y-4811300D02*
G75*
G03*
X13249500Y-4811300I-20000J0D01*
G01*
X13249500Y-6716300D02*
G75*
G03*
X13249500Y-6716300I-20000J0D01*
G01*
X13249500Y-8621300D02*
G75*
G03*
X13249500Y-8621300I-20000J0D01*
G01*
X13249500Y-10526300D02*
G75*
G03*
X13249500Y-10526300I-20000J0D01*
G01*
X13283880Y-5328920D02*
G75*
G03*
X13283880Y-5328920I-20000J0D01*
G01*
X13365160Y-4455160D02*
G75*
G03*
X13365160Y-4455160I-20000J0D01*
G01*
X13385480Y-7340600D02*
G75*
G03*
X13385480Y-7340600I-20000J0D01*
G01*
X13466760Y-5334000D02*
G75*
G03*
X13466760Y-5334000I-20000J0D01*
G01*
X13512480Y-5613400D02*
G75*
G03*
X13512480Y-5613400I-20000J0D01*
G01*
X13584500Y-8640000D02*
G75*
G03*
X13584500Y-8640000I-20000J0D01*
G01*
X13593760Y-10546080D02*
G75*
G03*
X13593760Y-10546080I-20000J0D01*
G01*
X13636940Y-7454900D02*
G75*
G03*
X13636940Y-7454900I-20000J0D01*
G01*
X13664880Y-7741920D02*
G75*
G03*
X13664880Y-7741920I-20000J0D01*
G01*
X13685200Y-9591040D02*
G75*
G03*
X13685200Y-9591040I-20000J0D01*
G01*
X13695360Y-12974320D02*
G75*
G03*
X13695360Y-12974320I-20000J0D01*
G01*
X13710600Y-12197080D02*
G75*
G03*
X13710600Y-12197080I-20000J0D01*
G01*
X13781720Y-11287760D02*
G75*
G03*
X13781720Y-11287760I-20000J0D01*
G01*
X13822360Y-13279120D02*
G75*
G03*
X13822360Y-13279120I-20000J0D01*
G01*
X13822360Y-13543280D02*
G75*
G03*
X13822360Y-13543280I-20000J0D01*
G01*
X13863000Y-7315200D02*
G75*
G03*
X13863000Y-7315200I-20000J0D01*
G01*
X13908720Y-5562600D02*
G75*
G03*
X13908720Y-5562600I-20000J0D01*
G01*
X13964600Y-9225280D02*
G75*
G03*
X13964600Y-9225280I-20000J0D01*
G01*
X14020480Y-4013200D02*
G75*
G03*
X14020480Y-4013200I-20000J0D01*
G01*
X14030640Y-11049000D02*
G75*
G03*
X14030640Y-11049000I-20000J0D01*
G01*
X14040800Y-5445760D02*
G75*
G03*
X14040800Y-5445760I-20000J0D01*
G01*
X14096680Y-5836920D02*
G75*
G03*
X14096680Y-5836920I-20000J0D01*
G01*
X14127160Y-9606280D02*
G75*
G03*
X14127160Y-9606280I-20000J0D01*
G01*
X14127160Y-9804400D02*
G75*
G03*
X14127160Y-9804400I-20000J0D01*
G01*
X14228760Y-7706360D02*
G75*
G03*
X14228760Y-7706360I-20000J0D01*
G01*
X14228760Y-7919720D02*
G75*
G03*
X14228760Y-7919720I-20000J0D01*
G01*
X14269400Y-5892800D02*
G75*
G03*
X14269400Y-5892800I-20000J0D01*
G01*
X14279560Y-6009640D02*
G75*
G03*
X14279560Y-6009640I-20000J0D01*
G01*
X14345600Y-13172440D02*
G75*
G03*
X14345600Y-13172440I-20000J0D01*
G01*
X14396400Y-7299960D02*
G75*
G03*
X14396400Y-7299960I-20000J0D01*
G01*
X14421800Y-4404360D02*
G75*
G03*
X14421800Y-4404360I-20000J0D01*
G01*
X14548800Y-5440680D02*
G75*
G03*
X14548800Y-5440680I-20000J0D01*
G01*
X14645320Y-4058920D02*
G75*
G03*
X14645320Y-4058920I-20000J0D01*
G01*
X14650400Y-5359400D02*
G75*
G03*
X14650400Y-5359400I-20000J0D01*
G01*
X14833280Y-5359400D02*
G75*
G03*
X14833280Y-5359400I-20000J0D01*
G01*
X14838360Y-5471160D02*
G75*
G03*
X14838360Y-5471160I-20000J0D01*
G01*
X15011080Y-7990840D02*
G75*
G03*
X15011080Y-7990840I-20000J0D01*
G01*
X15117760Y-7990840D02*
G75*
G03*
X15117760Y-7990840I-20000J0D01*
G01*
X15153320Y-12192000D02*
G75*
G03*
X15153320Y-12192000I-20000J0D01*
G01*
X15154500Y-8380000D02*
G75*
G03*
X15154500Y-8380000I-20000J0D01*
G01*
X15168560Y-13863320D02*
G75*
G03*
X15168560Y-13863320I-20000J0D01*
G01*
X15234600Y-14041120D02*
G75*
G03*
X15234600Y-14041120I-20000J0D01*
G01*
X15265080Y-7284720D02*
G75*
G03*
X15265080Y-7284720I-20000J0D01*
G01*
X15280320Y-10561320D02*
G75*
G03*
X15280320Y-10561320I-20000J0D01*
G01*
X15346360Y-6329680D02*
G75*
G03*
X15346360Y-6329680I-20000J0D01*
G01*
X15351440Y-6629400D02*
G75*
G03*
X15351440Y-6629400I-20000J0D01*
G01*
X15397160Y-5745480D02*
G75*
G03*
X15397160Y-5745480I-20000J0D01*
G01*
X15397160Y-8143240D02*
G75*
G03*
X15397160Y-8143240I-20000J0D01*
G01*
X15463200Y-6705600D02*
G75*
G03*
X15463200Y-6705600I-20000J0D01*
G01*
X15488600Y-5069840D02*
G75*
G03*
X15488600Y-5069840I-20000J0D01*
G01*
X15488600Y-10784840D02*
G75*
G03*
X15488600Y-10784840I-20000J0D01*
G01*
X15585120Y-5506720D02*
G75*
G03*
X15585120Y-5506720I-20000J0D01*
G01*
X15590200Y-7244080D02*
G75*
G03*
X15590200Y-7244080I-20000J0D01*
G01*
X15590200Y-12181840D02*
G75*
G03*
X15590200Y-12181840I-20000J0D01*
G01*
X15605440Y-8376920D02*
G75*
G03*
X15605440Y-8376920I-20000J0D01*
G01*
X15619500Y-6716300D02*
G75*
G03*
X15619500Y-6716300I-20000J0D01*
G01*
X15619500Y-8621300D02*
G75*
G03*
X15619500Y-8621300I-20000J0D01*
G01*
X15635920Y-12598400D02*
G75*
G03*
X15635920Y-12598400I-20000J0D01*
G01*
X15676560Y-6431280D02*
G75*
G03*
X15676560Y-6431280I-20000J0D01*
G01*
X15773080Y-6080760D02*
G75*
G03*
X15773080Y-6080760I-20000J0D01*
G01*
X15869600Y-5943600D02*
G75*
G03*
X15869600Y-5943600I-20000J0D01*
G01*
X15966120Y-6431280D02*
G75*
G03*
X15966120Y-6431280I-20000J0D01*
G01*
X15981360Y-5963920D02*
G75*
G03*
X15981360Y-5963920I-20000J0D01*
G01*
X16052480Y-13192760D02*
G75*
G03*
X16052480Y-13192760I-20000J0D01*
G01*
X16088040Y-10007600D02*
G75*
G03*
X16088040Y-10007600I-20000J0D01*
G01*
X16093120Y-13406120D02*
G75*
G03*
X16093120Y-13406120I-20000J0D01*
G01*
X16098200Y-7670800D02*
G75*
G03*
X16098200Y-7670800I-20000J0D01*
G01*
X16204880Y-13548360D02*
G75*
G03*
X16204880Y-13548360I-20000J0D01*
G01*
X16255680Y-11790680D02*
G75*
G03*
X16255680Y-11790680I-20000J0D01*
G01*
X16316640Y-6212840D02*
G75*
G03*
X16316640Y-6212840I-20000J0D01*
G01*
X16367440Y-9458960D02*
G75*
G03*
X16367440Y-9458960I-20000J0D01*
G01*
X16585880Y-14066520D02*
G75*
G03*
X16585880Y-14066520I-20000J0D01*
G01*
X16596040Y-4206240D02*
G75*
G03*
X16596040Y-4206240I-20000J0D01*
G01*
X16641760Y-12506960D02*
G75*
G03*
X16641760Y-12506960I-20000J0D01*
G01*
X16651920Y-13787120D02*
G75*
G03*
X16651920Y-13787120I-20000J0D01*
G01*
X16702720Y-4323080D02*
G75*
G03*
X16702720Y-4323080I-20000J0D01*
G01*
X16728120Y-5527040D02*
G75*
G03*
X16728120Y-5527040I-20000J0D01*
G01*
X16768760Y-4124960D02*
G75*
G03*
X16768760Y-4124960I-20000J0D01*
G01*
X16768760Y-6131560D02*
G75*
G03*
X16768760Y-6131560I-20000J0D01*
G01*
X16870360Y-5715000D02*
G75*
G03*
X16870360Y-5715000I-20000J0D01*
G01*
X16880520Y-6334760D02*
G75*
G03*
X16880520Y-6334760I-20000J0D01*
G01*
X16905920Y-10093960D02*
G75*
G03*
X16905920Y-10093960I-20000J0D01*
G01*
X16916080Y-7741920D02*
G75*
G03*
X16916080Y-7741920I-20000J0D01*
G01*
X16951640Y-3916680D02*
G75*
G03*
X16951640Y-3916680I-20000J0D01*
G01*
X17012600Y-6304280D02*
G75*
G03*
X17012600Y-6304280I-20000J0D01*
G01*
X17059500Y-6716300D02*
G75*
G03*
X17059500Y-6716300I-20000J0D01*
G01*
X17059500Y-8621300D02*
G75*
G03*
X17059500Y-8621300I-20000J0D01*
G01*
X17109120Y-5938520D02*
G75*
G03*
X17109120Y-5938520I-20000J0D01*
G01*
X17195480Y-10784840D02*
G75*
G03*
X17195480Y-10784840I-20000J0D01*
G01*
X17205640Y-5054600D02*
G75*
G03*
X17205640Y-5054600I-20000J0D01*
G01*
X17205640Y-6517640D02*
G75*
G03*
X17205640Y-6517640I-20000J0D01*
G01*
X17236120Y-9489440D02*
G75*
G03*
X17236120Y-9489440I-20000J0D01*
G01*
X17312320Y-4886960D02*
G75*
G03*
X17312320Y-4886960I-20000J0D01*
G01*
X17373280Y-12532360D02*
G75*
G03*
X17373280Y-12532360I-20000J0D01*
G01*
X17393600Y-8610600D02*
G75*
G03*
X17393600Y-8610600I-20000J0D01*
G01*
X17398680Y-5308600D02*
G75*
G03*
X17398680Y-5308600I-20000J0D01*
G01*
X17424080Y-4897120D02*
G75*
G03*
X17424080Y-4897120I-20000J0D01*
G01*
X17459640Y-13985240D02*
G75*
G03*
X17459640Y-13985240I-20000J0D01*
G01*
X17520600Y-8595360D02*
G75*
G03*
X17520600Y-8595360I-20000J0D01*
G01*
X17520600Y-10759440D02*
G75*
G03*
X17520600Y-10759440I-20000J0D01*
G01*
X17524500Y-6954425D02*
G75*
G03*
X17524500Y-6954425I-20000J0D01*
G01*
X17524500Y-8859425D02*
G75*
G03*
X17524500Y-8859425I-20000J0D01*
G01*
X17637440Y-13807440D02*
G75*
G03*
X17637440Y-13807440I-20000J0D01*
G01*
X17718720Y-14234160D02*
G75*
G03*
X17718720Y-14234160I-20000J0D01*
G01*
X17794920Y-13817600D02*
G75*
G03*
X17794920Y-13817600I-20000J0D01*
G01*
X17805080Y-6436360D02*
G75*
G03*
X17805080Y-6436360I-20000J0D01*
G01*
X17871120Y-13258800D02*
G75*
G03*
X17871120Y-13258800I-20000J0D01*
G01*
X17891440Y-13431520D02*
G75*
G03*
X17891440Y-13431520I-20000J0D01*
G01*
X17932080Y-12263120D02*
G75*
G03*
X17932080Y-12263120I-20000J0D01*
G01*
X17962560Y-13573760D02*
G75*
G03*
X17962560Y-13573760I-20000J0D01*
G01*
X17993040Y-7706360D02*
G75*
G03*
X17993040Y-7706360I-20000J0D01*
G01*
X18008280Y-5852160D02*
G75*
G03*
X18008280Y-5852160I-20000J0D01*
G01*
X18008280Y-6019800D02*
G75*
G03*
X18008280Y-6019800I-20000J0D01*
G01*
X18064160Y-10210800D02*
G75*
G03*
X18064160Y-10210800I-20000J0D01*
G01*
X18074320Y-9966960D02*
G75*
G03*
X18074320Y-9966960I-20000J0D01*
G01*
X18094640Y-12090400D02*
G75*
G03*
X18094640Y-12090400I-20000J0D01*
G01*
X18109880Y-13411200D02*
G75*
G03*
X18109880Y-13411200I-20000J0D01*
G01*
X18160680Y-8077200D02*
G75*
G03*
X18160680Y-8077200I-20000J0D01*
G01*
X18302920Y-4775200D02*
G75*
G03*
X18302920Y-4775200I-20000J0D01*
G01*
X18617880Y-6436360D02*
G75*
G03*
X18617880Y-6436360I-20000J0D01*
G01*
X18775360Y-9585960D02*
G75*
G03*
X18775360Y-9585960I-20000J0D01*
G01*
X18775360Y-13914120D02*
G75*
G03*
X18775360Y-13914120I-20000J0D01*
G01*
X18821080Y-5821680D02*
G75*
G03*
X18821080Y-5821680I-20000J0D01*
G01*
X18912520Y-13208000D02*
G75*
G03*
X18912520Y-13208000I-20000J0D01*
G01*
X18958240Y-5039360D02*
G75*
G03*
X18958240Y-5039360I-20000J0D01*
G01*
X18958240Y-10759440D02*
G75*
G03*
X18958240Y-10759440I-20000J0D01*
G01*
X18964500Y-6954425D02*
G75*
G03*
X18964500Y-6954425I-20000J0D01*
G01*
X18964500Y-8859425D02*
G75*
G03*
X18964500Y-8859425I-20000J0D01*
G01*
X19014120Y-11978640D02*
G75*
G03*
X19014120Y-11978640I-20000J0D01*
G01*
X19044600Y-6055360D02*
G75*
G03*
X19044600Y-6055360I-20000J0D01*
G01*
X19115720Y-5730240D02*
G75*
G03*
X19115720Y-5730240I-20000J0D01*
G01*
X19181760Y-15240000D02*
G75*
G03*
X19181760Y-15240000I-20000J0D01*
G01*
X19212240Y-10627360D02*
G75*
G03*
X19212240Y-10627360I-20000J0D01*
G01*
X19217320Y-10398760D02*
G75*
G03*
X19217320Y-10398760I-20000J0D01*
G01*
X19222400Y-10855960D02*
G75*
G03*
X19222400Y-10855960I-20000J0D01*
G01*
X19263040Y-7757160D02*
G75*
G03*
X19263040Y-7757160I-20000J0D01*
G01*
X19288440Y-6944360D02*
G75*
G03*
X19288440Y-6944360I-20000J0D01*
G01*
X19303680Y-6060440D02*
G75*
G03*
X19303680Y-6060440I-20000J0D01*
G01*
X19354480Y-7051040D02*
G75*
G03*
X19354480Y-7051040I-20000J0D01*
G01*
X19354480Y-7259320D02*
G75*
G03*
X19354480Y-7259320I-20000J0D01*
G01*
X19354480Y-11699240D02*
G75*
G03*
X19354480Y-11699240I-20000J0D01*
G01*
X19359560Y-14599920D02*
G75*
G03*
X19359560Y-14599920I-20000J0D01*
G01*
X19379880Y-9433560D02*
G75*
G03*
X19379880Y-9433560I-20000J0D01*
G01*
X19384960Y-8392160D02*
G75*
G03*
X19384960Y-8392160I-20000J0D01*
G01*
X19395120Y-9804400D02*
G75*
G03*
X19395120Y-9804400I-20000J0D01*
G01*
X19429500Y-7910100D02*
G75*
G03*
X19429500Y-7910100I-20000J0D01*
G01*
X19461160Y-9530080D02*
G75*
G03*
X19461160Y-9530080I-20000J0D01*
G01*
X19466240Y-8493760D02*
G75*
G03*
X19466240Y-8493760I-20000J0D01*
G01*
X19491768Y-12663732D02*
G75*
G03*
X19491768Y-12663732I-20000J0D01*
G01*
X19511960Y-11059160D02*
G75*
G03*
X19511960Y-11059160I-20000J0D01*
G01*
X19517040Y-8625840D02*
G75*
G03*
X19517040Y-8625840I-20000J0D01*
G01*
X19567840Y-8737600D02*
G75*
G03*
X19567840Y-8737600I-20000J0D01*
G01*
X19567840Y-9265920D02*
G75*
G03*
X19567840Y-9265920I-20000J0D01*
G01*
X19588160Y-9555480D02*
G75*
G03*
X19588160Y-9555480I-20000J0D01*
G01*
X19628800Y-9108440D02*
G75*
G03*
X19628800Y-9108440I-20000J0D01*
G01*
X19745640Y-9067800D02*
G75*
G03*
X19745640Y-9067800I-20000J0D01*
G01*
X19892960Y-6873240D02*
G75*
G03*
X19892960Y-6873240I-20000J0D01*
G01*
X19900673Y-14001492D02*
G75*
G03*
X19900673Y-14001492I-20000J0D01*
G01*
X20004720Y-5730240D02*
G75*
G03*
X20004720Y-5730240I-20000J0D01*
G01*
X20096160Y-7366000D02*
G75*
G03*
X20096160Y-7366000I-20000J0D01*
G01*
X20134132Y-13595309D02*
G75*
G03*
X20134132Y-13595309I-20000J0D01*
G01*
X20299360Y-11369040D02*
G75*
G03*
X20299360Y-11369040I-20000J0D01*
G01*
X20370480Y-10795000D02*
G75*
G03*
X20370480Y-10795000I-20000J0D01*
G01*
X20421280Y-14869160D02*
G75*
G03*
X20421280Y-14869160I-20000J0D01*
G01*
X20482240Y-7056120D02*
G75*
G03*
X20482240Y-7056120I-20000J0D01*
G01*
X20662668Y-7406570D02*
G75*
G03*
X20662668Y-7406570I-20000J0D01*
G01*
X20693966Y-12105649D02*
G75*
G03*
X20693966Y-12105649I-20000J0D01*
G01*
X20832760Y-16200120D02*
G75*
G03*
X20832760Y-16200120I-20000J0D01*
G01*
X20868320Y-7909560D02*
G75*
G03*
X20868320Y-7909560I-20000J0D01*
G01*
X20868320Y-9814560D02*
G75*
G03*
X20868320Y-9814560I-20000J0D01*
G01*
X20873400Y-5999480D02*
G75*
G03*
X20873400Y-5999480I-20000J0D01*
G01*
X20939440Y-9606280D02*
G75*
G03*
X20939440Y-9606280I-20000J0D01*
G01*
X21193440Y-9271000D02*
G75*
G03*
X21193440Y-9271000I-20000J0D01*
G01*
X21218840Y-13522960D02*
G75*
G03*
X21218840Y-13522960I-20000J0D01*
G01*
X21254400Y-9550400D02*
G75*
G03*
X21254400Y-9550400I-20000J0D01*
G01*
X21350920Y-10901680D02*
G75*
G03*
X21350920Y-10901680I-20000J0D01*
G01*
X21381400Y-7914640D02*
G75*
G03*
X21381400Y-7914640I-20000J0D01*
G01*
X21386480Y-12319000D02*
G75*
G03*
X21386480Y-12319000I-20000J0D01*
G01*
X21422040Y-6685280D02*
G75*
G03*
X21422040Y-6685280I-20000J0D01*
G01*
X21528720Y-11145520D02*
G75*
G03*
X21528720Y-11145520I-20000J0D01*
G01*
X21539731Y-12007541D02*
G75*
G03*
X21539731Y-12007541I-20000J0D01*
G01*
X21543960Y-14950440D02*
G75*
G03*
X21543960Y-14950440I-20000J0D01*
G01*
X21549040Y-13096240D02*
G75*
G03*
X21549040Y-13096240I-20000J0D01*
G01*
X21549040Y-13096240D02*
G75*
G03*
X21549040Y-13096240I-20000J0D01*
G01*
X21594760Y-9667240D02*
G75*
G03*
X21594760Y-9667240I-20000J0D01*
G01*
X21650640Y-8006080D02*
G75*
G03*
X21650640Y-8006080I-20000J0D01*
G01*
X21752240Y-9768840D02*
G75*
G03*
X21752240Y-9768840I-20000J0D01*
G01*
X21782720Y-14549120D02*
G75*
G03*
X21782720Y-14549120I-20000J0D01*
G01*
X21838600Y-9580880D02*
G75*
G03*
X21838600Y-9580880I-20000J0D01*
G01*
X21853840Y-7279640D02*
G75*
G03*
X21853840Y-7279640I-20000J0D01*
G01*
X21919880Y-9103360D02*
G75*
G03*
X21919880Y-9103360I-20000J0D01*
G01*
X21960520Y-12943840D02*
G75*
G03*
X21960520Y-12943840I-20000J0D01*
G01*
X21996080Y-11109960D02*
G75*
G03*
X21996080Y-11109960I-20000J0D01*
G01*
X22036720Y-9906000D02*
G75*
G03*
X22036720Y-9906000I-20000J0D01*
G01*
X22087520Y-9525000D02*
G75*
G03*
X22087520Y-9525000I-20000J0D01*
G01*
X22194200Y-9779000D02*
G75*
G03*
X22194200Y-9779000I-20000J0D01*
G01*
X22290720Y-9941560D02*
G75*
G03*
X22290720Y-9941560I-20000J0D01*
G01*
X22438040Y-9260840D02*
G75*
G03*
X22438040Y-9260840I-20000J0D01*
G01*
X22504080Y-9738360D02*
G75*
G03*
X22504080Y-9738360I-20000J0D01*
G01*
X22504080Y-13299440D02*
G75*
G03*
X22504080Y-13299440I-20000J0D01*
G01*
X22539640Y-11963400D02*
G75*
G03*
X22539640Y-11963400I-20000J0D01*
G01*
X22565040Y-9443720D02*
G75*
G03*
X22565040Y-9443720I-20000J0D01*
G01*
X22620920Y-9906000D02*
G75*
G03*
X22620920Y-9906000I-20000J0D01*
G01*
X22626000Y-12222480D02*
G75*
G03*
X22626000Y-12222480I-20000J0D01*
G01*
X22656480Y-10957560D02*
G75*
G03*
X22656480Y-10957560I-20000J0D01*
G01*
X8966200Y-11905480D02*
X8966200Y-11945480D01*
X8946200Y-11925480D02*
X8986200Y-11925480D01*
X8966200Y-12245480D02*
X8966200Y-12285480D01*
X8946200Y-12265480D02*
X8986200Y-12265480D01*
X9184640Y-11905480D02*
X9184640Y-11945480D01*
X9164640Y-11925480D02*
X9204640Y-11925480D01*
X9184640Y-12245480D02*
X9184640Y-12285480D01*
X9164640Y-12265480D02*
X9204640Y-12265480D01*
X9525000Y-5931400D02*
X9525000Y-5971400D01*
X9505000Y-5951400D02*
X9545000Y-5951400D01*
X9525000Y-6271400D02*
X9525000Y-6311400D01*
X9505000Y-6291400D02*
X9545000Y-6291400D01*
X9766300Y-8026900D02*
X9766300Y-8066900D01*
X9746300Y-8046900D02*
X9786300Y-8046900D01*
X9766300Y-8366900D02*
X9766300Y-8406900D01*
X9746300Y-8386900D02*
X9786300Y-8386900D01*
X9766300Y-9919200D02*
X9766300Y-9959200D01*
X9746300Y-9939200D02*
X9786300Y-9939200D01*
X9766300Y-10259200D02*
X9766300Y-10299200D01*
X9746300Y-10279200D02*
X9786300Y-10279200D01*
X11391900Y-6109200D02*
X11391900Y-6149200D01*
X11371900Y-6129200D02*
X11411900Y-6129200D01*
X11391900Y-6449200D02*
X11391900Y-6489200D01*
X11371900Y-6469200D02*
X11411900Y-6469200D01*
X11442700Y-9843000D02*
X11442700Y-9883000D01*
X11422700Y-9863000D02*
X11462700Y-9863000D01*
X11442700Y-10183000D02*
X11442700Y-10223000D01*
X11422700Y-10203000D02*
X11462700Y-10203000D01*
X11531600Y-11811500D02*
X11531600Y-11851500D01*
X11511600Y-11831500D02*
X11551600Y-11831500D01*
X11531600Y-12151500D02*
X11531600Y-12191500D01*
X11511600Y-12171500D02*
X11551600Y-12171500D01*
X11557000Y-7747500D02*
X11557000Y-7787500D01*
X11537000Y-7767500D02*
X11577000Y-7767500D01*
X11557000Y-8087500D02*
X11557000Y-8127500D01*
X11537000Y-8107500D02*
X11577000Y-8107500D01*
X11620500Y-6109200D02*
X11620500Y-6149200D01*
X11600500Y-6129200D02*
X11640500Y-6129200D01*
X11620500Y-6449200D02*
X11620500Y-6489200D01*
X11600500Y-6469200D02*
X11640500Y-6469200D01*
X11671300Y-9843000D02*
X11671300Y-9883000D01*
X11651300Y-9863000D02*
X11691300Y-9863000D01*
X11671300Y-10183000D02*
X11671300Y-10223000D01*
X11651300Y-10203000D02*
X11691300Y-10203000D01*
X11717200Y-13238800D02*
X11717200Y-13278800D01*
X11697200Y-13258800D02*
X11737200Y-13258800D01*
X11717200Y-13454700D02*
X11717200Y-13494700D01*
X11697200Y-13474700D02*
X11737200Y-13474700D01*
X11785600Y-7760200D02*
X11785600Y-7800200D01*
X11765600Y-7780200D02*
X11805600Y-7780200D01*
X11785600Y-8100200D02*
X11785600Y-8140200D01*
X11765600Y-8120200D02*
X11805600Y-8120200D01*
X12057200Y-13238800D02*
X12057200Y-13278800D01*
X12037200Y-13258800D02*
X12077200Y-13258800D01*
X12057200Y-13454700D02*
X12057200Y-13494700D01*
X12037200Y-13474700D02*
X12077200Y-13474700D01*
X12954000Y-11430500D02*
X12954000Y-11470500D01*
X12934000Y-11450500D02*
X12974000Y-11450500D01*
X12954000Y-11770500D02*
X12954000Y-11810500D01*
X12934000Y-11790500D02*
X12974000Y-11790500D01*
X13347700Y-13054000D02*
X13347700Y-13094000D01*
X13327700Y-13074000D02*
X13367700Y-13074000D01*
X13347700Y-13394000D02*
X13347700Y-13434000D01*
X13327700Y-13414000D02*
X13367700Y-13414000D01*
X14341200Y-5562920D02*
X14341200Y-5602920D01*
X14321200Y-5582920D02*
X14361200Y-5582920D01*
X14681200Y-5562920D02*
X14681200Y-5602920D01*
X14661200Y-5582920D02*
X14701200Y-5582920D01*
X15209520Y-9329920D02*
X15209520Y-9369920D01*
X15189520Y-9349920D02*
X15229520Y-9349920D01*
X15209520Y-9669920D02*
X15209520Y-9709920D01*
X15189520Y-9689920D02*
X15229520Y-9689920D01*
X15209520Y-11102840D02*
X15209520Y-11142840D01*
X15189520Y-11122840D02*
X15229520Y-11122840D01*
X15209520Y-11442840D02*
X15209520Y-11482840D01*
X15189520Y-11462840D02*
X15229520Y-11462840D01*
X15265400Y-7531600D02*
X15265400Y-7571600D01*
X15245400Y-7551600D02*
X15285400Y-7551600D01*
X15265400Y-7871600D02*
X15265400Y-7911600D01*
X15245400Y-7891600D02*
X15285400Y-7891600D01*
X15422880Y-9329920D02*
X15422880Y-9369920D01*
X15402880Y-9349920D02*
X15442880Y-9349920D01*
X15422880Y-9669920D02*
X15422880Y-9709920D01*
X15402880Y-9689920D02*
X15442880Y-9689920D01*
X16103300Y-4247200D02*
X16103300Y-4287200D01*
X16083300Y-4267200D02*
X16123300Y-4267200D01*
X16103300Y-4475800D02*
X16103300Y-4515800D01*
X16083300Y-4495800D02*
X16123300Y-4495800D01*
X16383300Y-4247200D02*
X16383300Y-4287200D01*
X16363300Y-4267200D02*
X16403300Y-4267200D01*
X16383300Y-4475800D02*
X16383300Y-4515800D01*
X16363300Y-4495800D02*
X16403300Y-4495800D01*
X17129760Y-7536680D02*
X17129760Y-7576680D01*
X17109760Y-7556680D02*
X17149760Y-7556680D01*
X17129760Y-7876680D02*
X17129760Y-7916680D01*
X17109760Y-7896680D02*
X17149760Y-7896680D01*
X17157700Y-11595600D02*
X17157700Y-11635600D01*
X17137700Y-11615600D02*
X17177700Y-11615600D01*
X17157700Y-11935600D02*
X17157700Y-11975600D01*
X17137700Y-11955600D02*
X17177700Y-11955600D01*
X17360900Y-5918700D02*
X17360900Y-5958700D01*
X17340900Y-5938700D02*
X17380900Y-5938700D01*
X17360900Y-6258700D02*
X17360900Y-6298700D01*
X17340900Y-6278700D02*
X17380900Y-6278700D01*
X17386300Y-11595600D02*
X17386300Y-11635600D01*
X17366300Y-11615600D02*
X17406300Y-11615600D01*
X17386300Y-11935600D02*
X17386300Y-11975600D01*
X17366300Y-11955600D02*
X17406300Y-11955600D01*
X17627600Y-5911080D02*
X17627600Y-5951080D01*
X17607600Y-5931080D02*
X17647600Y-5931080D01*
X17627600Y-6251080D02*
X17627600Y-6291080D01*
X17607600Y-6271080D02*
X17647600Y-6271080D01*
X18175779Y-12892400D02*
X18175779Y-12932400D01*
X18155779Y-12912400D02*
X18195779Y-12912400D01*
X18290720Y-14457809D02*
X18290720Y-14497809D01*
X18270720Y-14477809D02*
X18310720Y-14477809D01*
X18460720Y-14163360D02*
X18460720Y-14203360D01*
X18440720Y-14183360D02*
X18480720Y-14183360D01*
X18470227Y-13062400D02*
X18470227Y-13102400D01*
X18450227Y-13082400D02*
X18490227Y-13082400D01*
X18775680Y-7744960D02*
X18775680Y-7784960D01*
X18755680Y-7764960D02*
X18795680Y-7764960D01*
X18775680Y-8084960D02*
X18775680Y-8124960D01*
X18755680Y-8104960D02*
X18795680Y-8104960D01*
X18994120Y-7744960D02*
X18994120Y-7784960D01*
X18974120Y-7764960D02*
X19014120Y-7764960D01*
X18994120Y-8084960D02*
X18994120Y-8124960D01*
X18974120Y-8104960D02*
X19014120Y-8104960D01*
X18994120Y-9609320D02*
X18994120Y-9649320D01*
X18974120Y-9629320D02*
X19014120Y-9629320D01*
X18994120Y-9949320D02*
X18994120Y-9989320D01*
X18974120Y-9969320D02*
X19014120Y-9969320D01*
X19062700Y-12294100D02*
X19062700Y-12334100D01*
X19042700Y-12314100D02*
X19082700Y-12314100D01*
X19062700Y-12634100D02*
X19062700Y-12674100D01*
X19042700Y-12654100D02*
X19082700Y-12654100D01*
X20146100Y-14617924D02*
X20146100Y-14657924D01*
X20126100Y-14637924D02*
X20166100Y-14637924D01*
X20316100Y-14323476D02*
X20316100Y-14363476D01*
X20296100Y-14343476D02*
X20336100Y-14343476D01*
X20787360Y-6820400D02*
X20787360Y-6860400D01*
X20767360Y-6840400D02*
X20807360Y-6840400D01*
X20787360Y-7160400D02*
X20787360Y-7200400D01*
X20767360Y-7180400D02*
X20807360Y-7180400D01*
X20853400Y-10650720D02*
X20853400Y-10690720D01*
X20833400Y-10670720D02*
X20873400Y-10670720D01*
X20853400Y-10990720D02*
X20853400Y-11030720D01*
X20833400Y-11010720D02*
X20873400Y-11010720D01*
X21851800Y-11953560D02*
X21851800Y-11993560D01*
X21831800Y-11973560D02*
X21871800Y-11973560D01*
X22191800Y-11953560D02*
X22191800Y-11993560D01*
X22171800Y-11973560D02*
X22211800Y-11973560D01*
D14*
X9390841Y-4840241D02*
X9390841Y-4786359D01*
X9336959Y-4786359D01*
X9336959Y-4840241D01*
X9390841Y-4840241D01*
X9640841Y-4840241D02*
X9640841Y-4786359D01*
X9586959Y-4786359D01*
X9586959Y-4840241D01*
X9640841Y-4840241D01*
X9890841Y-4840241D02*
X9890841Y-4786359D01*
X9836959Y-4786359D01*
X9836959Y-4840241D01*
X9890841Y-4840241D01*
X17468041Y-4598941D02*
X17468041Y-4545059D01*
X17414159Y-4545059D01*
X17414159Y-4598941D01*
X17468041Y-4598941D01*
X17718041Y-4598941D02*
X17718041Y-4545059D01*
X17664159Y-4545059D01*
X17664159Y-4598941D01*
X17718041Y-4598941D01*
X17968041Y-4598941D02*
X17968041Y-4545059D01*
X17914159Y-4545059D01*
X17914159Y-4598941D01*
X17968041Y-4598941D01*
D15*
X15575280Y-6319520D02*
X15615920Y-6278880D01*
X15575280Y-6238240D01*
X15534640Y-6278880D01*
X15575280Y-6319520D01*
X21640800Y-10378440D02*
X21681440Y-10337800D01*
X21640800Y-10297160D01*
X21600160Y-10337800D01*
X21640800Y-10378440D01*
X21894800Y-10378440D02*
X21935440Y-10337800D01*
X21894800Y-10297160D01*
X21854160Y-10337800D01*
X21894800Y-10378440D01*
X22148800Y-10378440D02*
X22189440Y-10337800D01*
X22148800Y-10297160D01*
X22108160Y-10337800D01*
X22148800Y-10378440D01*
X22402800Y-10378440D02*
X22443440Y-10337800D01*
X22402800Y-10297160D01*
X22362160Y-10337800D01*
X22402800Y-10378440D01*
D16*
X19164200Y-4751500D02*
X19264200Y-4851500D01*
X19264200Y-4751500D02*
X19164200Y-4851500D01*
X19264200Y-4801500D02*
G75*
G03*
X19264200Y-4801500I-50000J0D01*
G01*
D11*
X19164200Y-4776500D02*
X19164200Y-4826500D01*
X19264200Y-4776500D02*
X19264200Y-4826500D01*
X19164200Y-4826500D02*
G75*
G03*
X19264200Y-4826500I50000J0D01*
G01*
X19264200Y-4776500D02*
G75*
G03*
X19164200Y-4776500I-50000J0D01*
G01*
D16*
X19164200Y-5051500D02*
X19264200Y-5151500D01*
X19264200Y-5051500D02*
X19164200Y-5151500D01*
X19264200Y-5101500D02*
G75*
G03*
X19264200Y-5101500I-50000J0D01*
G01*
D11*
X19164200Y-5076500D02*
X19164200Y-5126500D01*
X19264200Y-5076500D02*
X19264200Y-5126500D01*
X19164200Y-5126500D02*
G75*
G03*
X19264200Y-5126500I50000J0D01*
G01*
X19264200Y-5076500D02*
G75*
G03*
X19164200Y-5076500I-50000J0D01*
G01*
D16*
X19164200Y-5451500D02*
X19264200Y-5551500D01*
X19264200Y-5451500D02*
X19164200Y-5551500D01*
X19264200Y-5501500D02*
G75*
G03*
X19264200Y-5501500I-50000J0D01*
G01*
D11*
X19164200Y-5476500D02*
X19164200Y-5526500D01*
X19264200Y-5476500D02*
X19264200Y-5526500D01*
X19164200Y-5526500D02*
G75*
G03*
X19264200Y-5526500I50000J0D01*
G01*
X19264200Y-5476500D02*
G75*
G03*
X19164200Y-5476500I-50000J0D01*
G01*
D16*
X19339200Y-5601500D02*
X19439200Y-5701500D01*
X19439200Y-5601500D02*
X19339200Y-5701500D01*
X19439200Y-5651500D02*
G75*
G03*
X19439200Y-5651500I-50000J0D01*
G01*
D11*
X19339200Y-5626500D02*
X19339200Y-5676500D01*
X19439200Y-5626500D02*
X19439200Y-5676500D01*
X19339200Y-5676500D02*
G75*
G03*
X19439200Y-5676500I50000J0D01*
G01*
X19439200Y-5626500D02*
G75*
G03*
X19339200Y-5626500I-50000J0D01*
G01*
D16*
X19584200Y-5601500D02*
X19684200Y-5701500D01*
X19684200Y-5601500D02*
X19584200Y-5701500D01*
X19684200Y-5651500D02*
G75*
G03*
X19684200Y-5651500I-50000J0D01*
G01*
D11*
X19584200Y-5626500D02*
X19584200Y-5676500D01*
X19684200Y-5626500D02*
X19684200Y-5676500D01*
X19584200Y-5676500D02*
G75*
G03*
X19684200Y-5676500I50000J0D01*
G01*
X19684200Y-5626500D02*
G75*
G03*
X19584200Y-5626500I-50000J0D01*
G01*
D16*
X19759200Y-4751500D02*
X19859200Y-4851500D01*
X19859200Y-4751500D02*
X19759200Y-4851500D01*
X19859200Y-4801500D02*
G75*
G03*
X19859200Y-4801500I-50000J0D01*
G01*
D11*
X19759200Y-4776500D02*
X19759200Y-4826500D01*
X19859200Y-4776500D02*
X19859200Y-4826500D01*
X19759200Y-4826500D02*
G75*
G03*
X19859200Y-4826500I50000J0D01*
G01*
X19859200Y-4776500D02*
G75*
G03*
X19759200Y-4776500I-50000J0D01*
G01*
D16*
X19759200Y-5051500D02*
X19859200Y-5151500D01*
X19859200Y-5051500D02*
X19759200Y-5151500D01*
X19859200Y-5101500D02*
G75*
G03*
X19859200Y-5101500I-50000J0D01*
G01*
D11*
X19759200Y-5076500D02*
X19759200Y-5126500D01*
X19859200Y-5076500D02*
X19859200Y-5126500D01*
X19759200Y-5126500D02*
G75*
G03*
X19859200Y-5126500I50000J0D01*
G01*
X19859200Y-5076500D02*
G75*
G03*
X19759200Y-5076500I-50000J0D01*
G01*
D16*
X19759200Y-5451500D02*
X19859200Y-5551500D01*
X19859200Y-5451500D02*
X19759200Y-5551500D01*
X19859200Y-5501500D02*
G75*
G03*
X19859200Y-5501500I-50000J0D01*
G01*
D11*
X19759200Y-5476500D02*
X19759200Y-5526500D01*
X19859200Y-5476500D02*
X19859200Y-5526500D01*
X19759200Y-5526500D02*
G75*
G03*
X19859200Y-5526500I50000J0D01*
G01*
X19859200Y-5476500D02*
G75*
G03*
X19759200Y-5476500I-50000J0D01*
G01*
D16*
X21738500Y-10768200D02*
X21838500Y-10868200D01*
X21838500Y-10768200D02*
X21738500Y-10868200D01*
X21838500Y-10818200D02*
G75*
G03*
X21838500Y-10818200I-50000J0D01*
G01*
X21738500Y-12218200D02*
X21838500Y-12318200D01*
X21838500Y-12218200D02*
X21738500Y-12318200D01*
X21838500Y-12268200D02*
G75*
G03*
X21838500Y-12268200I-50000J0D01*
G01*
X21988500Y-10768200D02*
X22088500Y-10868200D01*
X22088500Y-10768200D02*
X21988500Y-10868200D01*
X22088500Y-10818200D02*
G75*
G03*
X22088500Y-10818200I-50000J0D01*
G01*
X22238500Y-10768200D02*
X22338500Y-10868200D01*
X22338500Y-10768200D02*
X22238500Y-10868200D01*
X22338500Y-10818200D02*
G75*
G03*
X22338500Y-10818200I-50000J0D01*
G01*
X22238500Y-12218200D02*
X22338500Y-12318200D01*
X22338500Y-12218200D02*
X22238500Y-12318200D01*
X22338500Y-12268200D02*
G75*
G03*
X22338500Y-12268200I-50000J0D01*
G01*
D17*
X13562330Y-3882390D02*
X13671550Y-3991610D01*
X13671550Y-3882390D02*
X13562330Y-3991610D01*
X13616940Y-3882390D02*
X13616940Y-3991610D01*
X13562330Y-3937000D02*
X13671550Y-3937000D01*
X13562330Y-4390390D02*
X13671550Y-4499610D01*
X13671550Y-4390390D02*
X13562330Y-4499610D01*
X13616940Y-4390390D02*
X13616940Y-4499610D01*
X13562330Y-4445000D02*
X13671550Y-4445000D01*
X13562330Y-4898390D02*
X13671550Y-5007610D01*
X13671550Y-4898390D02*
X13562330Y-5007610D01*
X13616940Y-4898390D02*
X13616940Y-5007610D01*
X13562330Y-4953000D02*
X13671550Y-4953000D01*
X13562330Y-5406390D02*
X13671550Y-5515610D01*
X13671550Y-5406390D02*
X13562330Y-5515610D01*
X13616940Y-5406390D02*
X13616940Y-5515610D01*
X13562330Y-5461000D02*
X13671550Y-5461000D01*
X13562330Y-5914390D02*
X13671550Y-6023610D01*
X13671550Y-5914390D02*
X13562330Y-6023610D01*
X13616940Y-5914390D02*
X13616940Y-6023610D01*
X13562330Y-5969000D02*
X13671550Y-5969000D01*
X13562330Y-6422390D02*
X13671550Y-6531610D01*
X13671550Y-6422390D02*
X13562330Y-6531610D01*
X13616940Y-6422390D02*
X13616940Y-6531610D01*
X13562330Y-6477000D02*
X13671550Y-6477000D01*
X13608050Y-4136390D02*
X13717270Y-4245610D01*
X13717270Y-4136390D02*
X13608050Y-4245610D01*
X13662660Y-4136390D02*
X13662660Y-4245610D01*
X13608050Y-4191000D02*
X13717270Y-4191000D01*
X13608050Y-4644390D02*
X13717270Y-4753610D01*
X13717270Y-4644390D02*
X13608050Y-4753610D01*
X13662660Y-4644390D02*
X13662660Y-4753610D01*
X13608050Y-4699000D02*
X13717270Y-4699000D01*
X13608050Y-5152390D02*
X13717270Y-5261610D01*
X13717270Y-5152390D02*
X13608050Y-5261610D01*
X13662660Y-5152390D02*
X13662660Y-5261610D01*
X13608050Y-5207000D02*
X13717270Y-5207000D01*
X13608050Y-5660390D02*
X13717270Y-5769610D01*
X13717270Y-5660390D02*
X13608050Y-5769610D01*
X13662660Y-5660390D02*
X13662660Y-5769610D01*
X13608050Y-5715000D02*
X13717270Y-5715000D01*
X13608050Y-6168390D02*
X13717270Y-6277610D01*
X13717270Y-6168390D02*
X13608050Y-6277610D01*
X13662660Y-6168390D02*
X13662660Y-6277610D01*
X13608050Y-6223000D02*
X13717270Y-6223000D01*
X13608050Y-6676390D02*
X13717270Y-6785610D01*
X13717270Y-6676390D02*
X13608050Y-6785610D01*
X13662660Y-6676390D02*
X13662660Y-6785610D01*
X13608050Y-6731000D02*
X13717270Y-6731000D01*
X15086330Y-4136390D02*
X15195550Y-4245610D01*
X15195550Y-4136390D02*
X15086330Y-4245610D01*
X15140940Y-4136390D02*
X15140940Y-4245610D01*
X15086330Y-4191000D02*
X15195550Y-4191000D01*
X15086330Y-4644390D02*
X15195550Y-4753610D01*
X15195550Y-4644390D02*
X15086330Y-4753610D01*
X15140940Y-4644390D02*
X15140940Y-4753610D01*
X15086330Y-4699000D02*
X15195550Y-4699000D01*
X15086330Y-5152390D02*
X15195550Y-5261610D01*
X15195550Y-5152390D02*
X15086330Y-5261610D01*
X15140940Y-5152390D02*
X15140940Y-5261610D01*
X15086330Y-5207000D02*
X15195550Y-5207000D01*
X15086330Y-5660390D02*
X15195550Y-5769610D01*
X15195550Y-5660390D02*
X15086330Y-5769610D01*
X15140940Y-5660390D02*
X15140940Y-5769610D01*
X15086330Y-5715000D02*
X15195550Y-5715000D01*
X15086330Y-6168390D02*
X15195550Y-6277610D01*
X15195550Y-6168390D02*
X15086330Y-6277610D01*
X15140940Y-6168390D02*
X15140940Y-6277610D01*
X15086330Y-6223000D02*
X15195550Y-6223000D01*
X15086330Y-6676390D02*
X15195550Y-6785610D01*
X15195550Y-6676390D02*
X15086330Y-6785610D01*
X15140940Y-6676390D02*
X15140940Y-6785610D01*
X15086330Y-6731000D02*
X15195550Y-6731000D01*
X15132050Y-3882390D02*
X15241270Y-3991610D01*
X15241270Y-3882390D02*
X15132050Y-3991610D01*
X15186660Y-3882390D02*
X15186660Y-3991610D01*
X15132050Y-3937000D02*
X15241270Y-3937000D01*
X15132050Y-4390390D02*
X15241270Y-4499610D01*
X15241270Y-4390390D02*
X15132050Y-4499610D01*
X15186660Y-4390390D02*
X15186660Y-4499610D01*
X15132050Y-4445000D02*
X15241270Y-4445000D01*
X15132050Y-4898390D02*
X15241270Y-5007610D01*
X15241270Y-4898390D02*
X15132050Y-5007610D01*
X15186660Y-4898390D02*
X15186660Y-5007610D01*
X15132050Y-4953000D02*
X15241270Y-4953000D01*
X15132050Y-5406390D02*
X15241270Y-5515610D01*
X15241270Y-5406390D02*
X15132050Y-5515610D01*
X15186660Y-5406390D02*
X15186660Y-5515610D01*
X15132050Y-5461000D02*
X15241270Y-5461000D01*
X15132050Y-5914390D02*
X15241270Y-6023610D01*
X15241270Y-5914390D02*
X15132050Y-6023610D01*
X15186660Y-5914390D02*
X15186660Y-6023610D01*
X15132050Y-5969000D02*
X15241270Y-5969000D01*
X15132050Y-6422390D02*
X15241270Y-6531610D01*
X15241270Y-6422390D02*
X15132050Y-6531610D01*
X15186660Y-6422390D02*
X15186660Y-6531610D01*
X15132050Y-6477000D02*
X15241270Y-6477000D01*
D18*
X15878700Y-3884700D02*
X16008700Y-4014700D01*
X16008700Y-3884700D02*
X15878700Y-4014700D01*
X15989662Y-3995662D02*
X15989662Y-3903738D01*
X15897738Y-3903738D01*
X15897738Y-3995662D01*
X15989662Y-3995662D01*
X16528700Y-3884700D02*
X16658700Y-4014700D01*
X16658700Y-3884700D02*
X16528700Y-4014700D01*
X16639662Y-3995662D02*
X16639662Y-3903738D01*
X16547738Y-3903738D01*
X16547738Y-3995662D01*
X16639662Y-3995662D01*
D10*
X13958500Y-4754175D02*
X14108500Y-4904175D01*
X14108500Y-4754175D02*
X13958500Y-4904175D01*
X14033500Y-4904175D02*
X14108500Y-4829175D01*
X14033500Y-4754175D01*
X13958500Y-4829175D01*
X14033500Y-4904175D01*
X13958500Y-6659175D02*
X14108500Y-6809175D01*
X14108500Y-6659175D02*
X13958500Y-6809175D01*
X14033500Y-6809175D02*
X14108500Y-6734175D01*
X14033500Y-6659175D01*
X13958500Y-6734175D01*
X14033500Y-6809175D01*
X14720500Y-4754175D02*
X14870500Y-4904175D01*
X14870500Y-4754175D02*
X14720500Y-4904175D01*
X14795500Y-4904175D02*
X14870500Y-4829175D01*
X14795500Y-4754175D01*
X14720500Y-4829175D01*
X14795500Y-4904175D01*
X14720500Y-6659175D02*
X14870500Y-6809175D01*
X14870500Y-6659175D02*
X14720500Y-6809175D01*
X14795500Y-6809175D02*
X14870500Y-6734175D01*
X14795500Y-6659175D01*
X14720500Y-6734175D01*
X14795500Y-6809175D01*
X21403500Y-11493200D02*
X21553500Y-11643200D01*
X21553500Y-11493200D02*
X21403500Y-11643200D01*
X21478500Y-11643200D02*
X21553500Y-11568200D01*
X21478500Y-11493200D01*
X21403500Y-11568200D01*
X21478500Y-11643200D01*
D11*
X21403500Y-11503200D02*
X21403500Y-11633200D01*
X21553500Y-11503200D02*
X21553500Y-11633200D01*
X21403500Y-11633200D02*
G75*
G03*
X21553500Y-11633200I75000J0D01*
G01*
X21553500Y-11503200D02*
G75*
G03*
X21403500Y-11503200I-75000J0D01*
G01*
D10*
X22523500Y-11493200D02*
X22673500Y-11643200D01*
X22673500Y-11493200D02*
X22523500Y-11643200D01*
X22598500Y-11643200D02*
X22673500Y-11568200D01*
X22598500Y-11493200D01*
X22523500Y-11568200D01*
X22598500Y-11643200D01*
D11*
X22523500Y-11503200D02*
X22523500Y-11633200D01*
X22673500Y-11503200D02*
X22673500Y-11633200D01*
X22523500Y-11633200D02*
G75*
G03*
X22673500Y-11633200I75000J0D01*
G01*
X22673500Y-11503200D02*
G75*
G03*
X22523500Y-11503200I-75000J0D01*
G01*
D19*
X14162500Y-4557525D02*
X14162500Y-4708825D01*
X14086850Y-4633175D02*
X14238150Y-4633175D01*
X14238150Y-4633175D02*
G75*
G03*
X14238150Y-4633175I-75650J0D01*
G01*
D11*
X14086850Y-4581325D02*
X14086850Y-4685025D01*
X14238150Y-4581325D02*
X14238150Y-4685025D01*
X14086850Y-4685025D02*
G75*
G03*
X14238150Y-4685025I75650J0D01*
G01*
X14238150Y-4581325D02*
G75*
G03*
X14086850Y-4581325I-75650J0D01*
G01*
D19*
X14162500Y-6462525D02*
X14162500Y-6613825D01*
X14086850Y-6538175D02*
X14238150Y-6538175D01*
X14238150Y-6538175D02*
G75*
G03*
X14238150Y-6538175I-75650J0D01*
G01*
D11*
X14086850Y-6486325D02*
X14086850Y-6590025D01*
X14238150Y-6486325D02*
X14238150Y-6590025D01*
X14086850Y-6590025D02*
G75*
G03*
X14238150Y-6590025I75650J0D01*
G01*
X14238150Y-6486325D02*
G75*
G03*
X14086850Y-6486325I-75650J0D01*
G01*
D19*
X14666500Y-4557525D02*
X14666500Y-4708825D01*
X14590850Y-4633175D02*
X14742150Y-4633175D01*
X14742150Y-4633175D02*
G75*
G03*
X14742150Y-4633175I-75650J0D01*
G01*
D11*
X14590850Y-4581325D02*
X14590850Y-4685025D01*
X14742150Y-4581325D02*
X14742150Y-4685025D01*
X14590850Y-4685025D02*
G75*
G03*
X14742150Y-4685025I75650J0D01*
G01*
X14742150Y-4581325D02*
G75*
G03*
X14590850Y-4581325I-75650J0D01*
G01*
D19*
X14666500Y-6462525D02*
X14666500Y-6613825D01*
X14590850Y-6538175D02*
X14742150Y-6538175D01*
X14742150Y-6538175D02*
G75*
G03*
X14742150Y-6538175I-75650J0D01*
G01*
D11*
X14590850Y-6486325D02*
X14590850Y-6590025D01*
X14742150Y-6486325D02*
X14742150Y-6590025D01*
X14590850Y-6590025D02*
G75*
G03*
X14742150Y-6590025I75650J0D01*
G01*
X14742150Y-6486325D02*
G75*
G03*
X14590850Y-6486325I-75650J0D01*
G01*
X8073319Y-16769578D02*
X8073319Y-16569578D01*
X8120938Y-16569578D01*
X8149509Y-16579102D01*
X8168557Y-16598150D01*
X8178081Y-16617197D01*
X8187605Y-16655293D01*
X8187605Y-16683864D01*
X8178081Y-16721959D01*
X8168557Y-16741007D01*
X8149509Y-16760055D01*
X8120938Y-16769578D01*
X8073319Y-16769578D01*
X8273319Y-16769578D02*
X8273319Y-16636245D01*
X8273319Y-16674340D02*
X8282843Y-16655293D01*
X8292367Y-16645769D01*
X8311414Y-16636245D01*
X8330462Y-16636245D01*
X8397129Y-16769578D02*
X8397129Y-16636245D01*
X8397129Y-16569578D02*
X8387605Y-16579102D01*
X8397129Y-16588626D01*
X8406652Y-16579102D01*
X8397129Y-16569578D01*
X8397129Y-16588626D01*
X8520938Y-16769578D02*
X8501890Y-16760055D01*
X8492367Y-16741007D01*
X8492367Y-16569578D01*
X8625700Y-16769578D02*
X8606652Y-16760055D01*
X8597129Y-16741007D01*
X8597129Y-16569578D01*
X8854271Y-16769578D02*
X8854271Y-16569578D01*
X8920938Y-16712436D01*
X8987605Y-16569578D01*
X8987605Y-16769578D01*
X9168557Y-16769578D02*
X9168557Y-16664816D01*
X9159033Y-16645769D01*
X9139986Y-16636245D01*
X9101890Y-16636245D01*
X9082843Y-16645769D01*
X9168557Y-16760055D02*
X9149510Y-16769578D01*
X9101890Y-16769578D01*
X9082843Y-16760055D01*
X9073319Y-16741007D01*
X9073319Y-16721959D01*
X9082843Y-16702912D01*
X9101890Y-16693388D01*
X9149510Y-16693388D01*
X9168557Y-16683864D01*
X9263795Y-16636245D02*
X9263795Y-16836245D01*
X9263795Y-16645769D02*
X9282843Y-16636245D01*
X9320938Y-16636245D01*
X9339986Y-16645769D01*
X9349510Y-16655293D01*
X9359033Y-16674340D01*
X9359033Y-16731483D01*
X9349510Y-16750531D01*
X9339986Y-16760055D01*
X9320938Y-16769578D01*
X9282843Y-16769578D01*
X9263795Y-16760055D01*
X9444748Y-16750531D02*
X9454271Y-16760055D01*
X9444748Y-16769578D01*
X9435224Y-16760055D01*
X9444748Y-16750531D01*
X9444748Y-16769578D01*
X9444748Y-16645769D02*
X9454271Y-16655293D01*
X9444748Y-16664816D01*
X9435224Y-16655293D01*
X9444748Y-16645769D01*
X9444748Y-16664816D01*
D12*
X7785220Y-17083862D02*
X7815700Y-17114342D01*
X7815700Y-17083862D02*
X7785220Y-17114342D01*
D11*
X8111414Y-16989578D02*
X8130462Y-16989578D01*
X8149509Y-16999102D01*
X8159033Y-17008626D01*
X8168557Y-17027674D01*
X8178081Y-17065769D01*
X8178081Y-17113388D01*
X8168557Y-17151483D01*
X8159033Y-17170531D01*
X8149509Y-17180055D01*
X8130462Y-17189578D01*
X8111414Y-17189578D01*
X8092367Y-17180055D01*
X8082843Y-17170531D01*
X8073319Y-17151483D01*
X8063795Y-17113388D01*
X8063795Y-17065769D01*
X8073319Y-17027674D01*
X8082843Y-17008626D01*
X8092367Y-16999102D01*
X8111414Y-16989578D01*
X8263795Y-17170531D02*
X8273319Y-17180055D01*
X8263795Y-17189578D01*
X8254271Y-17180055D01*
X8263795Y-17170531D01*
X8263795Y-17189578D01*
X8339986Y-16989578D02*
X8463795Y-16989578D01*
X8397129Y-17065769D01*
X8425700Y-17065769D01*
X8444748Y-17075293D01*
X8454271Y-17084817D01*
X8463795Y-17103864D01*
X8463795Y-17151483D01*
X8454271Y-17170531D01*
X8444748Y-17180055D01*
X8425700Y-17189578D01*
X8368557Y-17189578D01*
X8349509Y-17180055D01*
X8339986Y-17170531D01*
X8587605Y-16989578D02*
X8606652Y-16989578D01*
X8625700Y-16999102D01*
X8635224Y-17008626D01*
X8644748Y-17027674D01*
X8654271Y-17065769D01*
X8654271Y-17113388D01*
X8644748Y-17151483D01*
X8635224Y-17170531D01*
X8625700Y-17180055D01*
X8606652Y-17189578D01*
X8587605Y-17189578D01*
X8568557Y-17180055D01*
X8559033Y-17170531D01*
X8549510Y-17151483D01*
X8539986Y-17113388D01*
X8539986Y-17065769D01*
X8549510Y-17027674D01*
X8559033Y-17008626D01*
X8568557Y-16999102D01*
X8587605Y-16989578D01*
X8835224Y-16989578D02*
X8739986Y-16989578D01*
X8730462Y-17084817D01*
X8739986Y-17075293D01*
X8759033Y-17065769D01*
X8806652Y-17065769D01*
X8825700Y-17075293D01*
X8835224Y-17084817D01*
X8844748Y-17103864D01*
X8844748Y-17151483D01*
X8835224Y-17170531D01*
X8825700Y-17180055D01*
X8806652Y-17189578D01*
X8759033Y-17189578D01*
X8739986Y-17180055D01*
X8730462Y-17170531D01*
X8930462Y-17189578D02*
X8930462Y-17056245D01*
X8930462Y-17075293D02*
X8939986Y-17065769D01*
X8959033Y-17056245D01*
X8987605Y-17056245D01*
X9006652Y-17065769D01*
X9016176Y-17084817D01*
X9016176Y-17189578D01*
X9016176Y-17084817D02*
X9025700Y-17065769D01*
X9044748Y-17056245D01*
X9073319Y-17056245D01*
X9092367Y-17065769D01*
X9101890Y-17084817D01*
X9101890Y-17189578D01*
X9197129Y-17189578D02*
X9197129Y-17056245D01*
X9197129Y-17075293D02*
X9206652Y-17065769D01*
X9225700Y-17056245D01*
X9254271Y-17056245D01*
X9273319Y-17065769D01*
X9282843Y-17084817D01*
X9282843Y-17189578D01*
X9282843Y-17084817D02*
X9292367Y-17065769D01*
X9311414Y-17056245D01*
X9339986Y-17056245D01*
X9359033Y-17065769D01*
X9368557Y-17084817D01*
X9368557Y-17189578D01*
X9759033Y-16980055D02*
X9587605Y-17237198D01*
X10016176Y-16989578D02*
X10035224Y-16989578D01*
X10054271Y-16999102D01*
X10063795Y-17008626D01*
X10073319Y-17027674D01*
X10082843Y-17065769D01*
X10082843Y-17113388D01*
X10073319Y-17151483D01*
X10063795Y-17170531D01*
X10054271Y-17180055D01*
X10035224Y-17189578D01*
X10016176Y-17189578D01*
X9997129Y-17180055D01*
X9987605Y-17170531D01*
X9978081Y-17151483D01*
X9968557Y-17113388D01*
X9968557Y-17065769D01*
X9978081Y-17027674D01*
X9987605Y-17008626D01*
X9997129Y-16999102D01*
X10016176Y-16989578D01*
X10168557Y-17170531D02*
X10178081Y-17180055D01*
X10168557Y-17189578D01*
X10159033Y-17180055D01*
X10168557Y-17170531D01*
X10168557Y-17189578D01*
X10301890Y-16989578D02*
X10320938Y-16989578D01*
X10339986Y-16999102D01*
X10349510Y-17008626D01*
X10359033Y-17027674D01*
X10368557Y-17065769D01*
X10368557Y-17113388D01*
X10359033Y-17151483D01*
X10349510Y-17170531D01*
X10339986Y-17180055D01*
X10320938Y-17189578D01*
X10301890Y-17189578D01*
X10282843Y-17180055D01*
X10273319Y-17170531D01*
X10263795Y-17151483D01*
X10254271Y-17113388D01*
X10254271Y-17065769D01*
X10263795Y-17027674D01*
X10273319Y-17008626D01*
X10282843Y-16999102D01*
X10301890Y-16989578D01*
X10559033Y-17189578D02*
X10444748Y-17189578D01*
X10501890Y-17189578D02*
X10501890Y-16989578D01*
X10482843Y-17018150D01*
X10463795Y-17037198D01*
X10444748Y-17046721D01*
X10635224Y-17008626D02*
X10644748Y-16999102D01*
X10663795Y-16989578D01*
X10711414Y-16989578D01*
X10730462Y-16999102D01*
X10739986Y-17008626D01*
X10749510Y-17027674D01*
X10749510Y-17046721D01*
X10739986Y-17075293D01*
X10625700Y-17189578D01*
X10749510Y-17189578D01*
X10873319Y-16989578D02*
X10892367Y-16989578D01*
X10911414Y-16999102D01*
X10920938Y-17008626D01*
X10930462Y-17027674D01*
X10939986Y-17065769D01*
X10939986Y-17113388D01*
X10930462Y-17151483D01*
X10920938Y-17170531D01*
X10911414Y-17180055D01*
X10892367Y-17189578D01*
X10873319Y-17189578D01*
X10854271Y-17180055D01*
X10844748Y-17170531D01*
X10835224Y-17151483D01*
X10825700Y-17113388D01*
X10825700Y-17065769D01*
X10835224Y-17027674D01*
X10844748Y-17008626D01*
X10854271Y-16999102D01*
X10873319Y-16989578D01*
X11016176Y-16989578D02*
X11016176Y-17027674D01*
X11092367Y-16989578D02*
X11092367Y-17027674D01*
X11387605Y-17265769D02*
X11378081Y-17256245D01*
X11359033Y-17227674D01*
X11349509Y-17208626D01*
X11339986Y-17180055D01*
X11330462Y-17132436D01*
X11330462Y-17094340D01*
X11339986Y-17046721D01*
X11349509Y-17018150D01*
X11359033Y-16999102D01*
X11378081Y-16970531D01*
X11387605Y-16961007D01*
X11549509Y-17056245D02*
X11549509Y-17189578D01*
X11501890Y-16980055D02*
X11454271Y-17122912D01*
X11578081Y-17122912D01*
X11682843Y-17075293D02*
X11663795Y-17065769D01*
X11654271Y-17056245D01*
X11644748Y-17037198D01*
X11644748Y-17027674D01*
X11654271Y-17008626D01*
X11663795Y-16999102D01*
X11682843Y-16989578D01*
X11720938Y-16989578D01*
X11739986Y-16999102D01*
X11749509Y-17008626D01*
X11759033Y-17027674D01*
X11759033Y-17037198D01*
X11749509Y-17056245D01*
X11739986Y-17065769D01*
X11720938Y-17075293D01*
X11682843Y-17075293D01*
X11663795Y-17084817D01*
X11654271Y-17094340D01*
X11644748Y-17113388D01*
X11644748Y-17151483D01*
X11654271Y-17170531D01*
X11663795Y-17180055D01*
X11682843Y-17189578D01*
X11720938Y-17189578D01*
X11739986Y-17180055D01*
X11749509Y-17170531D01*
X11759033Y-17151483D01*
X11759033Y-17113388D01*
X11749509Y-17094340D01*
X11739986Y-17084817D01*
X11720938Y-17075293D01*
X11997128Y-17189578D02*
X11997128Y-16989578D01*
X12082843Y-17189578D02*
X12082843Y-17084817D01*
X12073319Y-17065769D01*
X12054271Y-17056245D01*
X12025700Y-17056245D01*
X12006652Y-17065769D01*
X11997128Y-17075293D01*
X12206652Y-17189578D02*
X12187605Y-17180055D01*
X12178081Y-17170531D01*
X12168557Y-17151483D01*
X12168557Y-17094340D01*
X12178081Y-17075293D01*
X12187605Y-17065769D01*
X12206652Y-17056245D01*
X12235224Y-17056245D01*
X12254271Y-17065769D01*
X12263795Y-17075293D01*
X12273319Y-17094340D01*
X12273319Y-17151483D01*
X12263795Y-17170531D01*
X12254271Y-17180055D01*
X12235224Y-17189578D01*
X12206652Y-17189578D01*
X12387605Y-17189578D02*
X12368557Y-17180055D01*
X12359033Y-17161007D01*
X12359033Y-16989578D01*
X12539986Y-17180055D02*
X12520938Y-17189578D01*
X12482843Y-17189578D01*
X12463795Y-17180055D01*
X12454271Y-17161007D01*
X12454271Y-17084817D01*
X12463795Y-17065769D01*
X12482843Y-17056245D01*
X12520938Y-17056245D01*
X12539986Y-17065769D01*
X12549509Y-17084817D01*
X12549509Y-17103864D01*
X12454271Y-17122912D01*
X12625700Y-17180055D02*
X12644748Y-17189578D01*
X12682843Y-17189578D01*
X12701890Y-17180055D01*
X12711414Y-17161007D01*
X12711414Y-17151483D01*
X12701890Y-17132436D01*
X12682843Y-17122912D01*
X12654271Y-17122912D01*
X12635224Y-17113388D01*
X12625700Y-17094340D01*
X12625700Y-17084817D01*
X12635224Y-17065769D01*
X12654271Y-17056245D01*
X12682843Y-17056245D01*
X12701890Y-17065769D01*
X12778081Y-17265769D02*
X12787605Y-17256245D01*
X12806652Y-17227674D01*
X12816176Y-17208626D01*
X12825700Y-17180055D01*
X12835224Y-17132436D01*
X12835224Y-17094340D01*
X12825700Y-17046721D01*
X12816176Y-17018150D01*
X12806652Y-16999102D01*
X12787605Y-16970531D01*
X12778081Y-16961007D01*
D13*
X7815700Y-17363102D02*
G75*
G03*
X7815700Y-17363102I-20000J0D01*
G01*
D11*
X8111414Y-17253578D02*
X8130462Y-17253578D01*
X8149509Y-17263102D01*
X8159033Y-17272626D01*
X8168557Y-17291674D01*
X8178081Y-17329769D01*
X8178081Y-17377388D01*
X8168557Y-17415483D01*
X8159033Y-17434531D01*
X8149509Y-17444055D01*
X8130462Y-17453578D01*
X8111414Y-17453578D01*
X8092367Y-17444055D01*
X8082843Y-17434531D01*
X8073319Y-17415483D01*
X8063795Y-17377388D01*
X8063795Y-17329769D01*
X8073319Y-17291674D01*
X8082843Y-17272626D01*
X8092367Y-17263102D01*
X8111414Y-17253578D01*
X8263795Y-17434531D02*
X8273319Y-17444055D01*
X8263795Y-17453578D01*
X8254271Y-17444055D01*
X8263795Y-17434531D01*
X8263795Y-17453578D01*
X8444748Y-17320245D02*
X8444748Y-17453578D01*
X8397129Y-17244055D02*
X8349509Y-17386912D01*
X8473319Y-17386912D01*
X8587605Y-17253578D02*
X8606652Y-17253578D01*
X8625700Y-17263102D01*
X8635224Y-17272626D01*
X8644748Y-17291674D01*
X8654271Y-17329769D01*
X8654271Y-17377388D01*
X8644748Y-17415483D01*
X8635224Y-17434531D01*
X8625700Y-17444055D01*
X8606652Y-17453578D01*
X8587605Y-17453578D01*
X8568557Y-17444055D01*
X8559033Y-17434531D01*
X8549510Y-17415483D01*
X8539986Y-17377388D01*
X8539986Y-17329769D01*
X8549510Y-17291674D01*
X8559033Y-17272626D01*
X8568557Y-17263102D01*
X8587605Y-17253578D01*
X8778081Y-17253578D02*
X8797129Y-17253578D01*
X8816176Y-17263102D01*
X8825700Y-17272626D01*
X8835224Y-17291674D01*
X8844748Y-17329769D01*
X8844748Y-17377388D01*
X8835224Y-17415483D01*
X8825700Y-17434531D01*
X8816176Y-17444055D01*
X8797129Y-17453578D01*
X8778081Y-17453578D01*
X8759033Y-17444055D01*
X8749510Y-17434531D01*
X8739986Y-17415483D01*
X8730462Y-17377388D01*
X8730462Y-17329769D01*
X8739986Y-17291674D01*
X8749510Y-17272626D01*
X8759033Y-17263102D01*
X8778081Y-17253578D01*
X8930462Y-17453578D02*
X8930462Y-17320245D01*
X8930462Y-17339293D02*
X8939986Y-17329769D01*
X8959033Y-17320245D01*
X8987605Y-17320245D01*
X9006652Y-17329769D01*
X9016176Y-17348817D01*
X9016176Y-17453578D01*
X9016176Y-17348817D02*
X9025700Y-17329769D01*
X9044748Y-17320245D01*
X9073319Y-17320245D01*
X9092367Y-17329769D01*
X9101890Y-17348817D01*
X9101890Y-17453578D01*
X9197129Y-17453578D02*
X9197129Y-17320245D01*
X9197129Y-17339293D02*
X9206652Y-17329769D01*
X9225700Y-17320245D01*
X9254271Y-17320245D01*
X9273319Y-17329769D01*
X9282843Y-17348817D01*
X9282843Y-17453578D01*
X9282843Y-17348817D02*
X9292367Y-17329769D01*
X9311414Y-17320245D01*
X9339986Y-17320245D01*
X9359033Y-17329769D01*
X9368557Y-17348817D01*
X9368557Y-17453578D01*
X9759033Y-17244055D02*
X9587605Y-17501198D01*
X10016176Y-17253578D02*
X10035224Y-17253578D01*
X10054271Y-17263102D01*
X10063795Y-17272626D01*
X10073319Y-17291674D01*
X10082843Y-17329769D01*
X10082843Y-17377388D01*
X10073319Y-17415483D01*
X10063795Y-17434531D01*
X10054271Y-17444055D01*
X10035224Y-17453578D01*
X10016176Y-17453578D01*
X9997129Y-17444055D01*
X9987605Y-17434531D01*
X9978081Y-17415483D01*
X9968557Y-17377388D01*
X9968557Y-17329769D01*
X9978081Y-17291674D01*
X9987605Y-17272626D01*
X9997129Y-17263102D01*
X10016176Y-17253578D01*
X10168557Y-17434531D02*
X10178081Y-17444055D01*
X10168557Y-17453578D01*
X10159033Y-17444055D01*
X10168557Y-17434531D01*
X10168557Y-17453578D01*
X10301890Y-17253578D02*
X10320938Y-17253578D01*
X10339986Y-17263102D01*
X10349510Y-17272626D01*
X10359033Y-17291674D01*
X10368557Y-17329769D01*
X10368557Y-17377388D01*
X10359033Y-17415483D01*
X10349510Y-17434531D01*
X10339986Y-17444055D01*
X10320938Y-17453578D01*
X10301890Y-17453578D01*
X10282843Y-17444055D01*
X10273319Y-17434531D01*
X10263795Y-17415483D01*
X10254271Y-17377388D01*
X10254271Y-17329769D01*
X10263795Y-17291674D01*
X10273319Y-17272626D01*
X10282843Y-17263102D01*
X10301890Y-17253578D01*
X10559033Y-17453578D02*
X10444748Y-17453578D01*
X10501890Y-17453578D02*
X10501890Y-17253578D01*
X10482843Y-17282150D01*
X10463795Y-17301198D01*
X10444748Y-17310721D01*
X10739986Y-17253578D02*
X10644748Y-17253578D01*
X10635224Y-17348817D01*
X10644748Y-17339293D01*
X10663795Y-17329769D01*
X10711414Y-17329769D01*
X10730462Y-17339293D01*
X10739986Y-17348817D01*
X10749510Y-17367864D01*
X10749510Y-17415483D01*
X10739986Y-17434531D01*
X10730462Y-17444055D01*
X10711414Y-17453578D01*
X10663795Y-17453578D01*
X10644748Y-17444055D01*
X10635224Y-17434531D01*
X10816176Y-17253578D02*
X10949510Y-17253578D01*
X10863795Y-17453578D01*
X11016176Y-17253578D02*
X11016176Y-17291674D01*
X11092367Y-17253578D02*
X11092367Y-17291674D01*
X11387605Y-17529769D02*
X11378081Y-17520245D01*
X11359033Y-17491674D01*
X11349509Y-17472626D01*
X11339986Y-17444055D01*
X11330462Y-17396436D01*
X11330462Y-17358340D01*
X11339986Y-17310721D01*
X11349509Y-17282150D01*
X11359033Y-17263102D01*
X11378081Y-17234531D01*
X11387605Y-17225007D01*
X11454271Y-17272626D02*
X11463795Y-17263102D01*
X11482843Y-17253578D01*
X11530462Y-17253578D01*
X11549509Y-17263102D01*
X11559033Y-17272626D01*
X11568557Y-17291674D01*
X11568557Y-17310721D01*
X11559033Y-17339293D01*
X11444748Y-17453578D01*
X11568557Y-17453578D01*
X11663795Y-17453578D02*
X11701890Y-17453578D01*
X11720938Y-17444055D01*
X11730462Y-17434531D01*
X11749509Y-17405959D01*
X11759033Y-17367864D01*
X11759033Y-17291674D01*
X11749509Y-17272626D01*
X11739986Y-17263102D01*
X11720938Y-17253578D01*
X11682843Y-17253578D01*
X11663795Y-17263102D01*
X11654271Y-17272626D01*
X11644748Y-17291674D01*
X11644748Y-17339293D01*
X11654271Y-17358340D01*
X11663795Y-17367864D01*
X11682843Y-17377388D01*
X11720938Y-17377388D01*
X11739986Y-17367864D01*
X11749509Y-17358340D01*
X11759033Y-17339293D01*
X11835224Y-17272626D02*
X11844748Y-17263102D01*
X11863795Y-17253578D01*
X11911414Y-17253578D01*
X11930462Y-17263102D01*
X11939986Y-17272626D01*
X11949509Y-17291674D01*
X11949509Y-17310721D01*
X11939986Y-17339293D01*
X11825700Y-17453578D01*
X11949509Y-17453578D01*
X12187605Y-17453578D02*
X12187605Y-17253578D01*
X12273319Y-17453578D02*
X12273319Y-17348817D01*
X12263795Y-17329769D01*
X12244748Y-17320245D01*
X12216176Y-17320245D01*
X12197128Y-17329769D01*
X12187605Y-17339293D01*
X12397128Y-17453578D02*
X12378081Y-17444055D01*
X12368557Y-17434531D01*
X12359033Y-17415483D01*
X12359033Y-17358340D01*
X12368557Y-17339293D01*
X12378081Y-17329769D01*
X12397128Y-17320245D01*
X12425700Y-17320245D01*
X12444748Y-17329769D01*
X12454271Y-17339293D01*
X12463795Y-17358340D01*
X12463795Y-17415483D01*
X12454271Y-17434531D01*
X12444748Y-17444055D01*
X12425700Y-17453578D01*
X12397128Y-17453578D01*
X12578081Y-17453578D02*
X12559033Y-17444055D01*
X12549509Y-17425007D01*
X12549509Y-17253578D01*
X12730462Y-17444055D02*
X12711414Y-17453578D01*
X12673319Y-17453578D01*
X12654271Y-17444055D01*
X12644748Y-17425007D01*
X12644748Y-17348817D01*
X12654271Y-17329769D01*
X12673319Y-17320245D01*
X12711414Y-17320245D01*
X12730462Y-17329769D01*
X12739986Y-17348817D01*
X12739986Y-17367864D01*
X12644748Y-17386912D01*
X12816176Y-17444055D02*
X12835224Y-17453578D01*
X12873319Y-17453578D01*
X12892367Y-17444055D01*
X12901890Y-17425007D01*
X12901890Y-17415483D01*
X12892367Y-17396436D01*
X12873319Y-17386912D01*
X12844748Y-17386912D01*
X12825700Y-17377388D01*
X12816176Y-17358340D01*
X12816176Y-17348817D01*
X12825700Y-17329769D01*
X12844748Y-17320245D01*
X12873319Y-17320245D01*
X12892367Y-17329769D01*
X12968557Y-17529769D02*
X12978081Y-17520245D01*
X12997128Y-17491674D01*
X13006652Y-17472626D01*
X13016176Y-17444055D01*
X13025700Y-17396436D01*
X13025700Y-17358340D01*
X13016176Y-17310721D01*
X13006652Y-17282150D01*
X12997128Y-17263102D01*
X12978081Y-17234531D01*
X12968557Y-17225007D01*
D13*
X7795700Y-17607102D02*
X7795700Y-17647102D01*
X7775700Y-17627102D02*
X7815700Y-17627102D01*
D11*
X8111414Y-17517578D02*
X8130462Y-17517578D01*
X8149509Y-17527102D01*
X8159033Y-17536626D01*
X8168557Y-17555674D01*
X8178081Y-17593769D01*
X8178081Y-17641388D01*
X8168557Y-17679483D01*
X8159033Y-17698531D01*
X8149509Y-17708055D01*
X8130462Y-17717578D01*
X8111414Y-17717578D01*
X8092367Y-17708055D01*
X8082843Y-17698531D01*
X8073319Y-17679483D01*
X8063795Y-17641388D01*
X8063795Y-17593769D01*
X8073319Y-17555674D01*
X8082843Y-17536626D01*
X8092367Y-17527102D01*
X8111414Y-17517578D01*
X8263795Y-17698531D02*
X8273319Y-17708055D01*
X8263795Y-17717578D01*
X8254271Y-17708055D01*
X8263795Y-17698531D01*
X8263795Y-17717578D01*
X8444748Y-17584245D02*
X8444748Y-17717578D01*
X8397129Y-17508055D02*
X8349509Y-17650912D01*
X8473319Y-17650912D01*
X8587605Y-17517578D02*
X8606652Y-17517578D01*
X8625700Y-17527102D01*
X8635224Y-17536626D01*
X8644748Y-17555674D01*
X8654271Y-17593769D01*
X8654271Y-17641388D01*
X8644748Y-17679483D01*
X8635224Y-17698531D01*
X8625700Y-17708055D01*
X8606652Y-17717578D01*
X8587605Y-17717578D01*
X8568557Y-17708055D01*
X8559033Y-17698531D01*
X8549510Y-17679483D01*
X8539986Y-17641388D01*
X8539986Y-17593769D01*
X8549510Y-17555674D01*
X8559033Y-17536626D01*
X8568557Y-17527102D01*
X8587605Y-17517578D01*
X8778081Y-17517578D02*
X8797129Y-17517578D01*
X8816176Y-17527102D01*
X8825700Y-17536626D01*
X8835224Y-17555674D01*
X8844748Y-17593769D01*
X8844748Y-17641388D01*
X8835224Y-17679483D01*
X8825700Y-17698531D01*
X8816176Y-17708055D01*
X8797129Y-17717578D01*
X8778081Y-17717578D01*
X8759033Y-17708055D01*
X8749510Y-17698531D01*
X8739986Y-17679483D01*
X8730462Y-17641388D01*
X8730462Y-17593769D01*
X8739986Y-17555674D01*
X8749510Y-17536626D01*
X8759033Y-17527102D01*
X8778081Y-17517578D01*
X8930462Y-17717578D02*
X8930462Y-17584245D01*
X8930462Y-17603293D02*
X8939986Y-17593769D01*
X8959033Y-17584245D01*
X8987605Y-17584245D01*
X9006652Y-17593769D01*
X9016176Y-17612817D01*
X9016176Y-17717578D01*
X9016176Y-17612817D02*
X9025700Y-17593769D01*
X9044748Y-17584245D01*
X9073319Y-17584245D01*
X9092367Y-17593769D01*
X9101890Y-17612817D01*
X9101890Y-17717578D01*
X9197129Y-17717578D02*
X9197129Y-17584245D01*
X9197129Y-17603293D02*
X9206652Y-17593769D01*
X9225700Y-17584245D01*
X9254271Y-17584245D01*
X9273319Y-17593769D01*
X9282843Y-17612817D01*
X9282843Y-17717578D01*
X9282843Y-17612817D02*
X9292367Y-17593769D01*
X9311414Y-17584245D01*
X9339986Y-17584245D01*
X9359033Y-17593769D01*
X9368557Y-17612817D01*
X9368557Y-17717578D01*
X9759033Y-17508055D02*
X9587605Y-17765198D01*
X10016176Y-17517578D02*
X10035224Y-17517578D01*
X10054271Y-17527102D01*
X10063795Y-17536626D01*
X10073319Y-17555674D01*
X10082843Y-17593769D01*
X10082843Y-17641388D01*
X10073319Y-17679483D01*
X10063795Y-17698531D01*
X10054271Y-17708055D01*
X10035224Y-17717578D01*
X10016176Y-17717578D01*
X9997129Y-17708055D01*
X9987605Y-17698531D01*
X9978081Y-17679483D01*
X9968557Y-17641388D01*
X9968557Y-17593769D01*
X9978081Y-17555674D01*
X9987605Y-17536626D01*
X9997129Y-17527102D01*
X10016176Y-17517578D01*
X10168557Y-17698531D02*
X10178081Y-17708055D01*
X10168557Y-17717578D01*
X10159033Y-17708055D01*
X10168557Y-17698531D01*
X10168557Y-17717578D01*
X10301890Y-17517578D02*
X10320938Y-17517578D01*
X10339986Y-17527102D01*
X10349510Y-17536626D01*
X10359033Y-17555674D01*
X10368557Y-17593769D01*
X10368557Y-17641388D01*
X10359033Y-17679483D01*
X10349510Y-17698531D01*
X10339986Y-17708055D01*
X10320938Y-17717578D01*
X10301890Y-17717578D01*
X10282843Y-17708055D01*
X10273319Y-17698531D01*
X10263795Y-17679483D01*
X10254271Y-17641388D01*
X10254271Y-17593769D01*
X10263795Y-17555674D01*
X10273319Y-17536626D01*
X10282843Y-17527102D01*
X10301890Y-17517578D01*
X10559033Y-17717578D02*
X10444748Y-17717578D01*
X10501890Y-17717578D02*
X10501890Y-17517578D01*
X10482843Y-17546150D01*
X10463795Y-17565198D01*
X10444748Y-17574721D01*
X10739986Y-17517578D02*
X10644748Y-17517578D01*
X10635224Y-17612817D01*
X10644748Y-17603293D01*
X10663795Y-17593769D01*
X10711414Y-17593769D01*
X10730462Y-17603293D01*
X10739986Y-17612817D01*
X10749510Y-17631864D01*
X10749510Y-17679483D01*
X10739986Y-17698531D01*
X10730462Y-17708055D01*
X10711414Y-17717578D01*
X10663795Y-17717578D01*
X10644748Y-17708055D01*
X10635224Y-17698531D01*
X10816176Y-17517578D02*
X10949510Y-17517578D01*
X10863795Y-17717578D01*
X11016176Y-17517578D02*
X11016176Y-17555674D01*
X11092367Y-17517578D02*
X11092367Y-17555674D01*
X11387605Y-17793769D02*
X11378081Y-17784245D01*
X11359033Y-17755674D01*
X11349509Y-17736626D01*
X11339986Y-17708055D01*
X11330462Y-17660436D01*
X11330462Y-17622340D01*
X11339986Y-17574721D01*
X11349509Y-17546150D01*
X11359033Y-17527102D01*
X11378081Y-17498531D01*
X11387605Y-17489007D01*
X11444748Y-17517578D02*
X11578081Y-17517578D01*
X11492367Y-17717578D01*
X11739986Y-17517578D02*
X11701890Y-17517578D01*
X11682843Y-17527102D01*
X11673319Y-17536626D01*
X11654271Y-17565198D01*
X11644748Y-17603293D01*
X11644748Y-17679483D01*
X11654271Y-17698531D01*
X11663795Y-17708055D01*
X11682843Y-17717578D01*
X11720938Y-17717578D01*
X11739986Y-17708055D01*
X11749509Y-17698531D01*
X11759033Y-17679483D01*
X11759033Y-17631864D01*
X11749509Y-17612817D01*
X11739986Y-17603293D01*
X11720938Y-17593769D01*
X11682843Y-17593769D01*
X11663795Y-17603293D01*
X11654271Y-17612817D01*
X11644748Y-17631864D01*
X11997128Y-17717578D02*
X11997128Y-17517578D01*
X12082843Y-17717578D02*
X12082843Y-17612817D01*
X12073319Y-17593769D01*
X12054271Y-17584245D01*
X12025700Y-17584245D01*
X12006652Y-17593769D01*
X11997128Y-17603293D01*
X12206652Y-17717578D02*
X12187605Y-17708055D01*
X12178081Y-17698531D01*
X12168557Y-17679483D01*
X12168557Y-17622340D01*
X12178081Y-17603293D01*
X12187605Y-17593769D01*
X12206652Y-17584245D01*
X12235224Y-17584245D01*
X12254271Y-17593769D01*
X12263795Y-17603293D01*
X12273319Y-17622340D01*
X12273319Y-17679483D01*
X12263795Y-17698531D01*
X12254271Y-17708055D01*
X12235224Y-17717578D01*
X12206652Y-17717578D01*
X12387605Y-17717578D02*
X12368557Y-17708055D01*
X12359033Y-17689007D01*
X12359033Y-17517578D01*
X12539986Y-17708055D02*
X12520938Y-17717578D01*
X12482843Y-17717578D01*
X12463795Y-17708055D01*
X12454271Y-17689007D01*
X12454271Y-17612817D01*
X12463795Y-17593769D01*
X12482843Y-17584245D01*
X12520938Y-17584245D01*
X12539986Y-17593769D01*
X12549509Y-17612817D01*
X12549509Y-17631864D01*
X12454271Y-17650912D01*
X12625700Y-17708055D02*
X12644748Y-17717578D01*
X12682843Y-17717578D01*
X12701890Y-17708055D01*
X12711414Y-17689007D01*
X12711414Y-17679483D01*
X12701890Y-17660436D01*
X12682843Y-17650912D01*
X12654271Y-17650912D01*
X12635224Y-17641388D01*
X12625700Y-17622340D01*
X12625700Y-17612817D01*
X12635224Y-17593769D01*
X12654271Y-17584245D01*
X12682843Y-17584245D01*
X12701890Y-17593769D01*
X12778081Y-17793769D02*
X12787605Y-17784245D01*
X12806652Y-17755674D01*
X12816176Y-17736626D01*
X12825700Y-17708055D01*
X12835224Y-17660436D01*
X12835224Y-17622340D01*
X12825700Y-17574721D01*
X12816176Y-17546150D01*
X12806652Y-17527102D01*
X12787605Y-17498531D01*
X12778081Y-17489007D01*
D14*
X7804541Y-17918043D02*
X7804541Y-17864161D01*
X7750659Y-17864161D01*
X7750659Y-17918043D01*
X7804541Y-17918043D01*
D11*
X8111414Y-17781578D02*
X8130462Y-17781578D01*
X8149509Y-17791102D01*
X8159033Y-17800626D01*
X8168557Y-17819674D01*
X8178081Y-17857769D01*
X8178081Y-17905388D01*
X8168557Y-17943483D01*
X8159033Y-17962531D01*
X8149509Y-17972055D01*
X8130462Y-17981578D01*
X8111414Y-17981578D01*
X8092367Y-17972055D01*
X8082843Y-17962531D01*
X8073319Y-17943483D01*
X8063795Y-17905388D01*
X8063795Y-17857769D01*
X8073319Y-17819674D01*
X8082843Y-17800626D01*
X8092367Y-17791102D01*
X8111414Y-17781578D01*
X8263795Y-17962531D02*
X8273319Y-17972055D01*
X8263795Y-17981578D01*
X8254271Y-17972055D01*
X8263795Y-17962531D01*
X8263795Y-17981578D01*
X8339986Y-17781578D02*
X8473319Y-17781578D01*
X8387605Y-17981578D01*
X8635224Y-17781578D02*
X8597129Y-17781578D01*
X8578081Y-17791102D01*
X8568557Y-17800626D01*
X8549510Y-17829198D01*
X8539986Y-17867293D01*
X8539986Y-17943483D01*
X8549510Y-17962531D01*
X8559033Y-17972055D01*
X8578081Y-17981578D01*
X8616176Y-17981578D01*
X8635224Y-17972055D01*
X8644748Y-17962531D01*
X8654271Y-17943483D01*
X8654271Y-17895864D01*
X8644748Y-17876817D01*
X8635224Y-17867293D01*
X8616176Y-17857769D01*
X8578081Y-17857769D01*
X8559033Y-17867293D01*
X8549510Y-17876817D01*
X8539986Y-17895864D01*
X8730462Y-17800626D02*
X8739986Y-17791102D01*
X8759033Y-17781578D01*
X8806652Y-17781578D01*
X8825700Y-17791102D01*
X8835224Y-17800626D01*
X8844748Y-17819674D01*
X8844748Y-17838721D01*
X8835224Y-17867293D01*
X8720938Y-17981578D01*
X8844748Y-17981578D01*
X8930462Y-17981578D02*
X8930462Y-17848245D01*
X8930462Y-17867293D02*
X8939986Y-17857769D01*
X8959033Y-17848245D01*
X8987605Y-17848245D01*
X9006652Y-17857769D01*
X9016176Y-17876817D01*
X9016176Y-17981578D01*
X9016176Y-17876817D02*
X9025700Y-17857769D01*
X9044748Y-17848245D01*
X9073319Y-17848245D01*
X9092367Y-17857769D01*
X9101890Y-17876817D01*
X9101890Y-17981578D01*
X9197129Y-17981578D02*
X9197129Y-17848245D01*
X9197129Y-17867293D02*
X9206652Y-17857769D01*
X9225700Y-17848245D01*
X9254271Y-17848245D01*
X9273319Y-17857769D01*
X9282843Y-17876817D01*
X9282843Y-17981578D01*
X9282843Y-17876817D02*
X9292367Y-17857769D01*
X9311414Y-17848245D01*
X9339986Y-17848245D01*
X9359033Y-17857769D01*
X9368557Y-17876817D01*
X9368557Y-17981578D01*
X9759033Y-17772055D02*
X9587605Y-18029198D01*
X10016176Y-17781578D02*
X10035224Y-17781578D01*
X10054271Y-17791102D01*
X10063795Y-17800626D01*
X10073319Y-17819674D01*
X10082843Y-17857769D01*
X10082843Y-17905388D01*
X10073319Y-17943483D01*
X10063795Y-17962531D01*
X10054271Y-17972055D01*
X10035224Y-17981578D01*
X10016176Y-17981578D01*
X9997129Y-17972055D01*
X9987605Y-17962531D01*
X9978081Y-17943483D01*
X9968557Y-17905388D01*
X9968557Y-17857769D01*
X9978081Y-17819674D01*
X9987605Y-17800626D01*
X9997129Y-17791102D01*
X10016176Y-17781578D01*
X10168557Y-17962531D02*
X10178081Y-17972055D01*
X10168557Y-17981578D01*
X10159033Y-17972055D01*
X10168557Y-17962531D01*
X10168557Y-17981578D01*
X10301890Y-17781578D02*
X10320938Y-17781578D01*
X10339986Y-17791102D01*
X10349510Y-17800626D01*
X10359033Y-17819674D01*
X10368557Y-17857769D01*
X10368557Y-17905388D01*
X10359033Y-17943483D01*
X10349510Y-17962531D01*
X10339986Y-17972055D01*
X10320938Y-17981578D01*
X10301890Y-17981578D01*
X10282843Y-17972055D01*
X10273319Y-17962531D01*
X10263795Y-17943483D01*
X10254271Y-17905388D01*
X10254271Y-17857769D01*
X10263795Y-17819674D01*
X10273319Y-17800626D01*
X10282843Y-17791102D01*
X10301890Y-17781578D01*
X10435224Y-17781578D02*
X10559033Y-17781578D01*
X10492367Y-17857769D01*
X10520938Y-17857769D01*
X10539986Y-17867293D01*
X10549510Y-17876817D01*
X10559033Y-17895864D01*
X10559033Y-17943483D01*
X10549510Y-17962531D01*
X10539986Y-17972055D01*
X10520938Y-17981578D01*
X10463795Y-17981578D01*
X10444748Y-17972055D01*
X10435224Y-17962531D01*
X10682843Y-17781578D02*
X10701890Y-17781578D01*
X10720938Y-17791102D01*
X10730462Y-17800626D01*
X10739986Y-17819674D01*
X10749510Y-17857769D01*
X10749510Y-17905388D01*
X10739986Y-17943483D01*
X10730462Y-17962531D01*
X10720938Y-17972055D01*
X10701890Y-17981578D01*
X10682843Y-17981578D01*
X10663795Y-17972055D01*
X10654271Y-17962531D01*
X10644748Y-17943483D01*
X10635224Y-17905388D01*
X10635224Y-17857769D01*
X10644748Y-17819674D01*
X10654271Y-17800626D01*
X10663795Y-17791102D01*
X10682843Y-17781578D01*
X10873319Y-17781578D02*
X10892367Y-17781578D01*
X10911414Y-17791102D01*
X10920938Y-17800626D01*
X10930462Y-17819674D01*
X10939986Y-17857769D01*
X10939986Y-17905388D01*
X10930462Y-17943483D01*
X10920938Y-17962531D01*
X10911414Y-17972055D01*
X10892367Y-17981578D01*
X10873319Y-17981578D01*
X10854271Y-17972055D01*
X10844748Y-17962531D01*
X10835224Y-17943483D01*
X10825700Y-17905388D01*
X10825700Y-17857769D01*
X10835224Y-17819674D01*
X10844748Y-17800626D01*
X10854271Y-17791102D01*
X10873319Y-17781578D01*
X11016176Y-17781578D02*
X11016176Y-17819674D01*
X11092367Y-17781578D02*
X11092367Y-17819674D01*
X11387605Y-18057769D02*
X11378081Y-18048245D01*
X11359033Y-18019674D01*
X11349509Y-18000626D01*
X11339986Y-17972055D01*
X11330462Y-17924436D01*
X11330462Y-17886340D01*
X11339986Y-17838721D01*
X11349509Y-17810150D01*
X11359033Y-17791102D01*
X11378081Y-17762531D01*
X11387605Y-17753007D01*
X11549509Y-17781578D02*
X11511414Y-17781578D01*
X11492367Y-17791102D01*
X11482843Y-17800626D01*
X11463795Y-17829198D01*
X11454271Y-17867293D01*
X11454271Y-17943483D01*
X11463795Y-17962531D01*
X11473319Y-17972055D01*
X11492367Y-17981578D01*
X11530462Y-17981578D01*
X11549509Y-17972055D01*
X11559033Y-17962531D01*
X11568557Y-17943483D01*
X11568557Y-17895864D01*
X11559033Y-17876817D01*
X11549509Y-17867293D01*
X11530462Y-17857769D01*
X11492367Y-17857769D01*
X11473319Y-17867293D01*
X11463795Y-17876817D01*
X11454271Y-17895864D01*
X11806652Y-17981578D02*
X11806652Y-17781578D01*
X11892367Y-17981578D02*
X11892367Y-17876817D01*
X11882843Y-17857769D01*
X11863795Y-17848245D01*
X11835224Y-17848245D01*
X11816176Y-17857769D01*
X11806652Y-17867293D01*
X12016176Y-17981578D02*
X11997128Y-17972055D01*
X11987605Y-17962531D01*
X11978081Y-17943483D01*
X11978081Y-17886340D01*
X11987605Y-17867293D01*
X11997128Y-17857769D01*
X12016176Y-17848245D01*
X12044748Y-17848245D01*
X12063795Y-17857769D01*
X12073319Y-17867293D01*
X12082843Y-17886340D01*
X12082843Y-17943483D01*
X12073319Y-17962531D01*
X12063795Y-17972055D01*
X12044748Y-17981578D01*
X12016176Y-17981578D01*
X12197128Y-17981578D02*
X12178081Y-17972055D01*
X12168557Y-17953007D01*
X12168557Y-17781578D01*
X12349509Y-17972055D02*
X12330462Y-17981578D01*
X12292367Y-17981578D01*
X12273319Y-17972055D01*
X12263795Y-17953007D01*
X12263795Y-17876817D01*
X12273319Y-17857769D01*
X12292367Y-17848245D01*
X12330462Y-17848245D01*
X12349509Y-17857769D01*
X12359033Y-17876817D01*
X12359033Y-17895864D01*
X12263795Y-17914912D01*
X12435224Y-17972055D02*
X12454271Y-17981578D01*
X12492367Y-17981578D01*
X12511414Y-17972055D01*
X12520938Y-17953007D01*
X12520938Y-17943483D01*
X12511414Y-17924436D01*
X12492367Y-17914912D01*
X12463795Y-17914912D01*
X12444748Y-17905388D01*
X12435224Y-17886340D01*
X12435224Y-17876817D01*
X12444748Y-17857769D01*
X12463795Y-17848245D01*
X12492367Y-17848245D01*
X12511414Y-17857769D01*
X12587605Y-18057769D02*
X12597128Y-18048245D01*
X12616176Y-18019674D01*
X12625700Y-18000626D01*
X12635224Y-17972055D01*
X12644748Y-17924436D01*
X12644748Y-17886340D01*
X12635224Y-17838721D01*
X12625700Y-17810150D01*
X12616176Y-17791102D01*
X12597128Y-17762531D01*
X12587605Y-17753007D01*
D15*
X7775060Y-18195742D02*
X7815700Y-18155102D01*
X7775060Y-18114462D01*
X7734420Y-18155102D01*
X7775060Y-18195742D01*
D11*
X8111414Y-18045578D02*
X8130462Y-18045578D01*
X8149509Y-18055102D01*
X8159033Y-18064626D01*
X8168557Y-18083674D01*
X8178081Y-18121769D01*
X8178081Y-18169388D01*
X8168557Y-18207483D01*
X8159033Y-18226531D01*
X8149509Y-18236055D01*
X8130462Y-18245578D01*
X8111414Y-18245578D01*
X8092367Y-18236055D01*
X8082843Y-18226531D01*
X8073319Y-18207483D01*
X8063795Y-18169388D01*
X8063795Y-18121769D01*
X8073319Y-18083674D01*
X8082843Y-18064626D01*
X8092367Y-18055102D01*
X8111414Y-18045578D01*
X8263795Y-18226531D02*
X8273319Y-18236055D01*
X8263795Y-18245578D01*
X8254271Y-18236055D01*
X8263795Y-18226531D01*
X8263795Y-18245578D01*
X8387605Y-18131293D02*
X8368557Y-18121769D01*
X8359033Y-18112245D01*
X8349509Y-18093198D01*
X8349509Y-18083674D01*
X8359033Y-18064626D01*
X8368557Y-18055102D01*
X8387605Y-18045578D01*
X8425700Y-18045578D01*
X8444748Y-18055102D01*
X8454271Y-18064626D01*
X8463795Y-18083674D01*
X8463795Y-18093198D01*
X8454271Y-18112245D01*
X8444748Y-18121769D01*
X8425700Y-18131293D01*
X8387605Y-18131293D01*
X8368557Y-18140817D01*
X8359033Y-18150340D01*
X8349509Y-18169388D01*
X8349509Y-18207483D01*
X8359033Y-18226531D01*
X8368557Y-18236055D01*
X8387605Y-18245578D01*
X8425700Y-18245578D01*
X8444748Y-18236055D01*
X8454271Y-18226531D01*
X8463795Y-18207483D01*
X8463795Y-18169388D01*
X8454271Y-18150340D01*
X8444748Y-18140817D01*
X8425700Y-18131293D01*
X8654271Y-18245578D02*
X8539986Y-18245578D01*
X8597129Y-18245578D02*
X8597129Y-18045578D01*
X8578081Y-18074150D01*
X8559033Y-18093198D01*
X8539986Y-18102721D01*
X8720938Y-18045578D02*
X8844748Y-18045578D01*
X8778081Y-18121769D01*
X8806652Y-18121769D01*
X8825700Y-18131293D01*
X8835224Y-18140817D01*
X8844748Y-18159864D01*
X8844748Y-18207483D01*
X8835224Y-18226531D01*
X8825700Y-18236055D01*
X8806652Y-18245578D01*
X8749510Y-18245578D01*
X8730462Y-18236055D01*
X8720938Y-18226531D01*
X8930462Y-18245578D02*
X8930462Y-18112245D01*
X8930462Y-18131293D02*
X8939986Y-18121769D01*
X8959033Y-18112245D01*
X8987605Y-18112245D01*
X9006652Y-18121769D01*
X9016176Y-18140817D01*
X9016176Y-18245578D01*
X9016176Y-18140817D02*
X9025700Y-18121769D01*
X9044748Y-18112245D01*
X9073319Y-18112245D01*
X9092367Y-18121769D01*
X9101890Y-18140817D01*
X9101890Y-18245578D01*
X9197129Y-18245578D02*
X9197129Y-18112245D01*
X9197129Y-18131293D02*
X9206652Y-18121769D01*
X9225700Y-18112245D01*
X9254271Y-18112245D01*
X9273319Y-18121769D01*
X9282843Y-18140817D01*
X9282843Y-18245578D01*
X9282843Y-18140817D02*
X9292367Y-18121769D01*
X9311414Y-18112245D01*
X9339986Y-18112245D01*
X9359033Y-18121769D01*
X9368557Y-18140817D01*
X9368557Y-18245578D01*
X9759033Y-18036055D02*
X9587605Y-18293198D01*
X10016176Y-18045578D02*
X10035224Y-18045578D01*
X10054271Y-18055102D01*
X10063795Y-18064626D01*
X10073319Y-18083674D01*
X10082843Y-18121769D01*
X10082843Y-18169388D01*
X10073319Y-18207483D01*
X10063795Y-18226531D01*
X10054271Y-18236055D01*
X10035224Y-18245578D01*
X10016176Y-18245578D01*
X9997129Y-18236055D01*
X9987605Y-18226531D01*
X9978081Y-18207483D01*
X9968557Y-18169388D01*
X9968557Y-18121769D01*
X9978081Y-18083674D01*
X9987605Y-18064626D01*
X9997129Y-18055102D01*
X10016176Y-18045578D01*
X10168557Y-18226531D02*
X10178081Y-18236055D01*
X10168557Y-18245578D01*
X10159033Y-18236055D01*
X10168557Y-18226531D01*
X10168557Y-18245578D01*
X10301890Y-18045578D02*
X10320938Y-18045578D01*
X10339986Y-18055102D01*
X10349510Y-18064626D01*
X10359033Y-18083674D01*
X10368557Y-18121769D01*
X10368557Y-18169388D01*
X10359033Y-18207483D01*
X10349510Y-18226531D01*
X10339986Y-18236055D01*
X10320938Y-18245578D01*
X10301890Y-18245578D01*
X10282843Y-18236055D01*
X10273319Y-18226531D01*
X10263795Y-18207483D01*
X10254271Y-18169388D01*
X10254271Y-18121769D01*
X10263795Y-18083674D01*
X10273319Y-18064626D01*
X10282843Y-18055102D01*
X10301890Y-18045578D01*
X10435224Y-18045578D02*
X10559033Y-18045578D01*
X10492367Y-18121769D01*
X10520938Y-18121769D01*
X10539986Y-18131293D01*
X10549510Y-18140817D01*
X10559033Y-18159864D01*
X10559033Y-18207483D01*
X10549510Y-18226531D01*
X10539986Y-18236055D01*
X10520938Y-18245578D01*
X10463795Y-18245578D01*
X10444748Y-18236055D01*
X10435224Y-18226531D01*
X10635224Y-18064626D02*
X10644748Y-18055102D01*
X10663795Y-18045578D01*
X10711414Y-18045578D01*
X10730462Y-18055102D01*
X10739986Y-18064626D01*
X10749510Y-18083674D01*
X10749510Y-18102721D01*
X10739986Y-18131293D01*
X10625700Y-18245578D01*
X10749510Y-18245578D01*
X10873319Y-18045578D02*
X10892367Y-18045578D01*
X10911414Y-18055102D01*
X10920938Y-18064626D01*
X10930462Y-18083674D01*
X10939986Y-18121769D01*
X10939986Y-18169388D01*
X10930462Y-18207483D01*
X10920938Y-18226531D01*
X10911414Y-18236055D01*
X10892367Y-18245578D01*
X10873319Y-18245578D01*
X10854271Y-18236055D01*
X10844748Y-18226531D01*
X10835224Y-18207483D01*
X10825700Y-18169388D01*
X10825700Y-18121769D01*
X10835224Y-18083674D01*
X10844748Y-18064626D01*
X10854271Y-18055102D01*
X10873319Y-18045578D01*
X11016176Y-18045578D02*
X11016176Y-18083674D01*
X11092367Y-18045578D02*
X11092367Y-18083674D01*
X11387605Y-18321769D02*
X11378081Y-18312245D01*
X11359033Y-18283674D01*
X11349509Y-18264626D01*
X11339986Y-18236055D01*
X11330462Y-18188436D01*
X11330462Y-18150340D01*
X11339986Y-18102721D01*
X11349509Y-18074150D01*
X11359033Y-18055102D01*
X11378081Y-18026531D01*
X11387605Y-18017007D01*
X11559033Y-18045578D02*
X11463795Y-18045578D01*
X11454271Y-18140817D01*
X11463795Y-18131293D01*
X11482843Y-18121769D01*
X11530462Y-18121769D01*
X11549509Y-18131293D01*
X11559033Y-18140817D01*
X11568557Y-18159864D01*
X11568557Y-18207483D01*
X11559033Y-18226531D01*
X11549509Y-18236055D01*
X11530462Y-18245578D01*
X11482843Y-18245578D01*
X11463795Y-18236055D01*
X11454271Y-18226531D01*
X11806652Y-18245578D02*
X11806652Y-18045578D01*
X11892367Y-18245578D02*
X11892367Y-18140817D01*
X11882843Y-18121769D01*
X11863795Y-18112245D01*
X11835224Y-18112245D01*
X11816176Y-18121769D01*
X11806652Y-18131293D01*
X12016176Y-18245578D02*
X11997128Y-18236055D01*
X11987605Y-18226531D01*
X11978081Y-18207483D01*
X11978081Y-18150340D01*
X11987605Y-18131293D01*
X11997128Y-18121769D01*
X12016176Y-18112245D01*
X12044748Y-18112245D01*
X12063795Y-18121769D01*
X12073319Y-18131293D01*
X12082843Y-18150340D01*
X12082843Y-18207483D01*
X12073319Y-18226531D01*
X12063795Y-18236055D01*
X12044748Y-18245578D01*
X12016176Y-18245578D01*
X12197128Y-18245578D02*
X12178081Y-18236055D01*
X12168557Y-18217007D01*
X12168557Y-18045578D01*
X12349509Y-18236055D02*
X12330462Y-18245578D01*
X12292367Y-18245578D01*
X12273319Y-18236055D01*
X12263795Y-18217007D01*
X12263795Y-18140817D01*
X12273319Y-18121769D01*
X12292367Y-18112245D01*
X12330462Y-18112245D01*
X12349509Y-18121769D01*
X12359033Y-18140817D01*
X12359033Y-18159864D01*
X12263795Y-18178912D01*
X12435224Y-18236055D02*
X12454271Y-18245578D01*
X12492367Y-18245578D01*
X12511414Y-18236055D01*
X12520938Y-18217007D01*
X12520938Y-18207483D01*
X12511414Y-18188436D01*
X12492367Y-18178912D01*
X12463795Y-18178912D01*
X12444748Y-18169388D01*
X12435224Y-18150340D01*
X12435224Y-18140817D01*
X12444748Y-18121769D01*
X12463795Y-18112245D01*
X12492367Y-18112245D01*
X12511414Y-18121769D01*
X12587605Y-18321769D02*
X12597128Y-18312245D01*
X12616176Y-18283674D01*
X12625700Y-18264626D01*
X12635224Y-18236055D01*
X12644748Y-18188436D01*
X12644748Y-18150340D01*
X12635224Y-18102721D01*
X12625700Y-18074150D01*
X12616176Y-18055102D01*
X12597128Y-18026531D01*
X12587605Y-18017007D01*
D16*
X7715700Y-18369102D02*
X7815700Y-18469102D01*
X7815700Y-18369102D02*
X7715700Y-18469102D01*
X7815700Y-18419102D02*
G75*
G03*
X7815700Y-18419102I-50000J0D01*
G01*
D11*
X8178081Y-18509578D02*
X8063795Y-18509578D01*
X8120938Y-18509578D02*
X8120938Y-18309578D01*
X8101890Y-18338150D01*
X8082843Y-18357198D01*
X8063795Y-18366721D01*
X8263795Y-18490531D02*
X8273319Y-18500055D01*
X8263795Y-18509578D01*
X8254271Y-18500055D01*
X8263795Y-18490531D01*
X8263795Y-18509578D01*
X8397129Y-18309578D02*
X8416176Y-18309578D01*
X8435224Y-18319102D01*
X8444748Y-18328626D01*
X8454271Y-18347674D01*
X8463795Y-18385769D01*
X8463795Y-18433388D01*
X8454271Y-18471483D01*
X8444748Y-18490531D01*
X8435224Y-18500055D01*
X8416176Y-18509578D01*
X8397129Y-18509578D01*
X8378081Y-18500055D01*
X8368557Y-18490531D01*
X8359033Y-18471483D01*
X8349509Y-18433388D01*
X8349509Y-18385769D01*
X8359033Y-18347674D01*
X8368557Y-18328626D01*
X8378081Y-18319102D01*
X8397129Y-18309578D01*
X8587605Y-18309578D02*
X8606652Y-18309578D01*
X8625700Y-18319102D01*
X8635224Y-18328626D01*
X8644748Y-18347674D01*
X8654271Y-18385769D01*
X8654271Y-18433388D01*
X8644748Y-18471483D01*
X8635224Y-18490531D01*
X8625700Y-18500055D01*
X8606652Y-18509578D01*
X8587605Y-18509578D01*
X8568557Y-18500055D01*
X8559033Y-18490531D01*
X8549510Y-18471483D01*
X8539986Y-18433388D01*
X8539986Y-18385769D01*
X8549510Y-18347674D01*
X8559033Y-18328626D01*
X8568557Y-18319102D01*
X8587605Y-18309578D01*
X8778081Y-18309578D02*
X8797129Y-18309578D01*
X8816176Y-18319102D01*
X8825700Y-18328626D01*
X8835224Y-18347674D01*
X8844748Y-18385769D01*
X8844748Y-18433388D01*
X8835224Y-18471483D01*
X8825700Y-18490531D01*
X8816176Y-18500055D01*
X8797129Y-18509578D01*
X8778081Y-18509578D01*
X8759033Y-18500055D01*
X8749510Y-18490531D01*
X8739986Y-18471483D01*
X8730462Y-18433388D01*
X8730462Y-18385769D01*
X8739986Y-18347674D01*
X8749510Y-18328626D01*
X8759033Y-18319102D01*
X8778081Y-18309578D01*
X8930462Y-18509578D02*
X8930462Y-18376245D01*
X8930462Y-18395293D02*
X8939986Y-18385769D01*
X8959033Y-18376245D01*
X8987605Y-18376245D01*
X9006652Y-18385769D01*
X9016176Y-18404817D01*
X9016176Y-18509578D01*
X9016176Y-18404817D02*
X9025700Y-18385769D01*
X9044748Y-18376245D01*
X9073319Y-18376245D01*
X9092367Y-18385769D01*
X9101890Y-18404817D01*
X9101890Y-18509578D01*
X9197129Y-18509578D02*
X9197129Y-18376245D01*
X9197129Y-18395293D02*
X9206652Y-18385769D01*
X9225700Y-18376245D01*
X9254271Y-18376245D01*
X9273319Y-18385769D01*
X9282843Y-18404817D01*
X9282843Y-18509578D01*
X9282843Y-18404817D02*
X9292367Y-18385769D01*
X9311414Y-18376245D01*
X9339986Y-18376245D01*
X9359033Y-18385769D01*
X9368557Y-18404817D01*
X9368557Y-18509578D01*
X9759033Y-18300055D02*
X9587605Y-18557198D01*
X10016176Y-18309578D02*
X10035224Y-18309578D01*
X10054271Y-18319102D01*
X10063795Y-18328626D01*
X10073319Y-18347674D01*
X10082843Y-18385769D01*
X10082843Y-18433388D01*
X10073319Y-18471483D01*
X10063795Y-18490531D01*
X10054271Y-18500055D01*
X10035224Y-18509578D01*
X10016176Y-18509578D01*
X9997129Y-18500055D01*
X9987605Y-18490531D01*
X9978081Y-18471483D01*
X9968557Y-18433388D01*
X9968557Y-18385769D01*
X9978081Y-18347674D01*
X9987605Y-18328626D01*
X9997129Y-18319102D01*
X10016176Y-18309578D01*
X10168557Y-18490531D02*
X10178081Y-18500055D01*
X10168557Y-18509578D01*
X10159033Y-18500055D01*
X10168557Y-18490531D01*
X10168557Y-18509578D01*
X10301890Y-18309578D02*
X10320938Y-18309578D01*
X10339986Y-18319102D01*
X10349510Y-18328626D01*
X10359033Y-18347674D01*
X10368557Y-18385769D01*
X10368557Y-18433388D01*
X10359033Y-18471483D01*
X10349510Y-18490531D01*
X10339986Y-18500055D01*
X10320938Y-18509578D01*
X10301890Y-18509578D01*
X10282843Y-18500055D01*
X10273319Y-18490531D01*
X10263795Y-18471483D01*
X10254271Y-18433388D01*
X10254271Y-18385769D01*
X10263795Y-18347674D01*
X10273319Y-18328626D01*
X10282843Y-18319102D01*
X10301890Y-18309578D01*
X10435224Y-18309578D02*
X10559033Y-18309578D01*
X10492367Y-18385769D01*
X10520938Y-18385769D01*
X10539986Y-18395293D01*
X10549510Y-18404817D01*
X10559033Y-18423864D01*
X10559033Y-18471483D01*
X10549510Y-18490531D01*
X10539986Y-18500055D01*
X10520938Y-18509578D01*
X10463795Y-18509578D01*
X10444748Y-18500055D01*
X10435224Y-18490531D01*
X10654271Y-18509578D02*
X10692367Y-18509578D01*
X10711414Y-18500055D01*
X10720938Y-18490531D01*
X10739986Y-18461959D01*
X10749510Y-18423864D01*
X10749510Y-18347674D01*
X10739986Y-18328626D01*
X10730462Y-18319102D01*
X10711414Y-18309578D01*
X10673319Y-18309578D01*
X10654271Y-18319102D01*
X10644748Y-18328626D01*
X10635224Y-18347674D01*
X10635224Y-18395293D01*
X10644748Y-18414340D01*
X10654271Y-18423864D01*
X10673319Y-18433388D01*
X10711414Y-18433388D01*
X10730462Y-18423864D01*
X10739986Y-18414340D01*
X10749510Y-18395293D01*
X10920938Y-18376245D02*
X10920938Y-18509578D01*
X10873319Y-18300055D02*
X10825700Y-18442912D01*
X10949510Y-18442912D01*
X11016176Y-18309578D02*
X11016176Y-18347674D01*
X11092367Y-18309578D02*
X11092367Y-18347674D01*
X11387605Y-18585769D02*
X11378081Y-18576245D01*
X11359033Y-18547674D01*
X11349509Y-18528626D01*
X11339986Y-18500055D01*
X11330462Y-18452436D01*
X11330462Y-18414340D01*
X11339986Y-18366721D01*
X11349509Y-18338150D01*
X11359033Y-18319102D01*
X11378081Y-18290531D01*
X11387605Y-18281007D01*
X11559033Y-18309578D02*
X11463795Y-18309578D01*
X11454271Y-18404817D01*
X11463795Y-18395293D01*
X11482843Y-18385769D01*
X11530462Y-18385769D01*
X11549509Y-18395293D01*
X11559033Y-18404817D01*
X11568557Y-18423864D01*
X11568557Y-18471483D01*
X11559033Y-18490531D01*
X11549509Y-18500055D01*
X11530462Y-18509578D01*
X11482843Y-18509578D01*
X11463795Y-18500055D01*
X11454271Y-18490531D01*
X11806652Y-18509578D02*
X11806652Y-18309578D01*
X11892367Y-18509578D02*
X11892367Y-18404817D01*
X11882843Y-18385769D01*
X11863795Y-18376245D01*
X11835224Y-18376245D01*
X11816176Y-18385769D01*
X11806652Y-18395293D01*
X12016176Y-18509578D02*
X11997128Y-18500055D01*
X11987605Y-18490531D01*
X11978081Y-18471483D01*
X11978081Y-18414340D01*
X11987605Y-18395293D01*
X11997128Y-18385769D01*
X12016176Y-18376245D01*
X12044748Y-18376245D01*
X12063795Y-18385769D01*
X12073319Y-18395293D01*
X12082843Y-18414340D01*
X12082843Y-18471483D01*
X12073319Y-18490531D01*
X12063795Y-18500055D01*
X12044748Y-18509578D01*
X12016176Y-18509578D01*
X12197128Y-18509578D02*
X12178081Y-18500055D01*
X12168557Y-18481007D01*
X12168557Y-18309578D01*
X12349509Y-18500055D02*
X12330462Y-18509578D01*
X12292367Y-18509578D01*
X12273319Y-18500055D01*
X12263795Y-18481007D01*
X12263795Y-18404817D01*
X12273319Y-18385769D01*
X12292367Y-18376245D01*
X12330462Y-18376245D01*
X12349509Y-18385769D01*
X12359033Y-18404817D01*
X12359033Y-18423864D01*
X12263795Y-18442912D01*
X12435224Y-18500055D02*
X12454271Y-18509578D01*
X12492367Y-18509578D01*
X12511414Y-18500055D01*
X12520938Y-18481007D01*
X12520938Y-18471483D01*
X12511414Y-18452436D01*
X12492367Y-18442912D01*
X12463795Y-18442912D01*
X12444748Y-18433388D01*
X12435224Y-18414340D01*
X12435224Y-18404817D01*
X12444748Y-18385769D01*
X12463795Y-18376245D01*
X12492367Y-18376245D01*
X12511414Y-18385769D01*
X12759033Y-18433388D02*
X12911414Y-18433388D01*
X12835224Y-18509578D02*
X12835224Y-18357198D01*
X13187605Y-18395293D02*
X13168557Y-18385769D01*
X13159033Y-18376245D01*
X13149509Y-18357198D01*
X13149509Y-18347674D01*
X13159033Y-18328626D01*
X13168557Y-18319102D01*
X13187605Y-18309578D01*
X13225700Y-18309578D01*
X13244748Y-18319102D01*
X13254271Y-18328626D01*
X13263795Y-18347674D01*
X13263795Y-18357198D01*
X13254271Y-18376245D01*
X13244748Y-18385769D01*
X13225700Y-18395293D01*
X13187605Y-18395293D01*
X13168557Y-18404817D01*
X13159033Y-18414340D01*
X13149509Y-18433388D01*
X13149509Y-18471483D01*
X13159033Y-18490531D01*
X13168557Y-18500055D01*
X13187605Y-18509578D01*
X13225700Y-18509578D01*
X13244748Y-18500055D01*
X13254271Y-18490531D01*
X13263795Y-18471483D01*
X13263795Y-18433388D01*
X13254271Y-18414340D01*
X13244748Y-18404817D01*
X13225700Y-18395293D01*
X13492367Y-18500055D02*
X13511414Y-18509578D01*
X13549509Y-18509578D01*
X13568557Y-18500055D01*
X13578081Y-18481007D01*
X13578081Y-18471483D01*
X13568557Y-18452436D01*
X13549509Y-18442912D01*
X13520938Y-18442912D01*
X13501890Y-18433388D01*
X13492367Y-18414340D01*
X13492367Y-18404817D01*
X13501890Y-18385769D01*
X13520938Y-18376245D01*
X13549509Y-18376245D01*
X13568557Y-18385769D01*
X13692367Y-18509578D02*
X13673319Y-18500055D01*
X13663795Y-18481007D01*
X13663795Y-18309578D01*
X13797128Y-18509578D02*
X13778081Y-18500055D01*
X13768557Y-18490531D01*
X13759033Y-18471483D01*
X13759033Y-18414340D01*
X13768557Y-18395293D01*
X13778081Y-18385769D01*
X13797128Y-18376245D01*
X13825700Y-18376245D01*
X13844748Y-18385769D01*
X13854271Y-18395293D01*
X13863795Y-18414340D01*
X13863795Y-18471483D01*
X13854271Y-18490531D01*
X13844748Y-18500055D01*
X13825700Y-18509578D01*
X13797128Y-18509578D01*
X13920938Y-18376245D02*
X13997128Y-18376245D01*
X13949509Y-18309578D02*
X13949509Y-18481007D01*
X13959033Y-18500055D01*
X13978081Y-18509578D01*
X13997128Y-18509578D01*
X14054271Y-18500055D02*
X14073319Y-18509578D01*
X14111414Y-18509578D01*
X14130462Y-18500055D01*
X14139986Y-18481007D01*
X14139986Y-18471483D01*
X14130462Y-18452436D01*
X14111414Y-18442912D01*
X14082843Y-18442912D01*
X14063795Y-18433388D01*
X14054271Y-18414340D01*
X14054271Y-18404817D01*
X14063795Y-18385769D01*
X14082843Y-18376245D01*
X14111414Y-18376245D01*
X14130462Y-18385769D01*
X14206652Y-18585769D02*
X14216176Y-18576245D01*
X14235224Y-18547674D01*
X14244748Y-18528626D01*
X14254271Y-18500055D01*
X14263795Y-18452436D01*
X14263795Y-18414340D01*
X14254271Y-18366721D01*
X14244748Y-18338150D01*
X14235224Y-18319102D01*
X14216176Y-18290531D01*
X14206652Y-18281007D01*
D17*
X7706480Y-18628492D02*
X7815700Y-18737712D01*
X7815700Y-18628492D02*
X7706480Y-18737712D01*
X7761090Y-18628492D02*
X7761090Y-18737712D01*
X7706480Y-18683102D02*
X7815700Y-18683102D01*
D11*
X8178081Y-18773578D02*
X8063795Y-18773578D01*
X8120938Y-18773578D02*
X8120938Y-18573578D01*
X8101890Y-18602150D01*
X8082843Y-18621198D01*
X8063795Y-18630721D01*
X8263795Y-18754531D02*
X8273319Y-18764055D01*
X8263795Y-18773578D01*
X8254271Y-18764055D01*
X8263795Y-18754531D01*
X8263795Y-18773578D01*
X8397129Y-18573578D02*
X8416176Y-18573578D01*
X8435224Y-18583102D01*
X8444748Y-18592626D01*
X8454271Y-18611674D01*
X8463795Y-18649769D01*
X8463795Y-18697388D01*
X8454271Y-18735483D01*
X8444748Y-18754531D01*
X8435224Y-18764055D01*
X8416176Y-18773578D01*
X8397129Y-18773578D01*
X8378081Y-18764055D01*
X8368557Y-18754531D01*
X8359033Y-18735483D01*
X8349509Y-18697388D01*
X8349509Y-18649769D01*
X8359033Y-18611674D01*
X8368557Y-18592626D01*
X8378081Y-18583102D01*
X8397129Y-18573578D01*
X8559033Y-18773578D02*
X8597129Y-18773578D01*
X8616176Y-18764055D01*
X8625700Y-18754531D01*
X8644748Y-18725959D01*
X8654271Y-18687864D01*
X8654271Y-18611674D01*
X8644748Y-18592626D01*
X8635224Y-18583102D01*
X8616176Y-18573578D01*
X8578081Y-18573578D01*
X8559033Y-18583102D01*
X8549510Y-18592626D01*
X8539986Y-18611674D01*
X8539986Y-18659293D01*
X8549510Y-18678340D01*
X8559033Y-18687864D01*
X8578081Y-18697388D01*
X8616176Y-18697388D01*
X8635224Y-18687864D01*
X8644748Y-18678340D01*
X8654271Y-18659293D01*
X8730462Y-18592626D02*
X8739986Y-18583102D01*
X8759033Y-18573578D01*
X8806652Y-18573578D01*
X8825700Y-18583102D01*
X8835224Y-18592626D01*
X8844748Y-18611674D01*
X8844748Y-18630721D01*
X8835224Y-18659293D01*
X8720938Y-18773578D01*
X8844748Y-18773578D01*
X8930462Y-18773578D02*
X8930462Y-18640245D01*
X8930462Y-18659293D02*
X8939986Y-18649769D01*
X8959033Y-18640245D01*
X8987605Y-18640245D01*
X9006652Y-18649769D01*
X9016176Y-18668817D01*
X9016176Y-18773578D01*
X9016176Y-18668817D02*
X9025700Y-18649769D01*
X9044748Y-18640245D01*
X9073319Y-18640245D01*
X9092367Y-18649769D01*
X9101890Y-18668817D01*
X9101890Y-18773578D01*
X9197129Y-18773578D02*
X9197129Y-18640245D01*
X9197129Y-18659293D02*
X9206652Y-18649769D01*
X9225700Y-18640245D01*
X9254271Y-18640245D01*
X9273319Y-18649769D01*
X9282843Y-18668817D01*
X9282843Y-18773578D01*
X9282843Y-18668817D02*
X9292367Y-18649769D01*
X9311414Y-18640245D01*
X9339986Y-18640245D01*
X9359033Y-18649769D01*
X9368557Y-18668817D01*
X9368557Y-18773578D01*
X9759033Y-18564055D02*
X9587605Y-18821198D01*
X10016176Y-18573578D02*
X10035224Y-18573578D01*
X10054271Y-18583102D01*
X10063795Y-18592626D01*
X10073319Y-18611674D01*
X10082843Y-18649769D01*
X10082843Y-18697388D01*
X10073319Y-18735483D01*
X10063795Y-18754531D01*
X10054271Y-18764055D01*
X10035224Y-18773578D01*
X10016176Y-18773578D01*
X9997129Y-18764055D01*
X9987605Y-18754531D01*
X9978081Y-18735483D01*
X9968557Y-18697388D01*
X9968557Y-18649769D01*
X9978081Y-18611674D01*
X9987605Y-18592626D01*
X9997129Y-18583102D01*
X10016176Y-18573578D01*
X10168557Y-18754531D02*
X10178081Y-18764055D01*
X10168557Y-18773578D01*
X10159033Y-18764055D01*
X10168557Y-18754531D01*
X10168557Y-18773578D01*
X10301890Y-18573578D02*
X10320938Y-18573578D01*
X10339986Y-18583102D01*
X10349510Y-18592626D01*
X10359033Y-18611674D01*
X10368557Y-18649769D01*
X10368557Y-18697388D01*
X10359033Y-18735483D01*
X10349510Y-18754531D01*
X10339986Y-18764055D01*
X10320938Y-18773578D01*
X10301890Y-18773578D01*
X10282843Y-18764055D01*
X10273319Y-18754531D01*
X10263795Y-18735483D01*
X10254271Y-18697388D01*
X10254271Y-18649769D01*
X10263795Y-18611674D01*
X10273319Y-18592626D01*
X10282843Y-18583102D01*
X10301890Y-18573578D01*
X10539986Y-18640245D02*
X10539986Y-18773578D01*
X10492367Y-18564055D02*
X10444748Y-18706912D01*
X10568557Y-18706912D01*
X10625700Y-18573578D02*
X10749510Y-18573578D01*
X10682843Y-18649769D01*
X10711414Y-18649769D01*
X10730462Y-18659293D01*
X10739986Y-18668817D01*
X10749510Y-18687864D01*
X10749510Y-18735483D01*
X10739986Y-18754531D01*
X10730462Y-18764055D01*
X10711414Y-18773578D01*
X10654271Y-18773578D01*
X10635224Y-18764055D01*
X10625700Y-18754531D01*
X10873319Y-18573578D02*
X10892367Y-18573578D01*
X10911414Y-18583102D01*
X10920938Y-18592626D01*
X10930462Y-18611674D01*
X10939986Y-18649769D01*
X10939986Y-18697388D01*
X10930462Y-18735483D01*
X10920938Y-18754531D01*
X10911414Y-18764055D01*
X10892367Y-18773578D01*
X10873319Y-18773578D01*
X10854271Y-18764055D01*
X10844748Y-18754531D01*
X10835224Y-18735483D01*
X10825700Y-18697388D01*
X10825700Y-18649769D01*
X10835224Y-18611674D01*
X10844748Y-18592626D01*
X10854271Y-18583102D01*
X10873319Y-18573578D01*
X11016176Y-18573578D02*
X11016176Y-18611674D01*
X11092367Y-18573578D02*
X11092367Y-18611674D01*
X11387605Y-18849769D02*
X11378081Y-18840245D01*
X11359033Y-18811674D01*
X11349509Y-18792626D01*
X11339986Y-18764055D01*
X11330462Y-18716436D01*
X11330462Y-18678340D01*
X11339986Y-18630721D01*
X11349509Y-18602150D01*
X11359033Y-18583102D01*
X11378081Y-18554531D01*
X11387605Y-18545007D01*
X11454271Y-18592626D02*
X11463795Y-18583102D01*
X11482843Y-18573578D01*
X11530462Y-18573578D01*
X11549509Y-18583102D01*
X11559033Y-18592626D01*
X11568557Y-18611674D01*
X11568557Y-18630721D01*
X11559033Y-18659293D01*
X11444748Y-18773578D01*
X11568557Y-18773578D01*
X11739986Y-18640245D02*
X11739986Y-18773578D01*
X11692367Y-18564055D02*
X11644748Y-18706912D01*
X11768557Y-18706912D01*
X11997128Y-18773578D02*
X11997128Y-18573578D01*
X12082843Y-18773578D02*
X12082843Y-18668817D01*
X12073319Y-18649769D01*
X12054271Y-18640245D01*
X12025700Y-18640245D01*
X12006652Y-18649769D01*
X11997128Y-18659293D01*
X12206652Y-18773578D02*
X12187605Y-18764055D01*
X12178081Y-18754531D01*
X12168557Y-18735483D01*
X12168557Y-18678340D01*
X12178081Y-18659293D01*
X12187605Y-18649769D01*
X12206652Y-18640245D01*
X12235224Y-18640245D01*
X12254271Y-18649769D01*
X12263795Y-18659293D01*
X12273319Y-18678340D01*
X12273319Y-18735483D01*
X12263795Y-18754531D01*
X12254271Y-18764055D01*
X12235224Y-18773578D01*
X12206652Y-18773578D01*
X12387605Y-18773578D02*
X12368557Y-18764055D01*
X12359033Y-18745007D01*
X12359033Y-18573578D01*
X12539986Y-18764055D02*
X12520938Y-18773578D01*
X12482843Y-18773578D01*
X12463795Y-18764055D01*
X12454271Y-18745007D01*
X12454271Y-18668817D01*
X12463795Y-18649769D01*
X12482843Y-18640245D01*
X12520938Y-18640245D01*
X12539986Y-18649769D01*
X12549509Y-18668817D01*
X12549509Y-18687864D01*
X12454271Y-18706912D01*
X12625700Y-18764055D02*
X12644748Y-18773578D01*
X12682843Y-18773578D01*
X12701890Y-18764055D01*
X12711414Y-18745007D01*
X12711414Y-18735483D01*
X12701890Y-18716436D01*
X12682843Y-18706912D01*
X12654271Y-18706912D01*
X12635224Y-18697388D01*
X12625700Y-18678340D01*
X12625700Y-18668817D01*
X12635224Y-18649769D01*
X12654271Y-18640245D01*
X12682843Y-18640245D01*
X12701890Y-18649769D01*
X12778081Y-18849769D02*
X12787605Y-18840245D01*
X12806652Y-18811674D01*
X12816176Y-18792626D01*
X12825700Y-18764055D01*
X12835224Y-18716436D01*
X12835224Y-18678340D01*
X12825700Y-18630721D01*
X12816176Y-18602150D01*
X12806652Y-18583102D01*
X12787605Y-18554531D01*
X12778081Y-18545007D01*
D18*
X7685700Y-18882102D02*
X7815700Y-19012102D01*
X7815700Y-18882102D02*
X7685700Y-19012102D01*
X7796662Y-18993065D02*
X7796662Y-18901140D01*
X7704738Y-18901140D01*
X7704738Y-18993065D01*
X7796662Y-18993065D01*
D11*
X8178081Y-19037578D02*
X8063795Y-19037578D01*
X8120938Y-19037578D02*
X8120938Y-18837578D01*
X8101890Y-18866150D01*
X8082843Y-18885198D01*
X8063795Y-18894721D01*
X8263795Y-19018531D02*
X8273319Y-19028055D01*
X8263795Y-19037578D01*
X8254271Y-19028055D01*
X8263795Y-19018531D01*
X8263795Y-19037578D01*
X8339986Y-18837578D02*
X8463795Y-18837578D01*
X8397129Y-18913769D01*
X8425700Y-18913769D01*
X8444748Y-18923293D01*
X8454271Y-18932817D01*
X8463795Y-18951864D01*
X8463795Y-18999483D01*
X8454271Y-19018531D01*
X8444748Y-19028055D01*
X8425700Y-19037578D01*
X8368557Y-19037578D01*
X8349509Y-19028055D01*
X8339986Y-19018531D01*
X8587605Y-18837578D02*
X8606652Y-18837578D01*
X8625700Y-18847102D01*
X8635224Y-18856626D01*
X8644748Y-18875674D01*
X8654271Y-18913769D01*
X8654271Y-18961388D01*
X8644748Y-18999483D01*
X8635224Y-19018531D01*
X8625700Y-19028055D01*
X8606652Y-19037578D01*
X8587605Y-19037578D01*
X8568557Y-19028055D01*
X8559033Y-19018531D01*
X8549510Y-18999483D01*
X8539986Y-18961388D01*
X8539986Y-18913769D01*
X8549510Y-18875674D01*
X8559033Y-18856626D01*
X8568557Y-18847102D01*
X8587605Y-18837578D01*
X8778081Y-18837578D02*
X8797129Y-18837578D01*
X8816176Y-18847102D01*
X8825700Y-18856626D01*
X8835224Y-18875674D01*
X8844748Y-18913769D01*
X8844748Y-18961388D01*
X8835224Y-18999483D01*
X8825700Y-19018531D01*
X8816176Y-19028055D01*
X8797129Y-19037578D01*
X8778081Y-19037578D01*
X8759033Y-19028055D01*
X8749510Y-19018531D01*
X8739986Y-18999483D01*
X8730462Y-18961388D01*
X8730462Y-18913769D01*
X8739986Y-18875674D01*
X8749510Y-18856626D01*
X8759033Y-18847102D01*
X8778081Y-18837578D01*
X8930462Y-19037578D02*
X8930462Y-18904245D01*
X8930462Y-18923293D02*
X8939986Y-18913769D01*
X8959033Y-18904245D01*
X8987605Y-18904245D01*
X9006652Y-18913769D01*
X9016176Y-18932817D01*
X9016176Y-19037578D01*
X9016176Y-18932817D02*
X9025700Y-18913769D01*
X9044748Y-18904245D01*
X9073319Y-18904245D01*
X9092367Y-18913769D01*
X9101890Y-18932817D01*
X9101890Y-19037578D01*
X9197129Y-19037578D02*
X9197129Y-18904245D01*
X9197129Y-18923293D02*
X9206652Y-18913769D01*
X9225700Y-18904245D01*
X9254271Y-18904245D01*
X9273319Y-18913769D01*
X9282843Y-18932817D01*
X9282843Y-19037578D01*
X9282843Y-18932817D02*
X9292367Y-18913769D01*
X9311414Y-18904245D01*
X9339986Y-18904245D01*
X9359033Y-18913769D01*
X9368557Y-18932817D01*
X9368557Y-19037578D01*
X9759033Y-18828055D02*
X9587605Y-19085198D01*
X10016176Y-18837578D02*
X10035224Y-18837578D01*
X10054271Y-18847102D01*
X10063795Y-18856626D01*
X10073319Y-18875674D01*
X10082843Y-18913769D01*
X10082843Y-18961388D01*
X10073319Y-18999483D01*
X10063795Y-19018531D01*
X10054271Y-19028055D01*
X10035224Y-19037578D01*
X10016176Y-19037578D01*
X9997129Y-19028055D01*
X9987605Y-19018531D01*
X9978081Y-18999483D01*
X9968557Y-18961388D01*
X9968557Y-18913769D01*
X9978081Y-18875674D01*
X9987605Y-18856626D01*
X9997129Y-18847102D01*
X10016176Y-18837578D01*
X10168557Y-19018531D02*
X10178081Y-19028055D01*
X10168557Y-19037578D01*
X10159033Y-19028055D01*
X10168557Y-19018531D01*
X10168557Y-19037578D01*
X10301890Y-18837578D02*
X10320938Y-18837578D01*
X10339986Y-18847102D01*
X10349510Y-18856626D01*
X10359033Y-18875674D01*
X10368557Y-18913769D01*
X10368557Y-18961388D01*
X10359033Y-18999483D01*
X10349510Y-19018531D01*
X10339986Y-19028055D01*
X10320938Y-19037578D01*
X10301890Y-19037578D01*
X10282843Y-19028055D01*
X10273319Y-19018531D01*
X10263795Y-18999483D01*
X10254271Y-18961388D01*
X10254271Y-18913769D01*
X10263795Y-18875674D01*
X10273319Y-18856626D01*
X10282843Y-18847102D01*
X10301890Y-18837578D01*
X10549510Y-18837578D02*
X10454271Y-18837578D01*
X10444748Y-18932817D01*
X10454271Y-18923293D01*
X10473319Y-18913769D01*
X10520938Y-18913769D01*
X10539986Y-18923293D01*
X10549510Y-18932817D01*
X10559033Y-18951864D01*
X10559033Y-18999483D01*
X10549510Y-19018531D01*
X10539986Y-19028055D01*
X10520938Y-19037578D01*
X10473319Y-19037578D01*
X10454271Y-19028055D01*
X10444748Y-19018531D01*
X10749510Y-19037578D02*
X10635224Y-19037578D01*
X10692367Y-19037578D02*
X10692367Y-18837578D01*
X10673319Y-18866150D01*
X10654271Y-18885198D01*
X10635224Y-18894721D01*
X10825700Y-18856626D02*
X10835224Y-18847102D01*
X10854271Y-18837578D01*
X10901890Y-18837578D01*
X10920938Y-18847102D01*
X10930462Y-18856626D01*
X10939986Y-18875674D01*
X10939986Y-18894721D01*
X10930462Y-18923293D01*
X10816176Y-19037578D01*
X10939986Y-19037578D01*
X11016176Y-18837578D02*
X11016176Y-18875674D01*
X11092367Y-18837578D02*
X11092367Y-18875674D01*
X11387605Y-19113769D02*
X11378081Y-19104245D01*
X11359033Y-19075674D01*
X11349509Y-19056626D01*
X11339986Y-19028055D01*
X11330462Y-18980436D01*
X11330462Y-18942340D01*
X11339986Y-18894721D01*
X11349509Y-18866150D01*
X11359033Y-18847102D01*
X11378081Y-18818531D01*
X11387605Y-18809007D01*
X11454271Y-18856626D02*
X11463795Y-18847102D01*
X11482843Y-18837578D01*
X11530462Y-18837578D01*
X11549509Y-18847102D01*
X11559033Y-18856626D01*
X11568557Y-18875674D01*
X11568557Y-18894721D01*
X11559033Y-18923293D01*
X11444748Y-19037578D01*
X11568557Y-19037578D01*
X11806652Y-19037578D02*
X11806652Y-18837578D01*
X11892367Y-19037578D02*
X11892367Y-18932817D01*
X11882843Y-18913769D01*
X11863795Y-18904245D01*
X11835224Y-18904245D01*
X11816176Y-18913769D01*
X11806652Y-18923293D01*
X12016176Y-19037578D02*
X11997128Y-19028055D01*
X11987605Y-19018531D01*
X11978081Y-18999483D01*
X11978081Y-18942340D01*
X11987605Y-18923293D01*
X11997128Y-18913769D01*
X12016176Y-18904245D01*
X12044748Y-18904245D01*
X12063795Y-18913769D01*
X12073319Y-18923293D01*
X12082843Y-18942340D01*
X12082843Y-18999483D01*
X12073319Y-19018531D01*
X12063795Y-19028055D01*
X12044748Y-19037578D01*
X12016176Y-19037578D01*
X12197128Y-19037578D02*
X12178081Y-19028055D01*
X12168557Y-19009007D01*
X12168557Y-18837578D01*
X12349509Y-19028055D02*
X12330462Y-19037578D01*
X12292367Y-19037578D01*
X12273319Y-19028055D01*
X12263795Y-19009007D01*
X12263795Y-18932817D01*
X12273319Y-18913769D01*
X12292367Y-18904245D01*
X12330462Y-18904245D01*
X12349509Y-18913769D01*
X12359033Y-18932817D01*
X12359033Y-18951864D01*
X12263795Y-18970912D01*
X12435224Y-19028055D02*
X12454271Y-19037578D01*
X12492367Y-19037578D01*
X12511414Y-19028055D01*
X12520938Y-19009007D01*
X12520938Y-18999483D01*
X12511414Y-18980436D01*
X12492367Y-18970912D01*
X12463795Y-18970912D01*
X12444748Y-18961388D01*
X12435224Y-18942340D01*
X12435224Y-18932817D01*
X12444748Y-18913769D01*
X12463795Y-18904245D01*
X12492367Y-18904245D01*
X12511414Y-18913769D01*
X12587605Y-19113769D02*
X12597128Y-19104245D01*
X12616176Y-19075674D01*
X12625700Y-19056626D01*
X12635224Y-19028055D01*
X12644748Y-18980436D01*
X12644748Y-18942340D01*
X12635224Y-18894721D01*
X12625700Y-18866150D01*
X12616176Y-18847102D01*
X12597128Y-18818531D01*
X12587605Y-18809007D01*
D10*
X7665700Y-19136102D02*
X7815700Y-19286102D01*
X7815700Y-19136102D02*
X7665700Y-19286102D01*
X7740700Y-19286102D02*
X7815700Y-19211102D01*
X7740700Y-19136102D01*
X7665700Y-19211102D01*
X7740700Y-19286102D01*
D11*
X8178081Y-19301578D02*
X8063795Y-19301578D01*
X8120938Y-19301578D02*
X8120938Y-19101578D01*
X8101890Y-19130150D01*
X8082843Y-19149198D01*
X8063795Y-19158721D01*
X8263795Y-19282531D02*
X8273319Y-19292055D01*
X8263795Y-19301578D01*
X8254271Y-19292055D01*
X8263795Y-19282531D01*
X8263795Y-19301578D01*
X8454271Y-19101578D02*
X8359033Y-19101578D01*
X8349509Y-19196817D01*
X8359033Y-19187293D01*
X8378081Y-19177769D01*
X8425700Y-19177769D01*
X8444748Y-19187293D01*
X8454271Y-19196817D01*
X8463795Y-19215864D01*
X8463795Y-19263483D01*
X8454271Y-19282531D01*
X8444748Y-19292055D01*
X8425700Y-19301578D01*
X8378081Y-19301578D01*
X8359033Y-19292055D01*
X8349509Y-19282531D01*
X8587605Y-19101578D02*
X8606652Y-19101578D01*
X8625700Y-19111102D01*
X8635224Y-19120626D01*
X8644748Y-19139674D01*
X8654271Y-19177769D01*
X8654271Y-19225388D01*
X8644748Y-19263483D01*
X8635224Y-19282531D01*
X8625700Y-19292055D01*
X8606652Y-19301578D01*
X8587605Y-19301578D01*
X8568557Y-19292055D01*
X8559033Y-19282531D01*
X8549510Y-19263483D01*
X8539986Y-19225388D01*
X8539986Y-19177769D01*
X8549510Y-19139674D01*
X8559033Y-19120626D01*
X8568557Y-19111102D01*
X8587605Y-19101578D01*
X8778081Y-19101578D02*
X8797129Y-19101578D01*
X8816176Y-19111102D01*
X8825700Y-19120626D01*
X8835224Y-19139674D01*
X8844748Y-19177769D01*
X8844748Y-19225388D01*
X8835224Y-19263483D01*
X8825700Y-19282531D01*
X8816176Y-19292055D01*
X8797129Y-19301578D01*
X8778081Y-19301578D01*
X8759033Y-19292055D01*
X8749510Y-19282531D01*
X8739986Y-19263483D01*
X8730462Y-19225388D01*
X8730462Y-19177769D01*
X8739986Y-19139674D01*
X8749510Y-19120626D01*
X8759033Y-19111102D01*
X8778081Y-19101578D01*
X8930462Y-19301578D02*
X8930462Y-19168245D01*
X8930462Y-19187293D02*
X8939986Y-19177769D01*
X8959033Y-19168245D01*
X8987605Y-19168245D01*
X9006652Y-19177769D01*
X9016176Y-19196817D01*
X9016176Y-19301578D01*
X9016176Y-19196817D02*
X9025700Y-19177769D01*
X9044748Y-19168245D01*
X9073319Y-19168245D01*
X9092367Y-19177769D01*
X9101890Y-19196817D01*
X9101890Y-19301578D01*
X9197129Y-19301578D02*
X9197129Y-19168245D01*
X9197129Y-19187293D02*
X9206652Y-19177769D01*
X9225700Y-19168245D01*
X9254271Y-19168245D01*
X9273319Y-19177769D01*
X9282843Y-19196817D01*
X9282843Y-19301578D01*
X9282843Y-19196817D02*
X9292367Y-19177769D01*
X9311414Y-19168245D01*
X9339986Y-19168245D01*
X9359033Y-19177769D01*
X9368557Y-19196817D01*
X9368557Y-19301578D01*
X9759033Y-19092055D02*
X9587605Y-19349198D01*
X10016176Y-19101578D02*
X10035224Y-19101578D01*
X10054271Y-19111102D01*
X10063795Y-19120626D01*
X10073319Y-19139674D01*
X10082843Y-19177769D01*
X10082843Y-19225388D01*
X10073319Y-19263483D01*
X10063795Y-19282531D01*
X10054271Y-19292055D01*
X10035224Y-19301578D01*
X10016176Y-19301578D01*
X9997129Y-19292055D01*
X9987605Y-19282531D01*
X9978081Y-19263483D01*
X9968557Y-19225388D01*
X9968557Y-19177769D01*
X9978081Y-19139674D01*
X9987605Y-19120626D01*
X9997129Y-19111102D01*
X10016176Y-19101578D01*
X10168557Y-19282531D02*
X10178081Y-19292055D01*
X10168557Y-19301578D01*
X10159033Y-19292055D01*
X10168557Y-19282531D01*
X10168557Y-19301578D01*
X10301890Y-19101578D02*
X10320938Y-19101578D01*
X10339986Y-19111102D01*
X10349510Y-19120626D01*
X10359033Y-19139674D01*
X10368557Y-19177769D01*
X10368557Y-19225388D01*
X10359033Y-19263483D01*
X10349510Y-19282531D01*
X10339986Y-19292055D01*
X10320938Y-19301578D01*
X10301890Y-19301578D01*
X10282843Y-19292055D01*
X10273319Y-19282531D01*
X10263795Y-19263483D01*
X10254271Y-19225388D01*
X10254271Y-19177769D01*
X10263795Y-19139674D01*
X10273319Y-19120626D01*
X10282843Y-19111102D01*
X10301890Y-19101578D01*
X10549510Y-19101578D02*
X10454271Y-19101578D01*
X10444748Y-19196817D01*
X10454271Y-19187293D01*
X10473319Y-19177769D01*
X10520938Y-19177769D01*
X10539986Y-19187293D01*
X10549510Y-19196817D01*
X10559033Y-19215864D01*
X10559033Y-19263483D01*
X10549510Y-19282531D01*
X10539986Y-19292055D01*
X10520938Y-19301578D01*
X10473319Y-19301578D01*
X10454271Y-19292055D01*
X10444748Y-19282531D01*
X10654271Y-19301578D02*
X10692367Y-19301578D01*
X10711414Y-19292055D01*
X10720938Y-19282531D01*
X10739986Y-19253959D01*
X10749510Y-19215864D01*
X10749510Y-19139674D01*
X10739986Y-19120626D01*
X10730462Y-19111102D01*
X10711414Y-19101578D01*
X10673319Y-19101578D01*
X10654271Y-19111102D01*
X10644748Y-19120626D01*
X10635224Y-19139674D01*
X10635224Y-19187293D01*
X10644748Y-19206340D01*
X10654271Y-19215864D01*
X10673319Y-19225388D01*
X10711414Y-19225388D01*
X10730462Y-19215864D01*
X10739986Y-19206340D01*
X10749510Y-19187293D01*
X10939986Y-19301578D02*
X10825700Y-19301578D01*
X10882843Y-19301578D02*
X10882843Y-19101578D01*
X10863795Y-19130150D01*
X10844748Y-19149198D01*
X10825700Y-19158721D01*
X11016176Y-19101578D02*
X11016176Y-19139674D01*
X11092367Y-19101578D02*
X11092367Y-19139674D01*
X11387605Y-19377769D02*
X11378081Y-19368245D01*
X11359033Y-19339674D01*
X11349509Y-19320626D01*
X11339986Y-19292055D01*
X11330462Y-19244436D01*
X11330462Y-19206340D01*
X11339986Y-19158721D01*
X11349509Y-19130150D01*
X11359033Y-19111102D01*
X11378081Y-19082531D01*
X11387605Y-19073007D01*
X11549509Y-19168245D02*
X11549509Y-19301578D01*
X11501890Y-19092055D02*
X11454271Y-19234912D01*
X11578081Y-19234912D01*
X11806652Y-19301578D02*
X11806652Y-19101578D01*
X11892367Y-19301578D02*
X11892367Y-19196817D01*
X11882843Y-19177769D01*
X11863795Y-19168245D01*
X11835224Y-19168245D01*
X11816176Y-19177769D01*
X11806652Y-19187293D01*
X12016176Y-19301578D02*
X11997128Y-19292055D01*
X11987605Y-19282531D01*
X11978081Y-19263483D01*
X11978081Y-19206340D01*
X11987605Y-19187293D01*
X11997128Y-19177769D01*
X12016176Y-19168245D01*
X12044748Y-19168245D01*
X12063795Y-19177769D01*
X12073319Y-19187293D01*
X12082843Y-19206340D01*
X12082843Y-19263483D01*
X12073319Y-19282531D01*
X12063795Y-19292055D01*
X12044748Y-19301578D01*
X12016176Y-19301578D01*
X12197128Y-19301578D02*
X12178081Y-19292055D01*
X12168557Y-19273007D01*
X12168557Y-19101578D01*
X12349509Y-19292055D02*
X12330462Y-19301578D01*
X12292367Y-19301578D01*
X12273319Y-19292055D01*
X12263795Y-19273007D01*
X12263795Y-19196817D01*
X12273319Y-19177769D01*
X12292367Y-19168245D01*
X12330462Y-19168245D01*
X12349509Y-19177769D01*
X12359033Y-19196817D01*
X12359033Y-19215864D01*
X12263795Y-19234912D01*
X12435224Y-19292055D02*
X12454271Y-19301578D01*
X12492367Y-19301578D01*
X12511414Y-19292055D01*
X12520938Y-19273007D01*
X12520938Y-19263483D01*
X12511414Y-19244436D01*
X12492367Y-19234912D01*
X12463795Y-19234912D01*
X12444748Y-19225388D01*
X12435224Y-19206340D01*
X12435224Y-19196817D01*
X12444748Y-19177769D01*
X12463795Y-19168245D01*
X12492367Y-19168245D01*
X12511414Y-19177769D01*
X12759033Y-19225388D02*
X12911414Y-19225388D01*
X12835224Y-19301578D02*
X12835224Y-19149198D01*
X13149509Y-19120626D02*
X13159033Y-19111102D01*
X13178081Y-19101578D01*
X13225700Y-19101578D01*
X13244748Y-19111102D01*
X13254271Y-19120626D01*
X13263795Y-19139674D01*
X13263795Y-19158721D01*
X13254271Y-19187293D01*
X13139986Y-19301578D01*
X13263795Y-19301578D01*
X13492367Y-19292055D02*
X13511414Y-19301578D01*
X13549509Y-19301578D01*
X13568557Y-19292055D01*
X13578081Y-19273007D01*
X13578081Y-19263483D01*
X13568557Y-19244436D01*
X13549509Y-19234912D01*
X13520938Y-19234912D01*
X13501890Y-19225388D01*
X13492367Y-19206340D01*
X13492367Y-19196817D01*
X13501890Y-19177769D01*
X13520938Y-19168245D01*
X13549509Y-19168245D01*
X13568557Y-19177769D01*
X13692367Y-19301578D02*
X13673319Y-19292055D01*
X13663795Y-19273007D01*
X13663795Y-19101578D01*
X13797128Y-19301578D02*
X13778081Y-19292055D01*
X13768557Y-19282531D01*
X13759033Y-19263483D01*
X13759033Y-19206340D01*
X13768557Y-19187293D01*
X13778081Y-19177769D01*
X13797128Y-19168245D01*
X13825700Y-19168245D01*
X13844748Y-19177769D01*
X13854271Y-19187293D01*
X13863795Y-19206340D01*
X13863795Y-19263483D01*
X13854271Y-19282531D01*
X13844748Y-19292055D01*
X13825700Y-19301578D01*
X13797128Y-19301578D01*
X13920938Y-19168245D02*
X13997128Y-19168245D01*
X13949509Y-19101578D02*
X13949509Y-19273007D01*
X13959033Y-19292055D01*
X13978081Y-19301578D01*
X13997128Y-19301578D01*
X14054271Y-19292055D02*
X14073319Y-19301578D01*
X14111414Y-19301578D01*
X14130462Y-19292055D01*
X14139986Y-19273007D01*
X14139986Y-19263483D01*
X14130462Y-19244436D01*
X14111414Y-19234912D01*
X14082843Y-19234912D01*
X14063795Y-19225388D01*
X14054271Y-19206340D01*
X14054271Y-19196817D01*
X14063795Y-19177769D01*
X14082843Y-19168245D01*
X14111414Y-19168245D01*
X14130462Y-19177769D01*
X14206652Y-19377769D02*
X14216176Y-19368245D01*
X14235224Y-19339674D01*
X14244748Y-19320626D01*
X14254271Y-19292055D01*
X14263795Y-19244436D01*
X14263795Y-19206340D01*
X14254271Y-19158721D01*
X14244748Y-19130150D01*
X14235224Y-19111102D01*
X14216176Y-19082531D01*
X14206652Y-19073007D01*
D19*
X7740050Y-19405452D02*
X7740050Y-19556752D01*
X7664400Y-19481102D02*
X7815700Y-19481102D01*
X7815700Y-19481102D02*
G75*
G03*
X7815700Y-19481102I-75650J0D01*
G01*
D11*
X8178081Y-19571578D02*
X8063795Y-19571578D01*
X8120938Y-19571578D02*
X8120938Y-19371578D01*
X8101890Y-19400150D01*
X8082843Y-19419198D01*
X8063795Y-19428721D01*
X8263795Y-19552531D02*
X8273319Y-19562055D01*
X8263795Y-19571578D01*
X8254271Y-19562055D01*
X8263795Y-19552531D01*
X8263795Y-19571578D01*
X8454271Y-19371578D02*
X8359033Y-19371578D01*
X8349509Y-19466817D01*
X8359033Y-19457293D01*
X8378081Y-19447769D01*
X8425700Y-19447769D01*
X8444748Y-19457293D01*
X8454271Y-19466817D01*
X8463795Y-19485864D01*
X8463795Y-19533483D01*
X8454271Y-19552531D01*
X8444748Y-19562055D01*
X8425700Y-19571578D01*
X8378081Y-19571578D01*
X8359033Y-19562055D01*
X8349509Y-19552531D01*
X8654271Y-19571578D02*
X8539986Y-19571578D01*
X8597129Y-19571578D02*
X8597129Y-19371578D01*
X8578081Y-19400150D01*
X8559033Y-19419198D01*
X8539986Y-19428721D01*
X8720938Y-19371578D02*
X8844748Y-19371578D01*
X8778081Y-19447769D01*
X8806652Y-19447769D01*
X8825700Y-19457293D01*
X8835224Y-19466817D01*
X8844748Y-19485864D01*
X8844748Y-19533483D01*
X8835224Y-19552531D01*
X8825700Y-19562055D01*
X8806652Y-19571578D01*
X8749510Y-19571578D01*
X8730462Y-19562055D01*
X8720938Y-19552531D01*
X8930462Y-19571578D02*
X8930462Y-19438245D01*
X8930462Y-19457293D02*
X8939986Y-19447769D01*
X8959033Y-19438245D01*
X8987605Y-19438245D01*
X9006652Y-19447769D01*
X9016176Y-19466817D01*
X9016176Y-19571578D01*
X9016176Y-19466817D02*
X9025700Y-19447769D01*
X9044748Y-19438245D01*
X9073319Y-19438245D01*
X9092367Y-19447769D01*
X9101890Y-19466817D01*
X9101890Y-19571578D01*
X9197129Y-19571578D02*
X9197129Y-19438245D01*
X9197129Y-19457293D02*
X9206652Y-19447769D01*
X9225700Y-19438245D01*
X9254271Y-19438245D01*
X9273319Y-19447769D01*
X9282843Y-19466817D01*
X9282843Y-19571578D01*
X9282843Y-19466817D02*
X9292367Y-19447769D01*
X9311414Y-19438245D01*
X9339986Y-19438245D01*
X9359033Y-19447769D01*
X9368557Y-19466817D01*
X9368557Y-19571578D01*
X9759033Y-19362055D02*
X9587605Y-19619198D01*
X10016176Y-19371578D02*
X10035224Y-19371578D01*
X10054271Y-19381102D01*
X10063795Y-19390626D01*
X10073319Y-19409674D01*
X10082843Y-19447769D01*
X10082843Y-19495388D01*
X10073319Y-19533483D01*
X10063795Y-19552531D01*
X10054271Y-19562055D01*
X10035224Y-19571578D01*
X10016176Y-19571578D01*
X9997129Y-19562055D01*
X9987605Y-19552531D01*
X9978081Y-19533483D01*
X9968557Y-19495388D01*
X9968557Y-19447769D01*
X9978081Y-19409674D01*
X9987605Y-19390626D01*
X9997129Y-19381102D01*
X10016176Y-19371578D01*
X10168557Y-19552531D02*
X10178081Y-19562055D01*
X10168557Y-19571578D01*
X10159033Y-19562055D01*
X10168557Y-19552531D01*
X10168557Y-19571578D01*
X10301890Y-19371578D02*
X10320938Y-19371578D01*
X10339986Y-19381102D01*
X10349510Y-19390626D01*
X10359033Y-19409674D01*
X10368557Y-19447769D01*
X10368557Y-19495388D01*
X10359033Y-19533483D01*
X10349510Y-19552531D01*
X10339986Y-19562055D01*
X10320938Y-19571578D01*
X10301890Y-19571578D01*
X10282843Y-19562055D01*
X10273319Y-19552531D01*
X10263795Y-19533483D01*
X10254271Y-19495388D01*
X10254271Y-19447769D01*
X10263795Y-19409674D01*
X10273319Y-19390626D01*
X10282843Y-19381102D01*
X10301890Y-19371578D01*
X10549510Y-19371578D02*
X10454271Y-19371578D01*
X10444748Y-19466817D01*
X10454271Y-19457293D01*
X10473319Y-19447769D01*
X10520938Y-19447769D01*
X10539986Y-19457293D01*
X10549510Y-19466817D01*
X10559033Y-19485864D01*
X10559033Y-19533483D01*
X10549510Y-19552531D01*
X10539986Y-19562055D01*
X10520938Y-19571578D01*
X10473319Y-19571578D01*
X10454271Y-19562055D01*
X10444748Y-19552531D01*
X10654271Y-19571578D02*
X10692367Y-19571578D01*
X10711414Y-19562055D01*
X10720938Y-19552531D01*
X10739986Y-19523959D01*
X10749510Y-19485864D01*
X10749510Y-19409674D01*
X10739986Y-19390626D01*
X10730462Y-19381102D01*
X10711414Y-19371578D01*
X10673319Y-19371578D01*
X10654271Y-19381102D01*
X10644748Y-19390626D01*
X10635224Y-19409674D01*
X10635224Y-19457293D01*
X10644748Y-19476340D01*
X10654271Y-19485864D01*
X10673319Y-19495388D01*
X10711414Y-19495388D01*
X10730462Y-19485864D01*
X10739986Y-19476340D01*
X10749510Y-19457293D01*
X10920938Y-19371578D02*
X10882843Y-19371578D01*
X10863795Y-19381102D01*
X10854271Y-19390626D01*
X10835224Y-19419198D01*
X10825700Y-19457293D01*
X10825700Y-19533483D01*
X10835224Y-19552531D01*
X10844748Y-19562055D01*
X10863795Y-19571578D01*
X10901890Y-19571578D01*
X10920938Y-19562055D01*
X10930462Y-19552531D01*
X10939986Y-19533483D01*
X10939986Y-19485864D01*
X10930462Y-19466817D01*
X10920938Y-19457293D01*
X10901890Y-19447769D01*
X10863795Y-19447769D01*
X10844748Y-19457293D01*
X10835224Y-19466817D01*
X10825700Y-19485864D01*
X11016176Y-19371578D02*
X11016176Y-19409674D01*
X11092367Y-19371578D02*
X11092367Y-19409674D01*
X11387605Y-19647769D02*
X11378081Y-19638245D01*
X11359033Y-19609674D01*
X11349509Y-19590626D01*
X11339986Y-19562055D01*
X11330462Y-19514436D01*
X11330462Y-19476340D01*
X11339986Y-19428721D01*
X11349509Y-19400150D01*
X11359033Y-19381102D01*
X11378081Y-19352531D01*
X11387605Y-19343007D01*
X11501890Y-19371578D02*
X11520938Y-19371578D01*
X11539986Y-19381102D01*
X11549509Y-19390626D01*
X11559033Y-19409674D01*
X11568557Y-19447769D01*
X11568557Y-19495388D01*
X11559033Y-19533483D01*
X11549509Y-19552531D01*
X11539986Y-19562055D01*
X11520938Y-19571578D01*
X11501890Y-19571578D01*
X11482843Y-19562055D01*
X11473319Y-19552531D01*
X11463795Y-19533483D01*
X11454271Y-19495388D01*
X11454271Y-19447769D01*
X11463795Y-19409674D01*
X11473319Y-19390626D01*
X11482843Y-19381102D01*
X11501890Y-19371578D01*
X11806652Y-19571578D02*
X11806652Y-19371578D01*
X11892367Y-19571578D02*
X11892367Y-19466817D01*
X11882843Y-19447769D01*
X11863795Y-19438245D01*
X11835224Y-19438245D01*
X11816176Y-19447769D01*
X11806652Y-19457293D01*
X12016176Y-19571578D02*
X11997128Y-19562055D01*
X11987605Y-19552531D01*
X11978081Y-19533483D01*
X11978081Y-19476340D01*
X11987605Y-19457293D01*
X11997128Y-19447769D01*
X12016176Y-19438245D01*
X12044748Y-19438245D01*
X12063795Y-19447769D01*
X12073319Y-19457293D01*
X12082843Y-19476340D01*
X12082843Y-19533483D01*
X12073319Y-19552531D01*
X12063795Y-19562055D01*
X12044748Y-19571578D01*
X12016176Y-19571578D01*
X12197128Y-19571578D02*
X12178081Y-19562055D01*
X12168557Y-19543007D01*
X12168557Y-19371578D01*
X12349509Y-19562055D02*
X12330462Y-19571578D01*
X12292367Y-19571578D01*
X12273319Y-19562055D01*
X12263795Y-19543007D01*
X12263795Y-19466817D01*
X12273319Y-19447769D01*
X12292367Y-19438245D01*
X12330462Y-19438245D01*
X12349509Y-19447769D01*
X12359033Y-19466817D01*
X12359033Y-19485864D01*
X12263795Y-19504912D01*
X12435224Y-19562055D02*
X12454271Y-19571578D01*
X12492367Y-19571578D01*
X12511414Y-19562055D01*
X12520938Y-19543007D01*
X12520938Y-19533483D01*
X12511414Y-19514436D01*
X12492367Y-19504912D01*
X12463795Y-19504912D01*
X12444748Y-19495388D01*
X12435224Y-19476340D01*
X12435224Y-19466817D01*
X12444748Y-19447769D01*
X12463795Y-19438245D01*
X12492367Y-19438245D01*
X12511414Y-19447769D01*
X12759033Y-19495388D02*
X12911414Y-19495388D01*
X12835224Y-19571578D02*
X12835224Y-19419198D01*
X13244748Y-19438245D02*
X13244748Y-19571578D01*
X13197128Y-19362055D02*
X13149509Y-19504912D01*
X13273319Y-19504912D01*
X13492367Y-19562055D02*
X13511414Y-19571578D01*
X13549509Y-19571578D01*
X13568557Y-19562055D01*
X13578081Y-19543007D01*
X13578081Y-19533483D01*
X13568557Y-19514436D01*
X13549509Y-19504912D01*
X13520938Y-19504912D01*
X13501890Y-19495388D01*
X13492367Y-19476340D01*
X13492367Y-19466817D01*
X13501890Y-19447769D01*
X13520938Y-19438245D01*
X13549509Y-19438245D01*
X13568557Y-19447769D01*
X13692367Y-19571578D02*
X13673319Y-19562055D01*
X13663795Y-19543007D01*
X13663795Y-19371578D01*
X13797128Y-19571578D02*
X13778081Y-19562055D01*
X13768557Y-19552531D01*
X13759033Y-19533483D01*
X13759033Y-19476340D01*
X13768557Y-19457293D01*
X13778081Y-19447769D01*
X13797128Y-19438245D01*
X13825700Y-19438245D01*
X13844748Y-19447769D01*
X13854271Y-19457293D01*
X13863795Y-19476340D01*
X13863795Y-19533483D01*
X13854271Y-19552531D01*
X13844748Y-19562055D01*
X13825700Y-19571578D01*
X13797128Y-19571578D01*
X13920938Y-19438245D02*
X13997128Y-19438245D01*
X13949509Y-19371578D02*
X13949509Y-19543007D01*
X13959033Y-19562055D01*
X13978081Y-19571578D01*
X13997128Y-19571578D01*
X14054271Y-19562055D02*
X14073319Y-19571578D01*
X14111414Y-19571578D01*
X14130462Y-19562055D01*
X14139986Y-19543007D01*
X14139986Y-19533483D01*
X14130462Y-19514436D01*
X14111414Y-19504912D01*
X14082843Y-19504912D01*
X14063795Y-19495388D01*
X14054271Y-19476340D01*
X14054271Y-19466817D01*
X14063795Y-19447769D01*
X14082843Y-19438245D01*
X14111414Y-19438245D01*
X14130462Y-19447769D01*
X14206652Y-19647769D02*
X14216176Y-19638245D01*
X14235224Y-19609674D01*
X14244748Y-19590626D01*
X14254271Y-19562055D01*
X14263795Y-19514436D01*
X14263795Y-19476340D01*
X14254271Y-19428721D01*
X14244748Y-19400150D01*
X14235224Y-19381102D01*
X14216176Y-19352531D01*
X14206652Y-19343007D01*
M02*
